{
.appVersion = "1357";
DisplayStrings = (
"rðdysa",
",/quotesinglbase/quotedblbase/quotedblleft/quotedblright/quoteleft/quoteright"
);
classes = (
{
automatic = 1;

glyphs = (
{
glyphname = A;
lastChange = "2021-11-11 12:00:15 +0000";
layers = (
{
anchors = (
{
name = bottom;
position = "{326, 0}";
},
{
name = ogonek;
position = "{599, 0}";
},
{
name = top;
position = "{326, 745}";
}
);
layerId = "30C2FD74-1A74-41AC-9C29-B288AE1DBDD7";
paths = (
{
closed = 1;
nodes = (
"95 0 LINE",
"160 182 LINE",
"493 182 LINE",
"557 0 LINE",
"641 0 LINE",
"369 745 LINE",
"283 745 LINE",
"11 0 LINE"
);
},
{
closed = 1;
nodes = (
"338 685 LINE",
"314 685 LINE",
"465 257 LINE",
"186 257 LINE"
);
}
);
width = 652;
},
{
anchors = (
{
name = bottom;
position = "{366, 0}";
},
{
name = ogonek;
position = "{637, 0}";
},
{
name = top;
position = "{366, 745}";
}
);
layerId = "9398AC28-6BE1-4A79-9C94-3CBC2F226CE7";
paths = (
{
closed = 1;
nodes = (
"179 0 LINE",
"229 152 LINE",
"502 152 LINE",
"552 0 LINE",
"721 0 LINE",
"469 745 LINE",
"263 745 LINE",
"11 0 LINE"
);
},
{
closed = 1;
nodes = (
"387 639 LINE",
"345 639 LINE",
"459 287 LINE",
"272 287 LINE"
);
}
);
width = 732;
},
{
anchors = (
{
name = bottom;
position = "{322, 0}";
},
{
name = ogonek;
position = "{595, 0}";
},
{
name = top;
position = "{322, 745}";
}
);
layerId = "C1DB0BE6-5704-4A8C-8C00-D80E72C16D98";
paths = (
{
closed = 1;
nodes = (
"77 0 LINE",
"149 197 LINE",
"495 197 LINE",
"567 0 LINE",
"622 0 LINE",
"346 745 LINE",
"298 745 LINE",
"22 0 LINE"
);
},
{
closed = 1;
nodes = (
"334 704 LINE",
"310 704 LINE",
"479 242 LINE",
"165 242 LINE"
);
}
);
width = 644;
}
);
leftKerningGroup = A;
rightKerningGroup = A;
unicode = 0041;
},
{
glyphname = AE;
lastChange = "2021-11-10 04:04:52 +0000";
layers = (
{
anchors = (
{
name = bottom;
position = "{493, 0}";
},
{
name = top;
position = "{493, 745}";
}
);
layerId = "30C2FD74-1A74-41AC-9C29-B288AE1DBDD7";
paths = (
{
closed = 1;
nodes = (
"95 0 LINE",
"160 182 LINE",
"461 182 LINE",
"461 0 LINE",
"941 0 LINE",
"941 75 LINE",
"541 75 LINE",
"541 336 LINE",
"921 336 LINE",
"921 411 LINE",
"541 411 LINE",
"541 670 LINE",
"941 670 LINE",
"941 745 LINE",
"283 745 LINE",
"11 0 LINE"
);
},
{
closed = 1;
nodes = (
"333 670 LINE",
"461 670 LINE",
"461 257 LINE",
"186 257 LINE"
);
}
);
width = 985;
},
{
anchors = (
{
name = bottom;
position = "{497, 0}";
},
{
name = top;
position = "{497, 745}";
}
);
layerId = "9398AC28-6BE1-4A79-9C94-3CBC2F226CE7";
paths = (
{
closed = 1;
nodes = (
"179 0 LINE",
"229 152 LINE",
"470 152 LINE",
"470 0 LINE",
"970 0 LINE",
"971 135 LINE",
"625 135 LINE",
"625 306 LINE",
"951 306 LINE",
"951 441 LINE",
"625 441 LINE",
"625 610 LINE",
"971 610 LINE",
"971 745 LINE",
"263 745 LINE",
"11 0 LINE"
);
},
{
closed = 1;
nodes = (
"378 610 LINE",
"470 610 LINE",
"470 287 LINE",
"272 287 LINE"
);
}
);
width = 993;
},
{
anchors = (
{
name = bottom;
position = "{494, 0}";
},
{
name = top;
position = "{494, 745}";
}
);
layerId = "C1DB0BE6-5704-4A8C-8C00-D80E72C16D98";
paths = (
{
closed = 1;
nodes = (
"77 0 LINE",
"149 197 LINE",
"472 197 LINE",
"472 0 LINE",
"932 0 LINE",
"932 45 LINE",
"522 45 LINE",
"522 351 LINE",
"912 351 LINE",
"912 396 LINE",
"522 396 LINE",
"522 700 LINE",
"932 700 LINE",
"932 745 LINE",
"298 745 LINE",
"22 0 LINE"
);
},
{
closed = 1;
nodes = (
"333 700 LINE",
"472 700 LINE",
"472 242 LINE",
"165 242 LINE"
);
}
);
width = 987;
}
);
leftKerningGroup = A;
leftMetricsKey = "=A";
rightKerningGroup = E;
rightMetricsKey = "=E";
unicode = 00C6;
},
{
glyphname = B;
lastChange = "2021-11-10 04:04:52 +0000";
layers = (
{
anchors = (
{
name = bottom;
position = "{347, 0}";
},
{
name = top;
position = "{347, 745}";
}
);
layerId = "30C2FD74-1A74-41AC-9C29-B288AE1DBDD7";
paths = (
{
closed = 1;
nodes = (
"402 0 LINE SMOOTH",
"547 0 OFFCURVE",
"638 83 OFFCURVE",
"638 217 CURVE SMOOTH",
"638 305 OFFCURVE",
"585 380 OFFCURVE",
"497 412 CURVE",
"498 388 LINE",
"568 418 OFFCURVE",
"608 480 OFFCURVE",
"608 558 CURVE SMOOTH",
"608 670 OFFCURVE",
"527 745 OFFCURVE",
"401 745 CURVE SMOOTH",
"88 745 LINE",
"88 0 LINE"
);
},
{
closed = 1;
nodes = (
"168 358 LINE",
"402 358 LINE SMOOTH",
"496 358 OFFCURVE",
"558 302 OFFCURVE",
"558 216 CURVE SMOOTH",
"558 128 OFFCURVE",
"496 75 OFFCURVE",
"402 75 CURVE SMOOTH",
"168 75 LINE"
);
},
{
closed = 1;
nodes = (
"168 670 LINE",
"395 670 LINE SMOOTH",
"475 670 OFFCURVE",
"528 629 OFFCURVE",
"528 555 CURVE SMOOTH",
"528 482 OFFCURVE",
"475 430 OFFCURVE",
"395 430 CURVE SMOOTH",
"168 430 LINE"
);
}
);
width = 693;
},
{
anchors = (
{
name = bottom;
position = "{345, 0}";
},
{
name = top;
position = "{345, 745}";
}
);
layerId = "9398AC28-6BE1-4A79-9C94-3CBC2F226CE7";
paths = (
{
closed = 1;
nodes = (
"381 0 LINE SMOOTH",
"554 0 OFFCURVE",
"657 85 OFFCURVE",
"657 232 CURVE SMOOTH",
"657 314 OFFCURVE",
"628 388 OFFCURVE",
"510 435 CURVE",
"510 359 LINE",
"593 399 OFFCURVE",
"626 461 OFFCURVE",
"626 527 CURVE SMOOTH",
"626 664 OFFCURVE",
"535 745 OFFCURVE",
"381 745 CURVE SMOOTH",
"66 745 LINE",
"66 0 LINE"
);
},
{
closed = 1;
nodes = (
"221 330 LINE",
"399 330 LINE SMOOTH",
"461 330 OFFCURVE",
"502 291 OFFCURVE",
"502 232 CURVE SMOOTH",
"502 174 OFFCURVE",
"461 135 OFFCURVE",
"399 135 CURVE SMOOTH",
"221 135 LINE"
);
},
{
closed = 1;
nodes = (
"221 615 LINE",
"392 615 LINE SMOOTH",
"440 615 OFFCURVE",
"471 585 OFFCURVE",
"471 540 CURVE SMOOTH",
"471 495 OFFCURVE",
"440 465 OFFCURVE",
"392 465 CURVE SMOOTH",
"221 465 LINE"
);
}
);
width = 690;
},
{
anchors = (
{
name = bottom;
position = "{348, 0}";
},
{
name = top;
position = "{348, 745}";
}
);
layerId = "C1DB0BE6-5704-4A8C-8C00-D80E72C16D98";
paths = (
{
closed = 1;
nodes = (
"400 0 LINE SMOOTH",
"548 0 OFFCURVE",
"629 83 OFFCURVE",
"629 208 CURVE SMOOTH",
"629 301 OFFCURVE",
"571 378 OFFCURVE",
"482 401 CURVE",
"482 392 LINE",
"554 415 OFFCURVE",
"599 479 OFFCURVE",
"599 557 CURVE SMOOTH",
"599 665 OFFCURVE",
"519 745 OFFCURVE",
"400 745 CURVE SMOOTH",
"99 745 LINE",
"99 0 LINE"
);
},
{
closed = 1;
nodes = (
"149 370 LINE",
"401 370 LINE SMOOTH",
"509 370 OFFCURVE",
"579 306 OFFCURVE",
"579 207 CURVE SMOOTH",
"579 110 OFFCURVE",
"508 45 OFFCURVE",
"391 45 CURVE SMOOTH",
"149 45 LINE"
);
},
{
closed = 1;
nodes = (
"149 700 LINE",
"394 700 LINE SMOOTH",
"492 700 OFFCURVE",
"549 644 OFFCURVE",
"549 558 CURVE SMOOTH",
"549 471 OFFCURVE",
"488 415 OFFCURVE",
"394 415 CURVE SMOOTH",
"149 415 LINE"
);
}
);
width = 695;
}
);
leftKerningGroup = I;
rightKerningGroup = B;
unicode = 0042;
},
{
glyphname = C;
lastChange = "2021-11-11 10:22:29 +0000";
layers = (
{
anchors = (
{
name = bottom;
position = "{428, 0}";
},
{
name = top;
position = "{428, 745}";
}
);
layerId = "30C2FD74-1A74-41AC-9C29-B288AE1DBDD7";
paths = (
{
closed = 1;
nodes = (
"579 -12 OFFCURVE",
"689 80 OFFCURVE",
"726 173 CURVE",
"651 206 LINE",
"613 119 OFFCURVE",
"534 63 OFFCURVE",
"428 63 CURVE SMOOTH",
"263 63 OFFCURVE",
"146 187 OFFCURVE",
"146 372 CURVE SMOOTH",
"146 557 OFFCURVE",
"263 682 OFFCURVE",
"428 682 CURVE SMOOTH",
"534 682 OFFCURVE",
"613 625 OFFCURVE",
"651 538 CURVE",
"726 571 LINE",
"689 664 OFFCURVE",
"579 757 OFFCURVE",
"428 757 CURVE SMOOTH",
"218 757 OFFCURVE",
"66 595 OFFCURVE",
"66 372 CURVE SMOOTH",
"66 149 OFFCURVE",
"218 -12 OFFCURVE",
"428 -12 CURVE SMOOTH"
);
}
);
width = 781;
},
{
anchors = (
{
name = bottom;
position = "{420, 0}";
},
{
name = top;
position = "{420, 745}";
}
);
layerId = "9398AC28-6BE1-4A79-9C94-3CBC2F226CE7";
paths = (
{
closed = 1;
nodes = (
"581 -12 OFFCURVE",
"700 77 OFFCURVE",
"739 187 CURVE",
"602 253 LINE",
"576 181 OFFCURVE",
"510 128 OFFCURVE",
"420 128 CURVE SMOOTH",
"288 128 OFFCURVE",
"199 227 OFFCURVE",
"199 373 CURVE SMOOTH",
"199 518 OFFCURVE",
"288 617 OFFCURVE",
"420 617 CURVE SMOOTH",
"510 617 OFFCURVE",
"576 564 OFFCURVE",
"602 492 CURVE",
"739 558 LINE",
"700 668 OFFCURVE",
"581 757 OFFCURVE",
"420 757 CURVE SMOOTH",
"204 757 OFFCURVE",
"44 595 OFFCURVE",
"44 373 CURVE SMOOTH",
"44 152 OFFCURVE",
"206 -12 OFFCURVE",
"420 -12 CURVE SMOOTH"
);
}
);
width = 772;
},
{
anchors = (
{
name = bottom;
position = "{430, 0}";
},
{
name = top;
position = "{430, 745}";
}
);
layerId = "C1DB0BE6-5704-4A8C-8C00-D80E72C16D98";
paths = (
{
closed = 1;
nodes = (
"577 -12 OFFCURVE",
"686 83 OFFCURVE",
"722 169 CURVE",
"675 190 LINE",
"631 97 OFFCURVE",
"543 36 OFFCURVE",
"430 36 CURVE SMOOTH",
"252 36 OFFCURVE",
"127 173 OFFCURVE",
"127 373 CURVE SMOOTH",
"127 572 OFFCURVE",
"252 709 OFFCURVE",
"430 709 CURVE SMOOTH",
"543 709 OFFCURVE",
"631 648 OFFCURVE",
"675 555 CURVE",
"722 576 LINE",
"686 662 OFFCURVE",
"577 757 OFFCURVE",
"430 757 CURVE SMOOTH",
"228 757 OFFCURVE",
"77 595 OFFCURVE",
"77 373 CURVE SMOOTH",
"77 150 OFFCURVE",
"228 -12 OFFCURVE",
"430 -12 CURVE SMOOTH"
);
}
);
width = 788;
}
);
leftKerningGroup = O;
rightKerningGroup = C;
unicode = 0043;
},
{
glyphname = D;
lastChange = "2021-11-10 04:04:52 +0000";
layers = (
{
anchors = (
{
name = bottom;
position = "{382, 0}";
},
{
name = center;
position = "{178, 373}";
},
{
name = top;
position = "{382, 745}";
}
);
layerId = "30C2FD74-1A74-41AC-9C29-B288AE1DBDD7";
paths = (
{
closed = 1;
nodes = (
"333 0 LINE SMOOTH",
"554 0 OFFCURVE",
"698 147 OFFCURVE",
"698 373 CURVE SMOOTH",
"698 600 OFFCURVE",
"554 745 OFFCURVE",
"333 745 CURVE SMOOTH",
"88 745 LINE",
"88 0 LINE"
);
},
{
closed = 1;
nodes = (
"168 670 LINE",
"333 670 LINE SMOOTH",
"503 670 OFFCURVE",
"614 555 OFFCURVE",
"614 373 CURVE SMOOTH",
"614 190 OFFCURVE",
"504 75 OFFCURVE",
"333 75 CURVE SMOOTH",
"168 75 LINE"
);
}
);
width = 742;
},
{
anchors = (
{
name = bottom;
position = "{375, 0}";
},
{
name = center;
position = "{194, 373}";
},
{
name = top;
position = "{375, 745}";
}
);
layerId = "9398AC28-6BE1-4A79-9C94-3CBC2F226CE7";
paths = (
{
closed = 1;
nodes = (
"309 0 LINE SMOOTH",
"550 0 OFFCURVE",
"706 157 OFFCURVE",
"706 373 CURVE SMOOTH",
"706 589 OFFCURVE",
"551 745 OFFCURVE",
"309 745 CURVE SMOOTH",
"66 745 LINE",
"66 0 LINE"
);
},
{
closed = 1;
nodes = (
"221 610 LINE",
"313 610 LINE SMOOTH",
"458 610 OFFCURVE",
"551 518 OFFCURVE",
"551 373 CURVE SMOOTH",
"551 228 OFFCURVE",
"458 135 OFFCURVE",
"313 135 CURVE SMOOTH",
"221 135 LINE"
);
}
);
width = 739;
},
{
anchors = (
{
name = bottom;
position = "{383, 0}";
},
{
name = center;
position = "{174, 373}";
},
{
name = top;
position = "{383, 745}";
}
);
layerId = "C1DB0BE6-5704-4A8C-8C00-D80E72C16D98";
paths = (
{
closed = 1;
nodes = (
"337 0 LINE SMOOTH",
"552 0 OFFCURVE",
"689 146 OFFCURVE",
"689 373 CURVE SMOOTH",
"689 601 OFFCURVE",
"552 745 OFFCURVE",
"337 745 CURVE SMOOTH",
"99 745 LINE",
"99 0 LINE"
);
},
{
closed = 1;
nodes = (
"149 700 LINE",
"335 700 LINE SMOOTH",
"517 700 OFFCURVE",
"639 569 OFFCURVE",
"639 373 CURVE SMOOTH",
"639 177 OFFCURVE",
"517 45 OFFCURVE",
"335 45 CURVE SMOOTH",
"149 45 LINE"
);
}
);
width = 744;
}
);
leftKerningGroup = I;
rightKerningGroup = O;
unicode = 0044;
},
{
glyphname = E;
lastChange = "2021-11-11 10:22:35 +0000";
layers = (
{
anchors = (
{
name = bottom;
position = "{328, 0}";
},
{
name = ogonek;
position = "{468, 0}";
},
{
name = top;
position = "{328, 745}";
}
);
layerId = "30C2FD74-1A74-41AC-9C29-B288AE1DBDD7";
paths = (
{
closed = 1;
nodes = (
"568 0 LINE",
"568 75 LINE",
"168 75 LINE",
"168 336 LINE",
"548 336 LINE",
"548 411 LINE",
"168 411 LINE",
"168 670 LINE",
"568 670 LINE",
"568 745 LINE",
"88 745 LINE",
"88 0 LINE"
);
}
);
width = 612;
},
{
anchors = (
{
name = bottom;
position = "{317, 0}";
},
{
name = ogonek;
position = "{467, 0}";
},
{
name = top;
position = "{317, 745}";
}
);
layerId = "9398AC28-6BE1-4A79-9C94-3CBC2F226CE7";
paths = (
{
closed = 1;
nodes = (
"567 0 LINE",
"567 135 LINE",
"221 135 LINE",
"221 306 LINE",
"547 306 LINE",
"547 441 LINE",
"221 441 LINE",
"221 610 LINE",
"567 610 LINE",
"567 745 LINE",
"66 745 LINE",
"66 0 LINE"
);
}
);
width = 589;
},
{
anchors = (
{
name = bottom;
position = "{329, 0}";
},
{
name = ogonek;
position = "{459, 0}";
},
{
name = top;
position = "{329, 745}";
}
);
layerId = "C1DB0BE6-5704-4A8C-8C00-D80E72C16D98";
paths = (
{
closed = 1;
nodes = (
"559 0 LINE",
"559 45 LINE",
"149 45 LINE",
"149 351 LINE",
"539 351 LINE",
"539 396 LINE",
"149 396 LINE",
"149 700 LINE",
"559 700 LINE",
"559 745 LINE",
"99 745 LINE",
"99 0 LINE"
);
}
);
width = 614;
}
);
leftKerningGroup = H;
rightKerningGroup = E;
unicode = 0045;
},
{
glyphname = F;
lastChange = "2021-11-10 04:04:52 +0000";
layers = (
{
anchors = (
{
name = bottom;
position = "{291, 0}";
},
{
name = top;
position = "{291, 745}";
}
);
layerId = "30C2FD74-1A74-41AC-9C29-B288AE1DBDD7";
paths = (
{
closed = 1;
nodes = (
"168 0 LINE",
"168 336 LINE",
"518 336 LINE",
"518 411 LINE",
"168 411 LINE",
"168 670 LINE",
"548 670 LINE",
"548 745 LINE",
"88 745 LINE",
"88 0 LINE"
);
}
);
width = 581;
},
{
anchors = (
{
name = bottom;
position = "{294, 0}";
},
{
name = top;
position = "{294, 745}";
}
);
layerId = "9398AC28-6BE1-4A79-9C94-3CBC2F226CE7";
paths = (
{
closed = 1;
nodes = (
"221 0 LINE",
"221 286 LINE",
"526 286 LINE",
"526 421 LINE",
"221 421 LINE",
"221 610 LINE",
"576 610 LINE",
"576 745 LINE",
"66 745 LINE",
"66 0 LINE"
);
}
);
width = 587;
},
{
anchors = (
{
name = bottom;
position = "{297, 0}";
},
{
name = top;
position = "{297, 745}";
}
);
layerId = "C1DB0BE6-5704-4A8C-8C00-D80E72C16D98";
paths = (
{
closed = 1;
nodes = (
"149 0 LINE",
"149 351 LINE",
"509 351 LINE",
"509 396 LINE",
"149 396 LINE",
"149 700 LINE",
"549 700 LINE",
"549 745 LINE",
"99 745 LINE",
"99 0 LINE"
);
}
);
width = 593;
}
);
leftKerningGroup = H;
rightKerningGroup = F;
unicode = 0046;
},
{
glyphname = G;
lastChange = "2021-11-10 04:04:52 +0000";
layers = (
{
anchors = (
{
name = bottom;
position = "{411, 0}";
},
{
name = top;
position = "{411, 745}";
}
);
layerId = "30C2FD74-1A74-41AC-9C29-B288AE1DBDD7";
paths = (
{
closed = 1;
nodes = (
"617 -12 OFFCURVE",
"766 128 OFFCURVE",
"766 323 CURVE SMOOTH",
"766 385 LINE",
"428 385 LINE",
"428 315 LINE",
"722 315 LINE",
"686 351 LINE",
"686 310 LINE SMOOTH",
"686 166 OFFCURVE",
"574 63 OFFCURVE",
"428 63 CURVE SMOOTH",
"263 63 OFFCURVE",
"146 187 OFFCURVE",
"146 372 CURVE SMOOTH",
"146 557 OFFCURVE",
"263 682 OFFCURVE",
"428 682 CURVE SMOOTH",
"537 682 OFFCURVE",
"617 627 OFFCURVE",
"654 536 CURVE",
"726 571 LINE",
"689 664 OFFCURVE",
"579 757 OFFCURVE",
"428 757 CURVE SMOOTH",
"218 757 OFFCURVE",
"66 595 OFFCURVE",
"66 372 CURVE SMOOTH",
"66 149 OFFCURVE",
"218 -12 OFFCURVE",
"428 -12 CURVE SMOOTH"
);
}
);
width = 821;
},
{
anchors = (
{
name = bottom;
position = "{402, 0}";
},
{
name = top;
position = "{402, 745}";
}
);
layerId = "9398AC28-6BE1-4A79-9C94-3CBC2F226CE7";
paths = (
{
closed = 1;
nodes = (
"595 -12 OFFCURVE",
"774 102 OFFCURVE",
"774 346 CURVE SMOOTH",
"774 425 LINE",
"420 425 LINE",
"420 295 LINE",
"690 295 LINE",
"619 355 LINE",
"619 293 LINE SMOOTH",
"619 189 OFFCURVE",
"526 128 OFFCURVE",
"424 128 CURVE SMOOTH",
"292 128 OFFCURVE",
"199 227 OFFCURVE",
"199 373 CURVE SMOOTH",
"199 518 OFFCURVE",
"288 617 OFFCURVE",
"420 617 CURVE SMOOTH",
"510 617 OFFCURVE",
"576 564 OFFCURVE",
"602 492 CURVE",
"739 558 LINE",
"700 668 OFFCURVE",
"581 757 OFFCURVE",
"420 757 CURVE SMOOTH",
"204 757 OFFCURVE",
"44 595 OFFCURVE",
"44 373 CURVE SMOOTH",
"44 152 OFFCURVE",
"210 -12 OFFCURVE",
"424 -12 CURVE SMOOTH"
);
}
);
width = 804;
},
{
anchors = (
{
name = bottom;
position = "{417, 0}";
},
{
name = top;
position = "{417, 745}";
}
);
layerId = "C1DB0BE6-5704-4A8C-8C00-D80E72C16D98";
paths = (
{
closed = 1;
nodes = (
"630 -12 OFFCURVE",
"767 139 OFFCURVE",
"767 319 CURVE SMOOTH",
"767 368 LINE",
"434 368 LINE",
"434 323 LINE",
"739 323 LINE",
"717 349 LINE",
"717 319 LINE SMOOTH",
"717 157 OFFCURVE",
"597 36 OFFCURVE",
"433 36 CURVE SMOOTH",
"255 36 OFFCURVE",
"127 171 OFFCURVE",
"127 372 CURVE SMOOTH",
"127 572 OFFCURVE",
"256 709 OFFCURVE",
"434 709 CURVE SMOOTH",
"554 709 OFFCURVE",
"642 648 OFFCURVE",
"686 555 CURVE",
"733 576 LINE",
"697 662 OFFCURVE",
"588 757 OFFCURVE",
"434 757 CURVE SMOOTH",
"227 757 OFFCURVE",
"77 595 OFFCURVE",
"77 372 CURVE SMOOTH",
"77 148 OFFCURVE",
"225 -12 OFFCURVE",
"433 -12 CURVE SMOOTH"
);
}
);
width = 834;
}
);
leftKerningGroup = O;
rightKerningGroup = G;
unicode = 0047;
},
{
glyphname = G.ss01;
lastChange = "2021-11-10 04:04:52 +0000";
layers = (
{
anchors = (
{
name = bottom;
position = "{398, 0}";
},
{
name = top;
position = "{418, 745}";
}
);
layerId = "30C2FD74-1A74-41AC-9C29-B288AE1DBDD7";
paths = (
{
closed = 1;
nodes = (
"534 -12 OFFCURVE",
"634 44 OFFCURVE",
"689 133 CURVE",
"676 150 LINE",
"676 0 LINE",
"746 0 LINE",
"746 385 LINE",
"418 385 LINE",
"418 315 LINE",
"712 315 LINE",
"676 351 LINE",
"676 310 LINE SMOOTH",
"676 166 OFFCURVE",
"564 63 OFFCURVE",
"418 63 CURVE SMOOTH",
"253 63 OFFCURVE",
"136 187 OFFCURVE",
"136 372 CURVE SMOOTH",
"136 557 OFFCURVE",
"253 682 OFFCURVE",
"418 682 CURVE SMOOTH",
"527 682 OFFCURVE",
"607 627 OFFCURVE",
"644 536 CURVE",
"716 571 LINE",
"679 664 OFFCURVE",
"569 757 OFFCURVE",
"418 757 CURVE SMOOTH",
"208 757 OFFCURVE",
"56 595 OFFCURVE",
"56 372 CURVE SMOOTH",
"56 149 OFFCURVE",
"208 -12 OFFCURVE",
"418 -12 CURVE SMOOTH"
);
}
);
width = 796;
},
{
anchors = (
{
name = bottom;
position = "{393, 0}";
},
{
name = top;
position = "{411, 745}";
}
);
layerId = "9398AC28-6BE1-4A79-9C94-3CBC2F226CE7";
paths = (
{
closed = 1;
nodes = (
"501 -12 OFFCURVE",
"589 20 OFFCURVE",
"647 98 CURVE",
"615 129 LINE",
"615 0 LINE",
"755 0 LINE",
"755 425 LINE",
"411 425 LINE",
"411 295 LINE",
"677 295 LINE",
"610 362 LINE",
"610 291 LINE SMOOTH",
"610 187 OFFCURVE",
"517 128 OFFCURVE",
"415 128 CURVE SMOOTH",
"283 128 OFFCURVE",
"190 227 OFFCURVE",
"190 373 CURVE SMOOTH",
"190 518 OFFCURVE",
"279 617 OFFCURVE",
"411 617 CURVE SMOOTH",
"501 617 OFFCURVE",
"567 564 OFFCURVE",
"593 492 CURVE",
"730 558 LINE",
"691 668 OFFCURVE",
"572 757 OFFCURVE",
"411 757 CURVE SMOOTH",
"195 757 OFFCURVE",
"35 595 OFFCURVE",
"35 373 CURVE SMOOTH",
"35 152 OFFCURVE",
"201 -12 OFFCURVE",
"415 -12 CURVE SMOOTH"
);
}
);
width = 786;
},
{
anchors = (
{
name = bottom;
position = "{398, 0}";
},
{
name = top;
position = "{418, 745}";
}
);
layerId = "C1DB0BE6-5704-4A8C-8C00-D80E72C16D98";
paths = (
{
closed = 1;
nodes = (
"550 -12 OFFCURVE",
"653 63 OFFCURVE",
"701 170 CURVE",
"691 185 LINE",
"691 0 LINE",
"741 0 LINE",
"741 368 LINE",
"418 368 LINE",
"418 323 LINE",
"727 323 LINE",
"691 359 LINE",
"691 319 LINE SMOOTH",
"691 157 OFFCURVE",
"575 36 OFFCURVE",
"417 36 CURVE SMOOTH",
"239 36 OFFCURVE",
"111 171 OFFCURVE",
"111 372 CURVE SMOOTH",
"111 572 OFFCURVE",
"240 709 OFFCURVE",
"418 709 CURVE SMOOTH",
"538 709 OFFCURVE",
"626 648 OFFCURVE",
"670 555 CURVE",
"717 576 LINE",
"681 662 OFFCURVE",
"572 757 OFFCURVE",
"418 757 CURVE SMOOTH",
"211 757 OFFCURVE",
"61 595 OFFCURVE",
"61 372 CURVE SMOOTH",
"61 148 OFFCURVE",
"209 -12 OFFCURVE",
"417 -12 CURVE SMOOTH"
);
}
);
width = 796;
}
);
leftKerningGroup = O;
rightKerningGroup = G;
},
{
glyphname = G.ss03;
lastChange = "2021-11-10 04:04:52 +0000";
layers = (
{
anchors = (
{
name = bottom;
position = "{399, 0}";
},
{
name = top;
position = "{425, 745}";
}
);
layerId = "30C2FD74-1A74-41AC-9C29-B288AE1DBDD7";
paths = (
{
closed = 1;
nodes = (
"575 -12 OFFCURVE",
"696 56 OFFCURVE",
"756 167 CURVE",
"756 385 LINE",
"428 385 LINE",
"428 315 LINE",
"712 315 LINE",
"681 351 LINE",
"681 149 LINE",
"690 206 LINE",
"644 119 OFFCURVE",
"550 63 OFFCURVE",
"434 63 CURVE SMOOTH",
"275 63 OFFCURVE",
"146 178 OFFCURVE",
"146 372 CURVE SMOOTH",
"146 557 OFFCURVE",
"263 682 OFFCURVE",
"428 682 CURVE SMOOTH",
"537 682 OFFCURVE",
"617 627 OFFCURVE",
"654 536 CURVE",
"726 571 LINE",
"689 664 OFFCURVE",
"580 757 OFFCURVE",
"425 757 CURVE SMOOTH",
"224 757 OFFCURVE",
"66 600 OFFCURVE",
"66 373 CURVE SMOOTH",
"66 143 OFFCURVE",
"227 -12 OFFCURVE",
"434 -12 CURVE SMOOTH"
);
}
);
width = 797;
},
{
anchors = (
{
name = bottom;
position = "{396, 0}";
},
{
name = top;
position = "{418, 745}";
}
);
layerId = "9398AC28-6BE1-4A79-9C94-3CBC2F226CE7";
paths = (
{
closed = 1;
nodes = (
"557 -12 OFFCURVE",
"696 44 OFFCURVE",
"764 177 CURVE",
"764 425 LINE",
"420 425 LINE",
"420 295 LINE",
"686 295 LINE",
"619 352 LINE",
"619 155 LINE",
"636 263 LINE",
"614 178 OFFCURVE",
"523 128 OFFCURVE",
"430 128 CURVE SMOOTH",
"303 128 OFFCURVE",
"199 218 OFFCURVE",
"199 374 CURVE SMOOTH",
"199 521 OFFCURVE",
"292 617 OFFCURVE",
"418 617 CURVE SMOOTH",
"511 617 OFFCURVE",
"576 564 OFFCURVE",
"602 492 CURVE",
"739 558 LINE",
"700 668 OFFCURVE",
"581 757 OFFCURVE",
"420 757 CURVE SMOOTH",
"201 757 OFFCURVE",
"44 592 OFFCURVE",
"44 375 CURVE SMOOTH",
"44 149 OFFCURVE",
"212 -12 OFFCURVE",
"428 -12 CURVE SMOOTH"
);
}
);
width = 792;
},
{
anchors = (
{
name = bottom;
position = "{394, 0}";
},
{
name = top;
position = "{434, 745}";
}
);
layerId = "C1DB0BE6-5704-4A8C-8C00-D80E72C16D98";
paths = (
{
closed = 1;
nodes = (
"589 -12 OFFCURVE",
"707 65 OFFCURVE",
"757 174 CURVE",
"757 368 LINE",
"434 368 LINE",
"434 323 LINE",
"743 323 LINE",
"709 359 LINE",
"709 151 LINE",
"716 208 LINE",
"678 104 OFFCURVE",
"572 36 OFFCURVE",
"443 36 CURVE SMOOTH",
"259 36 OFFCURVE",
"127 171 OFFCURVE",
"127 372 CURVE SMOOTH",
"127 572 OFFCURVE",
"256 709 OFFCURVE",
"434 709 CURVE SMOOTH",
"554 709 OFFCURVE",
"642 648 OFFCURVE",
"686 555 CURVE",
"733 576 LINE",
"697 662 OFFCURVE",
"588 757 OFFCURVE",
"434 757 CURVE SMOOTH",
"227 757 OFFCURVE",
"77 595 OFFCURVE",
"77 372 CURVE SMOOTH",
"77 148 OFFCURVE",
"229 -12 OFFCURVE",
"443 -12 CURVE SMOOTH"
);
}
);
width = 788;
}
);
leftKerningGroup = O;
leftMetricsKey = "=O";
rightKerningGroup = G;
},
{
glyphname = H;
lastChange = "2021-11-10 04:04:52 +0000";
layers = (
{
anchors = (
{
name = bottom;
position = "{368, 0}";
},
{
name = center;
position = "{368, 595}";
},
{
name = top;
position = "{368, 745}";
}
);
layerId = "30C2FD74-1A74-41AC-9C29-B288AE1DBDD7";
paths = (
{
closed = 1;
nodes = (
"168 0 LINE",
"168 335 LINE",
"568 335 LINE",
"568 0 LINE",
"648 0 LINE",
"648 745 LINE",
"568 745 LINE",
"568 410 LINE",
"168 410 LINE",
"168 745 LINE",
"88 745 LINE",
"88 0 LINE"
);
}
);
width = 736;
},
{
anchors = (
{
name = bottom;
position = "{366, 0}";
},
{
name = center;
position = "{366, 595}";
},
{
name = top;
position = "{366, 745}";
}
);
layerId = "9398AC28-6BE1-4A79-9C94-3CBC2F226CE7";
paths = (
{
closed = 1;
nodes = (
"221 0 LINE",
"221 288 LINE",
"511 288 LINE",
"511 0 LINE",
"666 0 LINE",
"666 745 LINE",
"511 745 LINE",
"511 423 LINE",
"221 423 LINE",
"221 745 LINE",
"66 745 LINE",
"66 0 LINE"
);
}
);
width = 732;
},
{
anchors = (
{
name = bottom;
position = "{369, 0}";
},
{
name = center;
position = "{369, 595}";
},
{
name = top;
position = "{369, 745}";
}
);
layerId = "C1DB0BE6-5704-4A8C-8C00-D80E72C16D98";
paths = (
{
closed = 1;
nodes = (
"149 0 LINE",
"149 357 LINE",
"589 357 LINE",
"589 0 LINE",
"639 0 LINE",
"639 745 LINE",
"589 745 LINE",
"589 402 LINE",
"149 402 LINE",
"149 745 LINE",
"99 745 LINE",
"99 0 LINE"
);
}
);
width = 738;
}
);
leftKerningGroup = H;
rightKerningGroup = H;
unicode = 0048;
},
{
glyphname = I;
lastChange = "2021-11-11 09:45:12 +0000";
layers = (
{
anchors = (
{
name = bottom;
position = "{128, 0}";
},
{
name = ogonek;
position = "{138, 0}";
},
{
name = top;
position = "{128, 745}";
}
);
layerId = "30C2FD74-1A74-41AC-9C29-B288AE1DBDD7";
paths = (
{
closed = 1;
nodes = (
"168 0 LINE",
"168 745 LINE",
"88 745 LINE",
"88 0 LINE"
);
}
);
width = 256;
},
{
anchors = (
{
name = bottom;
position = "{144, 0}";
},
{
name = ogonek;
position = "{171, 0}";
},
{
name = top;
position = "{144, 745}";
}
);
layerId = "9398AC28-6BE1-4A79-9C94-3CBC2F226CE7";
paths = (
{
closed = 1;
nodes = (
"221 0 LINE",
"221 745 LINE",
"66 745 LINE",
"66 0 LINE"
);
}
);
width = 287;
},
{
anchors = (
{
name = bottom;
position = "{124, 0}";
},
{
name = ogonek;
position = "{129, 0}";
},
{
name = top;
position = "{124, 745}";
}
);
layerId = "C1DB0BE6-5704-4A8C-8C00-D80E72C16D98";
paths = (
{
closed = 1;
nodes = (
"149 0 LINE",
"149 745 LINE",
"99 745 LINE",
"99 0 LINE"
);
}
);
width = 248;
}
);
leftKerningGroup = H;
rightKerningGroup = H;
unicode = 0049;
},
{
glyphname = I.ss01;
lastChange = "2021-11-11 09:45:30 +0000";
layers = (
{
anchors = (
{
name = bottom;
position = "{182, 0}";
},
{
name = ogonek;
position = "{202, 0}";
},
{
name = top;
position = "{182, 745}";
}
);
layerId = "30C2FD74-1A74-41AC-9C29-B288AE1DBDD7";
paths = (
{
closed = 1;
nodes = (
"322 0 LINE",
"322 70 LINE",
"222 70 LINE",
"222 675 LINE",
"322 675 LINE",
"322 745 LINE",
"42 745 LINE",
"42 675 LINE",
"142 675 LINE",
"142 70 LINE",
"42 70 LINE",
"42 0 LINE"
);
}
);
width = 364;
},
{
anchors = (
{
name = bottom;
position = "{261, 0}";
},
{
name = ogonek;
position = "{281, 0}";
},
{
name = top;
position = "{260, 745}";
}
);
layerId = "9398AC28-6BE1-4A79-9C94-3CBC2F226CE7";
paths = (
{
closed = 1;
nodes = (
"458 0 LINE",
"458 135 LINE",
"338 135 LINE",
"338 610 LINE",
"458 610 LINE",
"458 745 LINE",
"63 745 LINE",
"63 610 LINE",
"183 610 LINE",
"183 135 LINE",
"63 135 LINE",
"63 0 LINE"
);
}
);
width = 520;
},
{
anchors = (
{
name = bottom;
position = "{182, 0}";
},
{
name = ogonek;
position = "{202, 0}";
},
{
name = top;
position = "{182, 745}";
}
);
layerId = "C1DB0BE6-5704-4A8C-8C00-D80E72C16D98";
paths = (
{
closed = 1;
nodes = (
"307 0 LINE",
"307 45 LINE",
"207 45 LINE",
"207 700 LINE",
"307 700 LINE",
"307 745 LINE",
"57 745 LINE",
"57 700 LINE",
"157 700 LINE",
"157 45 LINE",
"57 45 LINE",
"57 0 LINE"
);
}
);
width = 364;
}
);
leftKerningGroup = H;
rightKerningGroup = H;
},
{
glyphname = J;
lastChange = "2021-11-10 04:04:52 +0000";
layers = (
{
anchors = (
{
name = bottom;
position = "{203, 0}";
},
{
name = top;
position = "{255, 745}";
}
);
layerId = "30C2FD74-1A74-41AC-9C29-B288AE1DBDD7";
paths = (
{
closed = 1;
nodes = (
"95 0 LINE SMOOTH",
"217 0 OFFCURVE",
"295 79 OFFCURVE",
"295 205 CURVE SMOOTH",
"295 745 LINE",
"215 745 LINE",
"215 205 LINE SMOOTH",
"215 128 OFFCURVE",
"169 80 OFFCURVE",
"95 80 CURVE SMOOTH",
"55 80 LINE",
"55 0 LINE"
);
}
);
width = 383;
},
{
anchors = (
{
name = bottom;
position = "{209, 0}";
},
{
name = top;
position = "{256, 745}";
}
);
layerId = "9398AC28-6BE1-4A79-9C94-3CBC2F226CE7";
paths = (
{
closed = 1;
nodes = (
"78 0 LINE SMOOTH",
"234 0 OFFCURVE",
"333 96 OFFCURVE",
"333 240 CURVE SMOOTH",
"333 745 LINE",
"178 745 LINE",
"178 233 LINE SMOOTH",
"178 177 OFFCURVE",
"138 140 OFFCURVE",
"78 140 CURVE SMOOTH",
"33 140 LINE",
"33 0 LINE"
);
}
);
width = 396;
},
{
anchors = (
{
name = bottom;
position = "{202, 0}";
},
{
name = top;
position = "{257, 745}";
}
);
layerId = "C1DB0BE6-5704-4A8C-8C00-D80E72C16D98";
paths = (
{
closed = 1;
nodes = (
"104 0 LINE SMOOTH",
"212 0 OFFCURVE",
"282 72 OFFCURVE",
"282 191 CURVE SMOOTH",
"282 745 LINE",
"232 745 LINE",
"232 194 LINE SMOOTH",
"232 99 OFFCURVE",
"184 50 OFFCURVE",
"104 50 CURVE SMOOTH",
"66 50 LINE",
"66 0 LINE"
);
}
);
width = 381;
}
);
leftKerningGroup = J;
rightKerningGroup = J;
unicode = 004A;
},
{
glyphname = J.ss03;
lastChange = "2021-11-10 04:04:52 +0000";
layers = (
{
anchors = (
{
name = bottom;
position = "{295, 0}";
},
{
name = top;
position = "{450, 745}";
}
);
layerId = "30C2FD74-1A74-41AC-9C29-B288AE1DBDD7";
paths = (
{
closed = 1;
nodes = (
"409 -12 OFFCURVE",
"490 77 OFFCURVE",
"490 195 CURVE SMOOTH",
"490 745 LINE",
"410 745 LINE",
"410 195 LINE SMOOTH",
"410 118 OFFCURVE",
"359 63 OFFCURVE",
"277 63 CURVE SMOOTH",
"202 63 OFFCURVE",
"142 109 OFFCURVE",
"119 185 CURVE",
"45 163 LINE",
"71 58 OFFCURVE",
"160 -12 OFFCURVE",
"277 -12 CURVE SMOOTH"
);
}
);
width = 578;
},
{
anchors = (
{
name = bottom;
position = "{331, 0}";
},
{
name = top;
position = "{485, 745}";
}
);
layerId = "9398AC28-6BE1-4A79-9C94-3CBC2F226CE7";
paths = (
{
closed = 1;
nodes = (
"464 -12 OFFCURVE",
"562 97 OFFCURVE",
"562 245 CURVE SMOOTH",
"562 745 LINE",
"407 745 LINE",
"407 245 LINE SMOOTH",
"407 172 OFFCURVE",
"366 128 OFFCURVE",
"295 128 CURVE SMOOTH",
"231 128 OFFCURVE",
"184 163 OFFCURVE",
"167 228 CURVE",
"23 189 LINE",
"48 64 OFFCURVE",
"151 -12 OFFCURVE",
"294 -12 CURVE SMOOTH"
);
}
);
width = 625;
},
{
anchors = (
{
name = bottom;
position = "{275, 0}";
},
{
name = top;
position = "{430, 745}";
}
);
layerId = "C1DB0BE6-5704-4A8C-8C00-D80E72C16D98";
paths = (
{
closed = 1;
nodes = (
"369 -12 OFFCURVE",
"455 64 OFFCURVE",
"455 185 CURVE SMOOTH",
"455 745 LINE",
"405 745 LINE",
"405 185 LINE SMOOTH",
"405 91 OFFCURVE",
"339 33 OFFCURVE",
"257 33 CURVE SMOOTH",
"172 33 OFFCURVE",
"115 89 OFFCURVE",
"91 166 CURVE",
"45 151 LINE",
"73 54 OFFCURVE",
"147 -12 OFFCURVE",
"256 -12 CURVE SMOOTH"
);
}
);
width = 554;
}
);
leftKerningGroup = J.ss03;
rightKerningGroup = J;
rightMetricsKey = "=J";
},
{
glyphname = K;
lastChange = "2021-11-10 04:04:52 +0000";
layers = (
{
anchors = (
{
name = bottom;
position = "{327, 0}";
},
{
name = top;
position = "{327, 745}";
}
);
layerId = "30C2FD74-1A74-41AC-9C29-B288AE1DBDD7";
paths = (
{
closed = 1;
nodes = (
"168 0 LINE",
"168 225 LINE",
"293 367 LINE",
"547 0 LINE",
"643 0 LINE",
"328 460 LINE",
"324 403 LINE",
"625 745 LINE",
"525 745 LINE",
"150 319 LINE",
"168 310 LINE",
"168 745 LINE",
"88 745 LINE",
"88 0 LINE"
);
}
);
width = 654;
},
{
anchors = (
{
name = bottom;
position = "{344, 0}";
},
{
name = top;
position = "{344, 745}";
}
);
layerId = "9398AC28-6BE1-4A79-9C94-3CBC2F226CE7";
paths = (
{
closed = 1;
nodes = (
"221 0 LINE",
"221 204 LINE",
"313 315 LINE",
"495 0 LINE",
"676 0 LINE",
"384 499 LINE",
"375 389 LINE",
"670 745 LINE",
"476 745 LINE",
"178 387 LINE",
"221 372 LINE",
"221 745 LINE",
"66 745 LINE",
"66 0 LINE"
);
}
);
width = 687;
},
{
anchors = (
{
name = bottom;
position = "{326, 0}";
},
{
name = top;
position = "{326, 745}";
}
);
layerId = "C1DB0BE6-5704-4A8C-8C00-D80E72C16D98";
paths = (
{
closed = 1;
nodes = (
"149 0 LINE",
"149 241 LINE",
"283 390 LINE",
"567 0 LINE",
"629 0 LINE",
"305 444 LINE",
"303 409 LINE",
"606 745 LINE",
"539 745 LINE",
"130 294 LINE",
"149 285 LINE",
"149 745 LINE",
"99 745 LINE",
"99 0 LINE"
);
}
);
width = 651;
}
);
leftKerningGroup = H;
rightKerningGroup = K;
unicode = 004B;
},
{
glyphname = K.ss01;
lastChange = "2021-11-10 04:04:52 +0000";
layers = (
{
anchors = (
{
name = bottom;
position = "{326, 0}";
},
{
name = top;
position = "{326, 745}";
}
);
layerId = "30C2FD74-1A74-41AC-9C29-B288AE1DBDD7";
paths = (
{
closed = 1;
nodes = (
"640 0 LINE",
"364 374 LINE",
"603 745 LINE",
"507 745 LINE",
"291 408 LINE",
"289 338 LINE",
"543 0 LINE"
);
},
{
closed = 1;
nodes = (
"160 0 LINE",
"160 745 LINE",
"80 745 LINE",
"80 0 LINE"
);
},
{
closed = 1;
nodes = (
"326 335 LINE",
"326 410 LINE",
"122 410 LINE",
"122 335 LINE"
);
}
);
width = 651;
},
{
anchors = (
{
name = bottom;
position = "{336, 0}";
},
{
name = top;
position = "{336, 745}";
}
);
layerId = "9398AC28-6BE1-4A79-9C94-3CBC2F226CE7";
paths = (
{
closed = 1;
nodes = (
"670 0 LINE",
"394 374 LINE",
"633 745 LINE",
"448 745 LINE",
"232 408 LINE",
"225 338 LINE",
"479 0 LINE"
);
},
{
closed = 1;
nodes = (
"215 0 LINE",
"215 745 LINE",
"60 745 LINE",
"60 0 LINE"
);
},
{
closed = 1;
nodes = (
"348 303 LINE",
"348 443 LINE",
"144 443 LINE",
"144 303 LINE"
);
}
);
width = 671;
},
{
anchors = (
{
name = bottom;
position = "{326, 0}";
},
{
name = top;
position = "{326, 745}";
}
);
layerId = "C1DB0BE6-5704-4A8C-8C00-D80E72C16D98";
paths = (
{
closed = 1;
nodes = (
"622 0 LINE",
"346 374 LINE",
"585 745 LINE",
"525 745 LINE",
"296 388 LINE",
"293 358 LINE",
"563 0 LINE"
);
},
{
closed = 1;
nodes = (
"142 0 LINE",
"142 745 LINE",
"92 745 LINE",
"92 0 LINE"
);
},
{
closed = 1;
nodes = (
"321 350 LINE",
"321 395 LINE",
"117 395 LINE",
"117 350 LINE"
);
}
);
width = 651;
}
);
leftKerningGroup = H;
rightKerningGroup = K;
},
{
glyphname = K.ss03;
lastChange = "2021-11-10 04:04:52 +0000";
layers = (
{
anchors = (
{
name = bottom;
position = "{342, 0}";
},
{
name = top;
position = "{342, 745}";
}
);
layerId = "30C2FD74-1A74-41AC-9C29-B288AE1DBDD7";
paths = (
{
closed = 1;
nodes = (
"673 -6 LINE",
"673 64 LINE",
"660 64 LINE SMOOTH",
"604 64 OFFCURVE",
"581 91 OFFCURVE",
"543 147 CURVE SMOOTH",
"328 460 LINE",
"324 403 LINE",
"625 745 LINE",
"525 745 LINE",
"150 319 LINE",
"168 310 LINE",
"168 745 LINE",
"88 745 LINE",
"88 0 LINE",
"168 0 LINE",
"168 225 LINE",
"294 368 LINE",
"450 142 LINE SMOOTH",
"543 8 OFFCURVE",
"579 -6 OFFCURVE",
"660 -6 CURVE SMOOTH"
);
}
);
width = 684;
},
{
anchors = (
{
name = bottom;
position = "{356, 0}";
},
{
name = top;
position = "{356, 745}";
}
);
layerId = "9398AC28-6BE1-4A79-9C94-3CBC2F226CE7";
paths = (
{
closed = 1;
nodes = (
"701 -6 LINE",
"701 124 LINE",
"666 124 LINE SMOOTH",
"618 124 OFFCURVE",
"587 150 OFFCURVE",
"549 215 CURVE SMOOTH",
"384 499 LINE",
"375 389 LINE",
"670 745 LINE",
"476 745 LINE",
"178 387 LINE",
"221 372 LINE",
"221 745 LINE",
"66 745 LINE",
"66 0 LINE",
"221 0 LINE",
"221 204 LINE",
"313 315 LINE",
"402 160 LINE SMOOTH",
"484 17 OFFCURVE",
"541 -6 OFFCURVE",
"659 -6 CURVE SMOOTH"
);
}
);
width = 712;
},
{
anchors = (
{
name = bottom;
position = "{343, 0}";
},
{
name = top;
position = "{343, 745}";
}
);
layerId = "C1DB0BE6-5704-4A8C-8C00-D80E72C16D98";
paths = (
{
closed = 1;
nodes = (
"664 -6 LINE",
"664 39 LINE",
"650 39 LINE SMOOTH",
"599 39 OFFCURVE",
"584 60 OFFCURVE",
"540 120 CURVE SMOOTH",
"305 444 LINE",
"303 409 LINE",
"606 745 LINE",
"539 745 LINE",
"130 294 LINE",
"149 285 LINE",
"149 745 LINE",
"99 745 LINE",
"99 0 LINE",
"149 0 LINE",
"149 241 LINE",
"283 390 LINE",
"477 120 LINE SMOOTH",
"553 15 OFFCURVE",
"575 -6 OFFCURVE",
"649 -6 CURVE SMOOTH"
);
}
);
width = 686;
}
);
leftKerningGroup = H;
leftMetricsKey = "=K";
rightKerningGroup = K;
rightMetricsKey = "=K";
},
{
glyphname = L;
lastChange = "2021-11-11 10:07:20 +0000";
layers = (
{
anchors = (
{
name = bottom;
position = "{293, 0}";
},
{
name = center;
position = "{128, 373}";
},
{
name = dot;
position = "{333, 372}";
},
{
name = top;
position = "{128, 745}";
},
{
name = topright;
position = "{333, 536}";
}
);
layerId = "30C2FD74-1A74-41AC-9C29-B288AE1DBDD7";
paths = (
{
closed = 1;
nodes = (
"498 0 LINE",
"498 75 LINE",
"168 75 LINE",
"168 745 LINE",
"88 745 LINE",
"88 0 LINE"
);
}
);
width = 531;
},
{
anchors = (
{
name = bottom;
position = "{301, 0}";
},
{
name = center;
position = "{144, 373}";
},
{
name = dot;
position = "{379, 372}";
},
{
name = top;
position = "{144, 745}";
},
{
name = topright;
position = "{379, 546}";
}
);
layerId = "9398AC28-6BE1-4A79-9C94-3CBC2F226CE7";
paths = (
{
closed = 1;
nodes = (
"536 0 LINE",
"536 135 LINE",
"221 135 LINE",
"221 745 LINE",
"66 745 LINE",
"66 0 LINE"
);
}
);
width = 547;
},
{
anchors = (
{
name = bottom;
position = "{294, 0}";
},
{
name = center;
position = "{124, 373}";
},
{
name = dot;
position = "{319, 372}";
},
{
name = top;
position = "{124, 745}";
},
{
name = topright;
position = "{319, 526}";
}
);
layerId = "C1DB0BE6-5704-4A8C-8C00-D80E72C16D98";
paths = (
{
closed = 1;
nodes = (
"489 0 LINE",
"489 45 LINE",
"149 45 LINE",
"149 745 LINE",
"99 745 LINE",
"99 0 LINE"
);
}
);
width = 533;
}
);
leftKerningGroup = H;
rightKerningGroup = L;
unicode = 004C;
},
{
glyphname = M;
lastChange = "2021-11-10 04:04:52 +0000";
layers = (
{
anchors = (
{
name = bottom;
position = "{418, 0}";
},
{
name = top;
position = "{418, 745}";
}
);
layerId = "30C2FD74-1A74-41AC-9C29-B288AE1DBDD7";
paths = (
{
closed = 1;
nodes = (
"168 0 LINE",
"168 637 LINE",
"143 627 LINE",
"416 230 LINE",
"420 230 LINE",
"694 627 LINE",
"668 637 LINE",
"668 0 LINE",
"748 0 LINE",
"748 745 LINE",
"678 745 LINE",
"399 339 LINE",
"438 339 LINE",
"158 745 LINE",
"88 745 LINE",
"88 0 LINE"
);
}
);
width = 836;
},
{
anchors = (
{
name = bottom;
position = "{456, 0}";
},
{
name = top;
position = "{456, 745}";
}
);
layerId = "9398AC28-6BE1-4A79-9C94-3CBC2F226CE7";
paths = (
{
closed = 1;
nodes = (
"221 0 LINE",
"221 574 LINE",
"169 560 LINE",
"446 190 LINE",
"466 190 LINE",
"753 560 LINE",
"691 574 LINE",
"691 0 LINE",
"846 0 LINE",
"846 745 LINE",
"696 745 LINE",
"425 375 LINE",
"495 375 LINE",
"216 745 LINE",
"66 745 LINE",
"66 0 LINE"
);
}
);
width = 912;
},
{
anchors = (
{
name = bottom;
position = "{409, 0}";
},
{
name = top;
position = "{409, 745}";
}
);
layerId = "C1DB0BE6-5704-4A8C-8C00-D80E72C16D98";
paths = (
{
closed = 1;
nodes = (
"149 0 LINE",
"149 662 LINE",
"141 654 LINE",
"408 246 LINE",
"410 246 LINE",
"675 654 LINE",
"669 662 LINE",
"669 0 LINE",
"719 0 LINE",
"719 745 LINE",
"679 745 LINE",
"400 323 LINE",
"415 323 LINE",
"139 745 LINE",
"99 745 LINE",
"99 0 LINE"
);
}
);
width = 818;
}
);
leftKerningGroup = H;
rightKerningGroup = H;
unicode = 004D;
},
{
glyphname = N;
lastChange = "2021-11-10 04:04:52 +0000";
layers = (
{
anchors = (
{
name = bottom;
position = "{368, 0}";
},
{
name = top;
position = "{368, 745}";
}
);
layerId = "30C2FD74-1A74-41AC-9C29-B288AE1DBDD7";
paths = (
{
closed = 1;
nodes = (
"168 0 LINE",
"168 631 LINE",
"141 631 LINE",
"578 0 LINE",
"648 0 LINE",
"648 745 LINE",
"568 745 LINE",
"568 118 LINE",
"595 118 LINE",
"158 745 LINE",
"88 745 LINE",
"88 0 LINE"
);
}
);
width = 736;
},
{
anchors = (
{
name = bottom;
position = "{371, 0}";
},
{
name = top;
position = "{371, 745}";
}
);
layerId = "9398AC28-6BE1-4A79-9C94-3CBC2F226CE7";
paths = (
{
closed = 1;
nodes = (
"221 0 LINE",
"221 546 LINE",
"163 531 LINE",
"556 0 LINE",
"676 0 LINE",
"676 745 LINE",
"521 745 LINE",
"521 203 LINE",
"585 218 LINE",
"185 745 LINE",
"66 745 LINE",
"66 0 LINE"
);
}
);
width = 742;
},
{
anchors = (
{
name = bottom;
position = "{369, 0}";
},
{
name = top;
position = "{369, 745}";
}
);
layerId = "C1DB0BE6-5704-4A8C-8C00-D80E72C16D98";
paths = (
{
closed = 1;
nodes = (
"149 0 LINE",
"149 671 LINE",
"130 671 LINE",
"599 0 LINE",
"639 0 LINE",
"639 745 LINE",
"589 745 LINE",
"589 78 LINE",
"605 78 LINE",
"139 745 LINE",
"99 745 LINE",
"99 0 LINE"
);
}
);
width = 738;
}
);
leftKerningGroup = H;
rightKerningGroup = H;
unicode = 004E;
},
{
glyphname = Eng;
lastChange = "2021-11-10 04:04:52 +0000";
layers = (
{
layerId = "C1DB0BE6-5704-4A8C-8C00-D80E72C16D98";
paths = (
{
closed = 1;
nodes = (
"574 -220 OFFCURVE",
"639 -165 OFFCURVE",
"639 -62 CURVE SMOOTH",
"639 745 LINE",
"589 745 LINE",
"589 65 LINE",
"610 71 LINE",
"139 745 LINE",
"99 745 LINE",
"99 0 LINE",
"149 0 LINE",
"149 680 LINE",
"128 674 LINE",
"610 -16 LINE",
"589 50 LINE",
"589 -62 LINE SMOOTH",
"589 -137 OFFCURVE",
"549 -175 OFFCURVE",
"480 -175 CURVE SMOOTH",
"469 -175 OFFCURVE",
"455 -174 OFFCURVE",
"444 -172 CURVE",
"444 -215 LINE",
"454 -218 OFFCURVE",
"467 -220 OFFCURVE",
"483 -220 CURVE SMOOTH"
);
}
);
width = 738;
},
{
layerId = "30C2FD74-1A74-41AC-9C29-B288AE1DBDD7";
paths = (
{
closed = 1;
nodes = (
"568 -220 OFFCURVE",
"648 -161 OFFCURVE",
"648 -50 CURVE SMOOTH",
"648 745 LINE",
"568 745 LINE",
"568 121 LINE",
"589 127 LINE",
"158 745 LINE",
"88 745 LINE",
"88 0 LINE",
"168 0 LINE",
"168 628 LINE",
"148 622 LINE",
"588 -17 LINE",
"568 49 LINE",
"568 -50 LINE SMOOTH",
"568 -117 OFFCURVE",
"529 -145 OFFCURVE",
"475 -145 CURVE SMOOTH",
"462 -145 OFFCURVE",
"447 -144 OFFCURVE",
"433 -142 CURVE",
"433 -216 LINE",
"443 -219 OFFCURVE",
"464 -220 OFFCURVE",
"473 -220 CURVE SMOOTH"
);
}
);
width = 736;
},
{
layerId = "9398AC28-6BE1-4A79-9C94-3CBC2F226CE7";
paths = (
{
closed = 1;
nodes = (
"596 -222 OFFCURVE",
"676 -149 OFFCURVE",
"676 -20 CURVE SMOOTH",
"676 745 LINE",
"521 745 LINE",
"521 235 LINE",
"562 248 LINE",
"185 745 LINE",
"66 745 LINE",
"66 0 LINE",
"221 0 LINE",
"221 520 LINE",
"181 507 LINE",
"566 -13 LINE",
"526 108 LINE",
"526 -20 LINE SMOOTH",
"526 -68 OFFCURVE",
"497 -92 OFFCURVE",
"440 -92 CURVE SMOOTH",
"428 -92 OFFCURVE",
"417 -91 OFFCURVE",
"406 -89 CURVE",
"406 -217 LINE",
"419 -220 OFFCURVE",
"440 -222 OFFCURVE",
"460 -222 CURVE SMOOTH"
);
}
);
width = 742;
}
);
leftKerningGroup = H;
leftMetricsKey = "=N";
rightKerningGroup = H;
rightMetricsKey = "=N";
unicode = 014A;
},
{
glyphname = O;
lastChange = "2021-11-10 08:10:20 +0000";
layers = (
{
anchors = (
{
name = bottom;
position = "{439, 0}";
},
{
name = center;
position = "{439, 373}";
},
{
name = ogonek;
position = "{489, 0}";
},
{
name = top;
position = "{439, 745}";
},
{
name = topright;
position = "{858, 745}";
}
);
layerId = "30C2FD74-1A74-41AC-9C29-B288AE1DBDD7";
paths = (
{
closed = 1;
nodes = (
"646 -12 OFFCURVE",
"812 149 OFFCURVE",
"812 373 CURVE SMOOTH",
"812 596 OFFCURVE",
"646 757 OFFCURVE",
"439 757 CURVE SMOOTH",
"232 757 OFFCURVE",
"66 597 OFFCURVE",
"66 373 CURVE SMOOTH",
"66 148 OFFCURVE",
"232 -12 OFFCURVE",
"439 -12 CURVE SMOOTH"
);
},
{
closed = 1;
nodes = (
"267 63 OFFCURVE",
"146 202 OFFCURVE",
"146 373 CURVE SMOOTH",
"146 542 OFFCURVE",
"266 682 OFFCURVE",
"439 682 CURVE SMOOTH",
"612 682 OFFCURVE",
"732 542 OFFCURVE",
"732 373 CURVE SMOOTH",
"732 202 OFFCURVE",
"611 63 OFFCURVE",
"439 63 CURVE SMOOTH"
);
}
);
width = 878;
},
{
anchors = (
{
name = bottom;
position = "{439, 0}";
},
{
name = center;
position = "{439, 373}";
},
{
name = ogonek;
position = "{489, 0}";
},
{
name = top;
position = "{439, 745}";
},
{
name = topright;
position = "{858, 745}";
}
);
layerId = "9398AC28-6BE1-4A79-9C94-3CBC2F226CE7";
paths = (
{
closed = 1;
nodes = (
"664 -12 OFFCURVE",
"834 154 OFFCURVE",
"834 373 CURVE SMOOTH",
"834 592 OFFCURVE",
"665 757 OFFCURVE",
"439 757 CURVE SMOOTH",
"213 757 OFFCURVE",
"44 592 OFFCURVE",
"44 373 CURVE SMOOTH",
"44 154 OFFCURVE",
"214 -12 OFFCURVE",
"439 -12 CURVE SMOOTH"
);
},
{
closed = 1;
nodes = (
"303 128 OFFCURVE",
"199 229 OFFCURVE",
"199 373 CURVE SMOOTH",
"199 517 OFFCURVE",
"303 617 OFFCURVE",
"439 617 CURVE SMOOTH",
"575 617 OFFCURVE",
"679 517 OFFCURVE",
"679 373 CURVE SMOOTH",
"679 229 OFFCURVE",
"575 128 OFFCURVE",
"439 128 CURVE SMOOTH"
);
}
);
width = 878;
},
{
anchors = (
{
name = bottom;
position = "{442, 0}";
},
{
name = center;
position = "{442, 373}";
},
{
name = ogonek;
position = "{492, 0}";
},
{
name = top;
position = "{442, 745}";
},
{
name = topright;
position = "{864, 745}";
}
);
layerId = "C1DB0BE6-5704-4A8C-8C00-D80E72C16D98";
paths = (
{
closed = 1;
nodes = (
"643 -12 OFFCURVE",
"807 147 OFFCURVE",
"807 373 CURVE SMOOTH",
"807 598 OFFCURVE",
"642 757 OFFCURVE",
"442 757 CURVE SMOOTH",
"242 757 OFFCURVE",
"77 599 OFFCURVE",
"77 373 CURVE SMOOTH",
"77 147 OFFCURVE",
"241 -12 OFFCURVE",
"442 -12 CURVE SMOOTH"
);
},
{
closed = 1;
nodes = (
"255 36 OFFCURVE",
"127 191 OFFCURVE",
"127 373 CURVE SMOOTH",
"127 552 OFFCURVE",
"254 709 OFFCURVE",
"442 709 CURVE SMOOTH",
"631 709 OFFCURVE",
"757 552 OFFCURVE",
"757 373 CURVE SMOOTH",
"757 191 OFFCURVE",
"629 36 OFFCURVE",
"442 36 CURVE SMOOTH"
);
}
);
width = 884;
}
);
leftKerningGroup = O;
rightKerningGroup = O;
unicode = 004F;
},
{
glyphname = Ohorn;
lastChange = "2021-11-10 09:13:06 +0000";
layers = (
{
anchors = (
{
name = bottom;
position = "{442, 0}";
},
{
name = center;
position = "{442, 373}";
},
{
name = top;
position = "{442, 745}";
}
);
layerId = "C1DB0BE6-5704-4A8C-8C00-D80E72C16D98";
paths = (
{
closed = 1;
nodes = (
"643 -12 OFFCURVE",
"807 147 OFFCURVE",
"807 373 CURVE SMOOTH",
"807 536 OFFCURVE",
"721 664 OFFCURVE",
"597 722 CURVE",
"588 716 LINE",
"658 716 LINE SMOOTH",
"714 716 OFFCURVE",
"754 747 OFFCURVE",
"754 806 CURVE SMOOTH",
"754 835 OFFCURVE",
"744 864 OFFCURVE",
"733 893 CURVE",
"688 893 LINE",
"698 866 OFFCURVE",
"708 840 OFFCURVE",
"708 812 CURVE SMOOTH",
"708 773 OFFCURVE",
"687 757 OFFCURVE",
"655 757 CURVE SMOOTH",
"442 757 LINE SMOOTH",
"242 757 OFFCURVE",
"77 599 OFFCURVE",
"77 373 CURVE SMOOTH",
"77 147 OFFCURVE",
"241 -12 OFFCURVE",
"442 -12 CURVE SMOOTH"
);
},
{
closed = 1;
nodes = (
"255 36 OFFCURVE",
"127 191 OFFCURVE",
"127 373 CURVE SMOOTH",
"127 552 OFFCURVE",
"254 709 OFFCURVE",
"442 709 CURVE SMOOTH",
"631 709 OFFCURVE",
"757 552 OFFCURVE",
"757 373 CURVE SMOOTH",
"757 191 OFFCURVE",
"629 36 OFFCURVE",
"442 36 CURVE SMOOTH"
);
}
);
width = 884;
},
{
anchors = (
{
name = bottom;
position = "{439, 0}";
},
{
name = center;
position = "{439, 373}";
},
{
name = top;
position = "{439, 745}";
}
);
layerId = "30C2FD74-1A74-41AC-9C29-B288AE1DBDD7";
paths = (
{
closed = 1;
nodes = (
"646 -12 OFFCURVE",
"812 149 OFFCURVE",
"812 373 CURVE SMOOTH",
"812 517 OFFCURVE",
"743 635 OFFCURVE",
"638 701 CURVE",
"628 693 LINE",
"666 693 LINE SMOOTH",
"745 693 OFFCURVE",
"796 719 OFFCURVE",
"796 801 CURVE SMOOTH",
"796 836 OFFCURVE",
"785 863 OFFCURVE",
"771 889 CURVE",
"679 889 LINE",
"692 862 OFFCURVE",
"702 837 OFFCURVE",
"702 809 CURVE SMOOTH",
"702 764 OFFCURVE",
"675 757 OFFCURVE",
"652 757 CURVE SMOOTH",
"439 757 LINE SMOOTH",
"232 757 OFFCURVE",
"66 597 OFFCURVE",
"66 373 CURVE SMOOTH",
"66 148 OFFCURVE",
"232 -12 OFFCURVE",
"439 -12 CURVE SMOOTH"
);
},
{
closed = 1;
nodes = (
"267 63 OFFCURVE",
"146 202 OFFCURVE",
"146 373 CURVE SMOOTH",
"146 542 OFFCURVE",
"266 682 OFFCURVE",
"439 682 CURVE SMOOTH",
"612 682 OFFCURVE",
"732 542 OFFCURVE",
"732 373 CURVE SMOOTH",
"732 202 OFFCURVE",
"611 63 OFFCURVE",
"439 63 CURVE SMOOTH"
);
}
);
width = 878;
},
{
anchors = (
{
name = bottom;
position = "{439, 0}";
},
{
name = center;
position = "{439, 373}";
},
{
name = top;
position = "{439, 745}";
}
);
layerId = "9398AC28-6BE1-4A79-9C94-3CBC2F226CE7";
paths = (
{
closed = 1;
nodes = (
"664 -12 OFFCURVE",
"834 154 OFFCURVE",
"834 373 CURVE SMOOTH",
"834 503 OFFCURVE",
"775 614 OFFCURVE",
"679 683 CURVE",
"644 654 LINE",
"732 654 LINE SMOOTH",
"781 654 OFFCURVE",
"815 697 OFFCURVE",
"815 793 CURVE SMOOTH",
"815 829 OFFCURVE",
"805 854 OFFCURVE",
"792 882 CURVE",
"666 882 LINE",
"676 857 OFFCURVE",
"686 827 OFFCURVE",
"686 806 CURVE SMOOTH",
"686 754 OFFCURVE",
"651 757 OFFCURVE",
"639 757 CURVE SMOOTH",
"439 757 LINE SMOOTH",
"213 757 OFFCURVE",
"44 592 OFFCURVE",
"44 373 CURVE SMOOTH",
"44 154 OFFCURVE",
"214 -12 OFFCURVE",
"439 -12 CURVE SMOOTH"
);
},
{
closed = 1;
nodes = (
"303 128 OFFCURVE",
"199 229 OFFCURVE",
"199 373 CURVE SMOOTH",
"199 517 OFFCURVE",
"303 617 OFFCURVE",
"439 617 CURVE SMOOTH",
"575 617 OFFCURVE",
"679 517 OFFCURVE",
"679 373 CURVE SMOOTH",
"679 229 OFFCURVE",
"575 128 OFFCURVE",
"439 128 CURVE SMOOTH"
);
}
);
width = 878;
}
);
leftKerningGroup = O;
leftMetricsKey = "=O";
rightKerningGroup = O;
rightMetricsKey = "=O";
unicode = 01A0;
},
{
glyphname = OE;
lastChange = "2021-11-10 04:04:52 +0000";
layers = (
{
layerId = "30C2FD74-1A74-41AC-9C29-B288AE1DBDD7";
paths = (
{
closed = 1;
nodes = (
"569 -12 OFFCURVE",
"684 52 OFFCURVE",
"751 156 CURVE",
"737 172 LINE",
"737 0 LINE",
"1217 0 LINE",
"1217 75 LINE",
"817 75 LINE",
"817 336 LINE",
"1197 336 LINE",
"1197 411 LINE",
"817 411 LINE",
"817 670 LINE",
"1217 670 LINE",
"1217 745 LINE",
"737 745 LINE",
"737 573 LINE",
"751 589 LINE",
"684 693 OFFCURVE",
"569 757 OFFCURVE",
"439 757 CURVE SMOOTH",
"232 757 OFFCURVE",
"66 597 OFFCURVE",
"66 373 CURVE SMOOTH",
"66 148 OFFCURVE",
"232 -12 OFFCURVE",
"439 -12 CURVE SMOOTH"
);
},
{
closed = 1;
nodes = (
"267 63 OFFCURVE",
"146 202 OFFCURVE",
"146 373 CURVE SMOOTH",
"146 542 OFFCURVE",
"266 682 OFFCURVE",
"439 682 CURVE SMOOTH",
"612 682 OFFCURVE",
"732 542 OFFCURVE",
"732 373 CURVE SMOOTH",
"732 202 OFFCURVE",
"611 63 OFFCURVE",
"439 63 CURVE SMOOTH"
);
}
);
width = 1261;
},
{
layerId = "9398AC28-6BE1-4A79-9C94-3CBC2F226CE7";
paths = (
{
closed = 1;
nodes = (
"549 -12 OFFCURVE",
"647 28 OFFCURVE",
"716 105 CURVE",
"684 134 LINE",
"684 0 LINE",
"1184 0 LINE",
"1185 135 LINE",
"839 135 LINE",
"839 306 LINE",
"1165 306 LINE",
"1165 441 LINE",
"839 441 LINE",
"839 610 LINE",
"1185 610 LINE",
"1185 745 LINE",
"684 745 LINE",
"684 612 LINE",
"716 642 LINE",
"647 717 OFFCURVE",
"549 757 OFFCURVE",
"439 757 CURVE SMOOTH",
"213 757 OFFCURVE",
"44 592 OFFCURVE",
"44 373 CURVE SMOOTH",
"44 154 OFFCURVE",
"214 -12 OFFCURVE",
"439 -12 CURVE SMOOTH"
);
},
{
closed = 1;
nodes = (
"303 128 OFFCURVE",
"199 229 OFFCURVE",
"199 373 CURVE SMOOTH",
"199 517 OFFCURVE",
"303 617 OFFCURVE",
"439 617 CURVE SMOOTH",
"575 617 OFFCURVE",
"679 517 OFFCURVE",
"679 373 CURVE SMOOTH",
"679 229 OFFCURVE",
"575 128 OFFCURVE",
"439 128 CURVE SMOOTH"
);
}
);
width = 1207;
},
{
layerId = "C1DB0BE6-5704-4A8C-8C00-D80E72C16D98";
paths = (
{
closed = 1;
nodes = (
"588 -12 OFFCURVE",
"716 72 OFFCURVE",
"774 207 CURVE",
"763 220 LINE",
"763 0 LINE",
"1223 0 LINE",
"1223 45 LINE",
"813 45 LINE",
"813 351 LINE",
"1203 351 LINE",
"1203 396 LINE",
"813 396 LINE",
"813 700 LINE",
"1223 700 LINE",
"1223 745 LINE",
"763 745 LINE",
"763 525 LINE",
"774 538 LINE",
"716 673 OFFCURVE",
"588 757 OFFCURVE",
"442 757 CURVE SMOOTH",
"242 757 OFFCURVE",
"77 599 OFFCURVE",
"77 373 CURVE SMOOTH",
"77 147 OFFCURVE",
"241 -12 OFFCURVE",
"442 -12 CURVE SMOOTH"
);
},
{
closed = 1;
nodes = (
"255 36 OFFCURVE",
"127 191 OFFCURVE",
"127 373 CURVE SMOOTH",
"127 552 OFFCURVE",
"254 709 OFFCURVE",
"442 709 CURVE SMOOTH",
"631 709 OFFCURVE",
"757 552 OFFCURVE",
"757 373 CURVE SMOOTH",
"757 191 OFFCURVE",
"629 36 OFFCURVE",
"442 36 CURVE SMOOTH"
);
}
);
width = 1278;
}
);
leftKerningGroup = O;
leftMetricsKey = "=O";
rightKerningGroup = E;
rightMetricsKey = "=E";
unicode = 0152;
},
{
glyphname = P;
lastChange = "2021-11-10 04:04:52 +0000";
layers = (
{
anchors = (
{
name = bottom;
position = "{322, 0}";
},
{
name = top;
position = "{322, 745}";
}
);
layerId = "30C2FD74-1A74-41AC-9C29-B288AE1DBDD7";
paths = (
{
closed = 1;
nodes = (
"168 0 LINE",
"168 290 LINE",
"344 290 LINE SMOOTH",
"491 290 OFFCURVE",
"588 381 OFFCURVE",
"588 517 CURVE SMOOTH",
"588 653 OFFCURVE",
"490 745 OFFCURVE",
"344 745 CURVE SMOOTH",
"88 745 LINE",
"88 0 LINE"
);
},
{
closed = 1;
nodes = (
"168 670 LINE",
"348 670 LINE SMOOTH",
"444 670 OFFCURVE",
"508 612 OFFCURVE",
"508 518 CURVE SMOOTH",
"508 423 OFFCURVE",
"444 365 OFFCURVE",
"348 365 CURVE SMOOTH",
"168 365 LINE"
);
}
);
width = 643;
},
{
anchors = (
{
name = bottom;
position = "{325, 0}";
},
{
name = top;
position = "{325, 745}";
}
);
layerId = "9398AC28-6BE1-4A79-9C94-3CBC2F226CE7";
paths = (
{
closed = 1;
nodes = (
"221 0 LINE",
"221 270 LINE",
"352 270 LINE SMOOTH",
"504 270 OFFCURVE",
"616 354 OFFCURVE",
"616 507 CURVE SMOOTH",
"616 663 OFFCURVE",
"506 745 OFFCURVE",
"352 745 CURVE SMOOTH",
"66 745 LINE",
"66 0 LINE"
);
},
{
closed = 1;
nodes = (
"221 610 LINE",
"353 610 LINE SMOOTH",
"418 610 OFFCURVE",
"461 569 OFFCURVE",
"461 507 CURVE SMOOTH",
"461 446 OFFCURVE",
"418 405 OFFCURVE",
"353 405 CURVE SMOOTH",
"221 405 LINE"
);
}
);
width = 649;
},
{
anchors = (
{
name = bottom;
position = "{323, 0}";
},
{
name = top;
position = "{323, 745}";
}
);
layerId = "C1DB0BE6-5704-4A8C-8C00-D80E72C16D98";
paths = (
{
closed = 1;
nodes = (
"149 0 LINE",
"149 300 LINE",
"343 300 LINE SMOOTH",
"483 300 OFFCURVE",
"579 390 OFFCURVE",
"579 522 CURVE SMOOTH",
"579 654 OFFCURVE",
"482 745 OFFCURVE",
"343 745 CURVE SMOOTH",
"99 745 LINE",
"99 0 LINE"
);
},
{
closed = 1;
nodes = (
"149 700 LINE",
"343 700 LINE SMOOTH",
"453 700 OFFCURVE",
"529 628 OFFCURVE",
"529 523 CURVE SMOOTH",
"529 418 OFFCURVE",
"452 345 OFFCURVE",
"343 345 CURVE SMOOTH",
"149 345 LINE"
);
}
);
width = 645;
}
);
leftKerningGroup = H;
rightKerningGroup = P;
unicode = 0050;
},
{
glyphname = Thorn;
lastChange = "2021-11-10 04:04:52 +0000";
layers = (
{
layerId = "30C2FD74-1A74-41AC-9C29-B288AE1DBDD7";
paths = (
{
closed = 1;
nodes = (
"160 0 LINE",
"160 145 LINE",
"336 145 LINE SMOOTH",
"483 145 OFFCURVE",
"580 236 OFFCURVE",
"580 372 CURVE SMOOTH",
"580 508 OFFCURVE",
"482 600 OFFCURVE",
"336 600 CURVE SMOOTH",
"160 600 LINE",
"160 745 LINE",
"80 745 LINE",
"80 0 LINE"
);
},
{
closed = 1;
nodes = (
"160 525 LINE",
"340 525 LINE SMOOTH",
"436 525 OFFCURVE",
"500 467 OFFCURVE",
"500 373 CURVE SMOOTH",
"500 278 OFFCURVE",
"436 220 OFFCURVE",
"340 220 CURVE SMOOTH",
"160 220 LINE"
);
}
);
width = 635;
},
{
layerId = "9398AC28-6BE1-4A79-9C94-3CBC2F226CE7";
paths = (
{
closed = 1;
nodes = (
"215 0 LINE",
"215 135 LINE",
"346 135 LINE SMOOTH",
"498 135 OFFCURVE",
"610 219 OFFCURVE",
"610 372 CURVE SMOOTH",
"610 528 OFFCURVE",
"500 610 OFFCURVE",
"346 610 CURVE SMOOTH",
"215 610 LINE",
"215 745 LINE",
"60 745 LINE",
"60 0 LINE"
);
},
{
closed = 1;
nodes = (
"215 475 LINE",
"347 475 LINE SMOOTH",
"412 475 OFFCURVE",
"455 434 OFFCURVE",
"455 372 CURVE SMOOTH",
"455 311 OFFCURVE",
"412 270 OFFCURVE",
"347 270 CURVE SMOOTH",
"215 270 LINE"
);
}
);
width = 655;
},
{
layerId = "C1DB0BE6-5704-4A8C-8C00-D80E72C16D98";
paths = (
{
closed = 1;
nodes = (
"145 0 LINE",
"145 150 LINE",
"339 150 LINE SMOOTH",
"479 150 OFFCURVE",
"575 240 OFFCURVE",
"575 372 CURVE SMOOTH",
"575 504 OFFCURVE",
"478 595 OFFCURVE",
"339 595 CURVE SMOOTH",
"145 595 LINE",
"145 745 LINE",
"95 745 LINE",
"95 0 LINE"
);
},
{
closed = 1;
nodes = (
"145 550 LINE",
"339 550 LINE SMOOTH",
"449 550 OFFCURVE",
"525 478 OFFCURVE",
"525 373 CURVE SMOOTH",
"525 268 OFFCURVE",
"448 195 OFFCURVE",
"339 195 CURVE SMOOTH",
"145 195 LINE"
);
}
);
width = 635;
}
);
leftKerningGroup = H;
rightKerningGroup = P;
unicode = 00DE;
},
{
glyphname = Q;
lastChange = "2021-11-10 04:04:52 +0000";
layers = (
{
anchors = (
{
name = bottom;
position = "{439, 0}";
},
{
name = top;
position = "{439, 745}";
}
);
layerId = "30C2FD74-1A74-41AC-9C29-B288AE1DBDD7";
paths = (
{
closed = 1;
nodes = (
"646 -12 OFFCURVE",
"812 149 OFFCURVE",
"812 373 CURVE SMOOTH",
"812 596 OFFCURVE",
"646 757 OFFCURVE",
"439 757 CURVE SMOOTH",
"232 757 OFFCURVE",
"66 597 OFFCURVE",
"66 373 CURVE SMOOTH",
"66 148 OFFCURVE",
"232 -12 OFFCURVE",
"439 -12 CURVE SMOOTH"
);
},
{
closed = 1;
nodes = (
"267 63 OFFCURVE",
"146 202 OFFCURVE",
"146 373 CURVE SMOOTH",
"146 542 OFFCURVE",
"266 682 OFFCURVE",
"439 682 CURVE SMOOTH",
"612 682 OFFCURVE",
"732 542 OFFCURVE",
"732 373 CURVE SMOOTH",
"732 202 OFFCURVE",
"611 63 OFFCURVE",
"439 63 CURVE SMOOTH"
);
},
{
closed = 1;
nodes = (
"745 -90 LINE",
"480 298 LINE",
"389 298 LINE",
"654 -90 LINE"
);
}
);
width = 878;
},
{
anchors = (
{
name = bottom;
position = "{439, 0}";
},
{
name = top;
position = "{439, 745}";
}
);
layerId = "9398AC28-6BE1-4A79-9C94-3CBC2F226CE7";
paths = (
{
closed = 1;
nodes = (
"664 -12 OFFCURVE",
"834 154 OFFCURVE",
"834 373 CURVE SMOOTH",
"834 592 OFFCURVE",
"665 757 OFFCURVE",
"439 757 CURVE SMOOTH",
"213 757 OFFCURVE",
"44 592 OFFCURVE",
"44 373 CURVE SMOOTH",
"44 154 OFFCURVE",
"214 -12 OFFCURVE",
"439 -12 CURVE SMOOTH"
);
},
{
closed = 1;
nodes = (
"303 128 OFFCURVE",
"199 229 OFFCURVE",
"199 373 CURVE SMOOTH",
"199 517 OFFCURVE",
"303 617 OFFCURVE",
"439 617 CURVE SMOOTH",
"575 617 OFFCURVE",
"679 517 OFFCURVE",
"679 373 CURVE SMOOTH",
"679 229 OFFCURVE",
"575 128 OFFCURVE",
"439 128 CURVE SMOOTH"
);
},
{
closed = 1;
nodes = (
"760 -90 LINE",
"535 298 LINE",
"375 298 LINE",
"597 -90 LINE"
);
}
);
width = 878;
},
{
anchors = (
{
name = bottom;
position = "{442, 0}";
},
{
name = top;
position = "{442, 745}";
}
);
layerId = "C1DB0BE6-5704-4A8C-8C00-D80E72C16D98";
paths = (
{
closed = 1;
nodes = (
"643 -12 OFFCURVE",
"807 147 OFFCURVE",
"807 373 CURVE SMOOTH",
"807 598 OFFCURVE",
"642 757 OFFCURVE",
"442 757 CURVE SMOOTH",
"242 757 OFFCURVE",
"77 599 OFFCURVE",
"77 373 CURVE SMOOTH",
"77 147 OFFCURVE",
"241 -12 OFFCURVE",
"442 -12 CURVE SMOOTH"
);
},
{
closed = 1;
nodes = (
"255 36 OFFCURVE",
"127 191 OFFCURVE",
"127 373 CURVE SMOOTH",
"127 552 OFFCURVE",
"254 709 OFFCURVE",
"442 709 CURVE SMOOTH",
"631 709 OFFCURVE",
"757 552 OFFCURVE",
"757 373 CURVE SMOOTH",
"757 191 OFFCURVE",
"629 36 OFFCURVE",
"442 36 CURVE SMOOTH"
);
},
{
closed = 1;
nodes = (
"733 -90 LINE",
"483 298 LINE",
"424 298 LINE",
"674 -90 LINE"
);
}
);
width = 884;
}
);
leftKerningGroup = O;
rightKerningGroup = O;
unicode = 0051;
},
{
glyphname = Q.ss03;
lastChange = "2021-11-10 04:04:52 +0000";
layers = (
{
layerId = "30C2FD74-1A74-41AC-9C29-B288AE1DBDD7";
paths = (
{
closed = 1;
nodes = (
"646 -12 OFFCURVE",
"812 149 OFFCURVE",
"812 373 CURVE SMOOTH",
"812 596 OFFCURVE",
"646 757 OFFCURVE",
"439 757 CURVE SMOOTH",
"232 757 OFFCURVE",
"66 597 OFFCURVE",
"66 373 CURVE SMOOTH",
"66 148 OFFCURVE",
"232 -12 OFFCURVE",
"439 -12 CURVE SMOOTH"
);
},
{
closed = 1;
nodes = (
"267 63 OFFCURVE",
"146 202 OFFCURVE",
"146 373 CURVE SMOOTH",
"146 542 OFFCURVE",
"266 682 OFFCURVE",
"439 682 CURVE SMOOTH",
"612 682 OFFCURVE",
"732 542 OFFCURVE",
"732 373 CURVE SMOOTH",
"732 202 OFFCURVE",
"611 63 OFFCURVE",
"439 63 CURVE SMOOTH"
);
},
{
closed = 1;
nodes = (
"762 -180 LINE",
"762 -115 LINE",
"592 -115 LINE SMOOTH",
"518 -115 OFFCURVE",
"476 -88 OFFCURVE",
"476 -20 CURVE SMOOTH",
"476 5 LINE",
"401 5 LINE",
"401 -20 LINE SMOOTH",
"401 -125 OFFCURVE",
"467 -180 OFFCURVE",
"584 -180 CURVE SMOOTH"
);
}
);
width = 878;
},
{
layerId = "9398AC28-6BE1-4A79-9C94-3CBC2F226CE7";
paths = (
{
closed = 1;
nodes = (
"664 -12 OFFCURVE",
"834 154 OFFCURVE",
"834 373 CURVE SMOOTH",
"834 592 OFFCURVE",
"665 757 OFFCURVE",
"439 757 CURVE SMOOTH",
"213 757 OFFCURVE",
"44 592 OFFCURVE",
"44 373 CURVE SMOOTH",
"44 154 OFFCURVE",
"214 -12 OFFCURVE",
"439 -12 CURVE SMOOTH"
);
},
{
closed = 1;
nodes = (
"303 128 OFFCURVE",
"199 229 OFFCURVE",
"199 373 CURVE SMOOTH",
"199 517 OFFCURVE",
"303 617 OFFCURVE",
"439 617 CURVE SMOOTH",
"575 617 OFFCURVE",
"679 517 OFFCURVE",
"679 373 CURVE SMOOTH",
"679 229 OFFCURVE",
"575 128 OFFCURVE",
"439 128 CURVE SMOOTH"
);
},
{
closed = 1;
nodes = (
"754 -180 LINE",
"754 -50 LINE",
"581 -50 LINE SMOOTH",
"538 -50 OFFCURVE",
"515 -40 OFFCURVE",
"515 -10 CURVE SMOOTH",
"515 67 LINE",
"365 67 LINE",
"365 -19 LINE SMOOTH",
"365 -132 OFFCURVE",
"425 -180 OFFCURVE",
"558 -180 CURVE SMOOTH"
);
}
);
width = 878;
},
{
layerId = "C1DB0BE6-5704-4A8C-8C00-D80E72C16D98";
paths = (
{
closed = 1;
nodes = (
"643 -12 OFFCURVE",
"807 147 OFFCURVE",
"807 373 CURVE SMOOTH",
"807 598 OFFCURVE",
"642 757 OFFCURVE",
"442 757 CURVE SMOOTH",
"242 757 OFFCURVE",
"77 599 OFFCURVE",
"77 373 CURVE SMOOTH",
"77 147 OFFCURVE",
"241 -12 OFFCURVE",
"442 -12 CURVE SMOOTH"
);
},
{
closed = 1;
nodes = (
"255 36 OFFCURVE",
"127 191 OFFCURVE",
"127 373 CURVE SMOOTH",
"127 552 OFFCURVE",
"254 709 OFFCURVE",
"442 709 CURVE SMOOTH",
"631 709 OFFCURVE",
"757 552 OFFCURVE",
"757 373 CURVE SMOOTH",
"757 191 OFFCURVE",
"629 36 OFFCURVE",
"442 36 CURVE SMOOTH"
);
},
{
closed = 1;
nodes = (
"758 -180 LINE",
"758 -140 LINE",
"589 -140 LINE SMOOTH",
"510 -140 OFFCURVE",
"463 -96 OFFCURVE",
"463 -20 CURVE SMOOTH",
"463 12 LINE",
"418 12 LINE",
"418 -20 LINE SMOOTH",
"418 -121 OFFCURVE",
"481 -180 OFFCURVE",
"587 -180 CURVE SMOOTH"
);
}
);
width = 884;
}
);
leftKerningGroup = O;
leftMetricsKey = "=O";
rightKerningGroup = O;
rightMetricsKey = "=O";
},
{
glyphname = R;
lastChange = "2021-11-10 04:04:52 +0000";
layers = (
{
anchors = (
{
name = bottom;
position = "{315, 0}";
},
{
name = top;
position = "{315, 745}";
}
);
layerId = "30C2FD74-1A74-41AC-9C29-B288AE1DBDD7";
paths = (
{
closed = 1;
nodes = (
"168 0 LINE",
"168 290 LINE",
"386 290 LINE",
"332 321 LINE",
"514 0 LINE",
"608 0 LINE",
"434 303 LINE",
"529 333 OFFCURVE",
"588 411 OFFCURVE",
"588 517 CURVE SMOOTH",
"588 653 OFFCURVE",
"490 745 OFFCURVE",
"344 745 CURVE SMOOTH",
"88 745 LINE",
"88 0 LINE"
);
},
{
closed = 1;
nodes = (
"168 670 LINE",
"348 670 LINE SMOOTH",
"444 670 OFFCURVE",
"508 612 OFFCURVE",
"508 518 CURVE SMOOTH",
"508 423 OFFCURVE",
"444 365 OFFCURVE",
"348 365 CURVE SMOOTH",
"168 365 LINE"
);
}
);
width = 641;
},
{
anchors = (
{
name = bottom;
position = "{334, 0}";
},
{
name = top;
position = "{334, 745}";
}
);
layerId = "9398AC28-6BE1-4A79-9C94-3CBC2F226CE7";
paths = (
{
closed = 1;
nodes = (
"221 0 LINE",
"221 270 LINE",
"398 270 LINE",
"298 329 LINE",
"482 0 LINE",
"656 0 LINE",
"486 297 LINE",
"565 333 OFFCURVE",
"615 405 OFFCURVE",
"615 507 CURVE SMOOTH",
"615 663 OFFCURVE",
"505 745 OFFCURVE",
"351 745 CURVE SMOOTH",
"66 745 LINE",
"66 0 LINE"
);
},
{
closed = 1;
nodes = (
"221 610 LINE",
"352 610 LINE SMOOTH",
"417 610 OFFCURVE",
"460 569 OFFCURVE",
"460 507 CURVE SMOOTH",
"460 446 OFFCURVE",
"417 405 OFFCURVE",
"352 405 CURVE SMOOTH",
"221 405 LINE"
);
}
);
width = 667;
},
{
anchors = (
{
name = bottom;
position = "{312, 0}";
},
{
name = top;
position = "{312, 745}";
}
);
layerId = "C1DB0BE6-5704-4A8C-8C00-D80E72C16D98";
paths = (
{
closed = 1;
nodes = (
"149 0 LINE",
"149 300 LINE",
"397 300 LINE",
"343 331 LINE",
"532 0 LINE",
"591 0 LINE",
"413 308 LINE",
"514 333 OFFCURVE",
"579 414 OFFCURVE",
"579 522 CURVE SMOOTH",
"579 654 OFFCURVE",
"482 745 OFFCURVE",
"343 745 CURVE SMOOTH",
"99 745 LINE",
"99 0 LINE"
);
},
{
closed = 1;
nodes = (
"149 700 LINE",
"343 700 LINE SMOOTH",
"453 700 OFFCURVE",
"529 628 OFFCURVE",
"529 523 CURVE SMOOTH",
"529 418 OFFCURVE",
"452 345 OFFCURVE",
"343 345 CURVE SMOOTH",
"149 345 LINE"
);
}
);
width = 635;
}
);
leftKerningGroup = H;
rightKerningGroup = R;
unicode = 0052;
},
{
glyphname = R.ss03;
lastChange = "2021-11-10 04:04:52 +0000";
layers = (
{
anchors = (
{
name = bottom;
position = "{316, 0}";
},
{
name = top;
position = "{316, 745}";
}
);
layerId = "30C2FD74-1A74-41AC-9C29-B288AE1DBDD7";
paths = (
{
closed = 1;
nodes = (
"168 0 LINE",
"168 290 LINE",
"431 290 LINE SMOOTH",
"473 290 OFFCURVE",
"497 271 OFFCURVE",
"497 230 CURVE SMOOTH",
"497 153 OFFCURVE",
"497 77 OFFCURVE",
"507 0 CURVE",
"587 0 LINE",
"577 79 OFFCURVE",
"577 157 OFFCURVE",
"577 236 CURVE SMOOTH",
"577 301 OFFCURVE",
"545 339 OFFCURVE",
"488 351 CURVE",
"493 330 LINE",
"553 369 OFFCURVE",
"588 435 OFFCURVE",
"588 517 CURVE SMOOTH",
"588 653 OFFCURVE",
"490 745 OFFCURVE",
"344 745 CURVE SMOOTH",
"88 745 LINE",
"88 0 LINE"
);
},
{
closed = 1;
nodes = (
"168 670 LINE",
"348 670 LINE SMOOTH",
"444 670 OFFCURVE",
"508 612 OFFCURVE",
"508 518 CURVE SMOOTH",
"508 423 OFFCURVE",
"444 365 OFFCURVE",
"348 365 CURVE SMOOTH",
"168 365 LINE"
);
}
);
width = 643;
},
{
anchors = (
{
name = bottom;
position = "{324, 0}";
},
{
name = top;
position = "{324, 745}";
}
);
layerId = "9398AC28-6BE1-4A79-9C94-3CBC2F226CE7";
paths = (
{
closed = 1;
nodes = (
"221 0 LINE",
"221 270 LINE",
"394 270 LINE SMOOTH",
"437 270 OFFCURVE",
"460 249 OFFCURVE",
"460 209 CURVE SMOOTH",
"460 139 OFFCURVE",
"461 70 OFFCURVE",
"471 0 CURVE",
"626 0 LINE",
"616 73 OFFCURVE",
"615 147 OFFCURVE",
"615 220 CURVE SMOOTH",
"615 299 OFFCURVE",
"584 346 OFFCURVE",
"518 368 CURVE",
"528 319 LINE",
"583 361 OFFCURVE",
"616 424 OFFCURVE",
"616 507 CURVE SMOOTH",
"616 663 OFFCURVE",
"506 745 OFFCURVE",
"352 745 CURVE SMOOTH",
"66 745 LINE",
"66 0 LINE"
);
},
{
closed = 1;
nodes = (
"221 610 LINE",
"353 610 LINE SMOOTH",
"418 610 OFFCURVE",
"461 569 OFFCURVE",
"461 507 CURVE SMOOTH",
"461 446 OFFCURVE",
"418 405 OFFCURVE",
"353 405 CURVE SMOOTH",
"221 405 LINE"
);
}
);
width = 670;
},
{
anchors = (
{
name = bottom;
position = "{323, 0}";
},
{
name = top;
position = "{323, 745}";
}
);
layerId = "C1DB0BE6-5704-4A8C-8C00-D80E72C16D98";
paths = (
{
closed = 1;
nodes = (
"149 0 LINE",
"149 300 LINE",
"445 300 LINE SMOOTH",
"489 300 OFFCURVE",
"511 280 OFFCURVE",
"511 240 CURVE SMOOTH",
"511 160 OFFCURVE",
"511 80 OFFCURVE",
"521 0 CURVE",
"571 0 LINE",
"561 80 OFFCURVE",
"561 160 OFFCURVE",
"561 240 CURVE SMOOTH",
"561 302 OFFCURVE",
"527 340 OFFCURVE",
"453 341 CURVE",
"462 326 LINE",
"535 362 OFFCURVE",
"579 432 OFFCURVE",
"579 522 CURVE SMOOTH",
"579 654 OFFCURVE",
"482 745 OFFCURVE",
"343 745 CURVE SMOOTH",
"99 745 LINE",
"99 0 LINE"
);
},
{
closed = 1;
nodes = (
"149 700 LINE",
"343 700 LINE SMOOTH",
"453 700 OFFCURVE",
"529 628 OFFCURVE",
"529 523 CURVE SMOOTH",
"529 418 OFFCURVE",
"452 345 OFFCURVE",
"343 345 CURVE SMOOTH",
"149 345 LINE"
);
}
);
width = 656;
}
);
leftKerningGroup = H;
leftMetricsKey = "=R";
rightKerningGroup = R;
},
{
glyphname = S;
lastChange = "2021-11-11 12:16:32 +0000";
layers = (
{
anchors = (
{
name = bottom;
position = "{339, 0}";
},
{
name = top;
position = "{323, 745}";
}
);
layerId = "30C2FD74-1A74-41AC-9C29-B288AE1DBDD7";
paths = (
{
closed = 1;
nodes = (
"481 -12 OFFCURVE",
"580 71 OFFCURVE",
"580 191 CURVE SMOOTH",
"580 290 OFFCURVE",
"519 354 OFFCURVE",
"402 389 CURVE SMOOTH",
"284 424 LINE SMOOTH",
"204 448 OFFCURVE",
"166 500 OFFCURVE",
"166 561 CURVE SMOOTH",
"166 637 OFFCURVE",
"224 685 OFFCURVE",
"310 685 CURVE SMOOTH",
"401 685 OFFCURVE",
"471 639 OFFCURVE",
"503 551 CURVE",
"573 579 LINE",
"541 676 OFFCURVE",
"442 757 OFFCURVE",
"309 757 CURVE SMOOTH",
"180 757 OFFCURVE",
"86 673 OFFCURVE",
"86 555 CURVE SMOOTH",
"86 463 OFFCURVE",
"145 386 OFFCURVE",
"250 355 CURVE SMOOTH",
"384 315 LINE SMOOTH",
"458 293 OFFCURVE",
"500 257 OFFCURVE",
"500 184 CURVE SMOOTH",
"500 109 OFFCURVE",
"435 60 OFFCURVE",
"339 60 CURVE SMOOTH",
"237 60 OFFCURVE",
"161 114 OFFCURVE",
"127 215 CURVE",
"55 188 LINE",
"89 78 OFFCURVE",
"196 -12 OFFCURVE",
"339 -12 CURVE SMOOTH"
);
}
);
width = 646;
},
{
anchors = (
{
name = bottom;
position = "{337, 0}";
},
{
name = top;
position = "{318, 745}";
}
);
layerId = "9398AC28-6BE1-4A79-9C94-3CBC2F226CE7";
paths = (
{
closed = 1;
nodes = (
"494 -12 OFFCURVE",
"603 80 OFFCURVE",
"603 211 CURVE SMOOTH",
"603 311 OFFCURVE",
"544 380 OFFCURVE",
"424 419 CURVE SMOOTH",
"281 465 LINE SMOOTH",
"236 480 OFFCURVE",
"213 506 OFFCURVE",
"213 541 CURVE SMOOTH",
"213 589 OFFCURVE",
"255 622 OFFCURVE",
"318 622 CURVE SMOOTH",
"390 622 OFFCURVE",
"449 580 OFFCURVE",
"477 511 CURVE",
"603 568 LINE",
"561 685 OFFCURVE",
"452 757 OFFCURVE",
"318 757 CURVE SMOOTH",
"165 757 OFFCURVE",
"60 666 OFFCURVE",
"60 535 CURVE SMOOTH",
"60 435 OFFCURVE",
"120 363 OFFCURVE",
"239 324 CURVE SMOOTH",
"385 276 LINE SMOOTH",
"430 261 OFFCURVE",
"451 237 OFFCURVE",
"451 202 CURVE SMOOTH",
"451 154 OFFCURVE",
"410 123 OFFCURVE",
"347 123 CURVE SMOOTH",
"267 123 OFFCURVE",
"197 172 OFFCURVE",
"160 254 CURVE",
"33 197 LINE",
"76 68 OFFCURVE",
"196 -12 OFFCURVE",
"337 -12 CURVE SMOOTH"
);
}
);
width = 647;
},
{
anchors = (
{
name = bottom;
position = "{331, 0}";
},
{
name = top;
position = "{320, 745}";
}
);
layerId = "C1DB0BE6-5704-4A8C-8C00-D80E72C16D98";
paths = (
{
closed = 1;
nodes = (
"464 -12 OFFCURVE",
"562 68 OFFCURVE",
"562 183 CURVE SMOOTH",
"562 276 OFFCURVE",
"502 345 OFFCURVE",
"405 374 CURVE SMOOTH",
"279 412 LINE SMOOTH",
"177 443 OFFCURVE",
"145 489 OFFCURVE",
"145 562 CURVE SMOOTH",
"145 655 OFFCURVE",
"217 714 OFFCURVE",
"310 714 CURVE SMOOTH",
"398 714 OFFCURVE",
"473 663 OFFCURVE",
"508 569 CURVE",
"553 583 LINE",
"524 675 OFFCURVE",
"432 757 OFFCURVE",
"309 757 CURVE SMOOTH",
"190 757 OFFCURVE",
"97 678 OFFCURVE",
"97 563 CURVE SMOOTH",
"97 474 OFFCURVE",
"142 398 OFFCURVE",
"257 365 CURVE SMOOTH",
"396 325 LINE SMOOTH",
"458 307 OFFCURVE",
"514 265 OFFCURVE",
"514 184 CURVE SMOOTH",
"514 88 OFFCURVE",
"436 31 OFFCURVE",
"331 31 CURVE SMOOTH",
"226 31 OFFCURVE",
"150 87 OFFCURVE",
"111 188 CURVE",
"66 174 LINE",
"96 79 OFFCURVE",
"189 -12 OFFCURVE",
"332 -12 CURVE SMOOTH"
);
}
);
width = 639;
}
);
leftKerningGroup = S;
rightKerningGroup = S;
unicode = 0053;
},
{
glyphname = Schwa;
lastChange = "2021-11-10 04:04:52 +0000";
layers = (
{
layerId = "C1DB0BE6-5704-4A8C-8C00-D80E72C16D98";
paths = (
{
closed = 1;
nodes = (
"611 -12 OFFCURVE",
"767 156 OFFCURVE",
"767 371 CURVE SMOOTH",
"767 589 OFFCURVE",
"606 757 OFFCURVE",
"398 757 CURVE SMOOTH",
"262 757 OFFCURVE",
"140 686 OFFCURVE",
"87 582 CURVE",
"128 560 LINE",
"181 652 OFFCURVE",
"283 709 OFFCURVE",
"398 709 CURVE SMOOTH",
"581 709 OFFCURVE",
"717 564 OFFCURVE",
"717 373 CURVE SMOOTH",
"717 184 OFFCURVE",
"580 36 OFFCURVE",
"409 36 CURVE SMOOTH",
"248 36 OFFCURVE",
"126 167 OFFCURVE",
"126 343 CURVE SMOOTH",
"126 346 OFFCURVE",
"126 351 OFFCURVE",
"126 354 CURVE",
"109 342 LINE",
"751 342 LINE",
"751 388 LINE",
"81 388 LINE",
"78 368 OFFCURVE",
"77 355 OFFCURVE",
"77 338 CURVE SMOOTH",
"77 139 OFFCURVE",
"221 -12 OFFCURVE",
"410 -12 CURVE SMOOTH"
);
}
);
width = 844;
},
{
layerId = "30C2FD74-1A74-41AC-9C29-B288AE1DBDD7";
paths = (
{
closed = 1;
nodes = (
"630 -12 OFFCURVE",
"766 164 OFFCURVE",
"766 369 CURVE SMOOTH",
"766 592 OFFCURVE",
"605 757 OFFCURVE",
"394 757 CURVE SMOOTH",
"256 757 OFFCURVE",
"134 686 OFFCURVE",
"83 581 CURVE",
"154 545 LINE",
"199 630 OFFCURVE",
"288 682 OFFCURVE",
"394 682 CURVE SMOOTH",
"565 682 OFFCURVE",
"689 545 OFFCURVE",
"686 373 CURVE",
"689 183 OFFCURVE",
"574 63 OFFCURVE",
"416 63 CURVE SMOOTH",
"263 63 OFFCURVE",
"155 170 OFFCURVE",
"155 315 CURVE SMOOTH",
"155 324 OFFCURVE",
"155 333 OFFCURVE",
"156 343 CURVE",
"124 325 LINE",
"705 325 LINE",
"705 400 LINE",
"72 400 LINE",
"68 379 OFFCURVE",
"66 362 OFFCURVE",
"66 339 CURVE SMOOTH",
"66 140 OFFCURVE",
"210 -12 OFFCURVE",
"412 -12 CURVE SMOOTH"
);
}
);
width = 832;
},
{
layerId = "9398AC28-6BE1-4A79-9C94-3CBC2F226CE7";
paths = (
{
closed = 1;
nodes = (
"608 -12 OFFCURVE",
"764 152 OFFCURVE",
"764 370 CURVE SMOOTH",
"764 585 OFFCURVE",
"611 757 OFFCURVE",
"385 757 CURVE SMOOTH",
"242 757 OFFCURVE",
"121 687 OFFCURVE",
"74 579 CURVE",
"201 518 LINE",
"237 581 OFFCURVE",
"301 617 OFFCURVE",
"383 617 CURVE SMOOTH",
"521 617 OFFCURVE",
"615 517 OFFCURVE",
"608 372 CURVE",
"615 222 OFFCURVE",
"522 128 OFFCURVE",
"399 128 CURVE SMOOTH",
"289 128 OFFCURVE",
"211 206 OFFCURVE",
"211 313 CURVE SMOOTH",
"211 326 OFFCURVE",
"212 339 OFFCURVE",
"214 352 CURVE",
"141 297 LINE",
"636 297 LINE",
"636 417 LINE",
"51 417 LINE",
"46 395 OFFCURVE",
"44 371 OFFCURVE",
"44 347 CURVE SMOOTH",
"44 134 OFFCURVE",
"191 -12 OFFCURVE",
"394 -12 CURVE SMOOTH"
);
}
);
width = 808;
}
);
leftKerningGroup = O;
leftMetricsKey = "=O";
rightKerningGroup = O;
rightMetricsKey = "=O";
unicode = 018F;
},
{
glyphname = T;
lastChange = "2021-11-10 04:04:52 +0000";
layers = (
{
anchors = (
{
name = bottom;
position = "{256, 0}";
},
{
name = center;
position = "{256, 373}";
},
{
name = top;
position = "{256, 745}";
}
);
layerId = "30C2FD74-1A74-41AC-9C29-B288AE1DBDD7";
paths = (
{
closed = 1;
nodes = (
"297 0 LINE",
"297 670 LINE",
"501 670 LINE",
"501 745 LINE",
"11 745 LINE",
"11 670 LINE",
"217 670 LINE",
"217 0 LINE"
);
}
);
width = 512;
},
{
anchors = (
{
name = bottom;
position = "{276, 0}";
},
{
name = center;
position = "{276, 373}";
},
{
name = top;
position = "{276, 745}";
}
);
layerId = "9398AC28-6BE1-4A79-9C94-3CBC2F226CE7";
paths = (
{
closed = 1;
nodes = (
"355 0 LINE",
"355 610 LINE",
"541 610 LINE",
"541 745 LINE",
"11 745 LINE",
"11 610 LINE",
"200 610 LINE",
"200 0 LINE"
);
}
);
width = 552;
},
{
anchors = (
{
name = bottom;
position = "{257, 0}";
},
{
name = center;
position = "{257, 373}";
},
{
name = top;
position = "{257, 745}";
}
);
layerId = "C1DB0BE6-5704-4A8C-8C00-D80E72C16D98";
paths = (
{
closed = 1;
nodes = (
"283 0 LINE",
"283 700 LINE",
"492 700 LINE",
"492 745 LINE",
"22 745 LINE",
"22 700 LINE",
"233 700 LINE",
"233 0 LINE"
);
}
);
width = 514;
}
);
leftKerningGroup = T;
rightKerningGroup = T;
unicode = 0054;
},
{
glyphname = U;
lastChange = "2021-11-11 09:49:08 +0000";
layers = (
{
anchors = (
{
name = bottom;
position = "{350, 0}";
},
{
name = ogonek;
position = "{370, 0}";
},
{
name = top;
position = "{350, 745}";
}
);
layerId = "30C2FD74-1A74-41AC-9C29-B288AE1DBDD7";
paths = (
{
closed = 1;
nodes = (
"509 -12 OFFCURVE",
"615 95 OFFCURVE",
"615 243 CURVE SMOOTH",
"615 745 LINE",
"535 745 LINE",
"535 243 LINE SMOOTH",
"535 135 OFFCURVE",
"460 63 OFFCURVE",
"350 63 CURVE SMOOTH",
"240 63 OFFCURVE",
"165 135 OFFCURVE",
"165 243 CURVE SMOOTH",
"165 745 LINE",
"85 745 LINE",
"85 243 LINE SMOOTH",
"85 95 OFFCURVE",
"191 -12 OFFCURVE",
"350 -12 CURVE SMOOTH"
);
}
);
width = 700;
},
{
anchors = (
{
name = bottom;
position = "{362, 0}";
},
{
name = ogonek;
position = "{382, 0}";
},
{
name = top;
position = "{362, 745}";
}
);
layerId = "9398AC28-6BE1-4A79-9C94-3CBC2F226CE7";
paths = (
{
closed = 1;
nodes = (
"538 -12 OFFCURVE",
"667 109 OFFCURVE",
"667 273 CURVE SMOOTH",
"667 745 LINE",
"512 745 LINE",
"512 283 LINE SMOOTH",
"512 194 OFFCURVE",
"449 128 OFFCURVE",
"362 128 CURVE SMOOTH",
"275 128 OFFCURVE",
"212 194 OFFCURVE",
"212 283 CURVE SMOOTH",
"212 745 LINE",
"57 745 LINE",
"57 273 LINE SMOOTH",
"57 109 OFFCURVE",
"186 -12 OFFCURVE",
"362 -12 CURVE SMOOTH"
);
}
);
width = 724;
},
{
anchors = (
{
name = bottom;
position = "{345, 0}";
},
{
name = ogonek;
position = "{365, 0}";
},
{
name = top;
position = "{345, 745}";
}
);
layerId = "C1DB0BE6-5704-4A8C-8C00-D80E72C16D98";
paths = (
{
closed = 1;
nodes = (
"494 -12 OFFCURVE",
"595 93 OFFCURVE",
"595 251 CURVE SMOOTH",
"595 745 LINE",
"545 745 LINE",
"545 247 LINE SMOOTH",
"545 121 OFFCURVE",
"464 33 OFFCURVE",
"345 33 CURVE SMOOTH",
"226 33 OFFCURVE",
"145 121 OFFCURVE",
"145 247 CURVE SMOOTH",
"145 745 LINE",
"95 745 LINE",
"95 251 LINE SMOOTH",
"95 93 OFFCURVE",
"196 -12 OFFCURVE",
"345 -12 CURVE SMOOTH"
);
}
);
width = 690;
}
);
leftKerningGroup = U;
rightKerningGroup = U;
unicode = 0055;
},
{
glyphname = U.ss01;
lastChange = "2021-11-11 09:49:25 +0000";
layers = (
{
anchors = (
{
name = bottom;
position = "{353, 0}";
},
{
name = ogonek;
position = "{373, 0}";
},
{
name = top;
position = "{353, 745}";
}
);
layerId = "30C2FD74-1A74-41AC-9C29-B288AE1DBDD7";
paths = (
{
closed = 1;
nodes = (
"618 0 LINE",
"618 745 LINE",
"538 745 LINE",
"538 75 LINE",
"168 75 LINE",
"168 745 LINE",
"88 745 LINE",
"88 0 LINE"
);
}
);
width = 706;
},
{
anchors = (
{
name = bottom;
position = "{371, 0}";
},
{
name = ogonek;
position = "{391, 0}";
},
{
name = top;
position = "{371, 745}";
}
);
layerId = "9398AC28-6BE1-4A79-9C94-3CBC2F226CE7";
paths = (
{
closed = 1;
nodes = (
"676 0 LINE",
"676 745 LINE",
"521 745 LINE",
"521 135 LINE",
"221 135 LINE",
"221 745 LINE",
"66 745 LINE",
"66 0 LINE"
);
}
);
width = 742;
},
{
anchors = (
{
name = bottom;
position = "{349, 0}";
},
{
name = ogonek;
position = "{369, 0}";
},
{
name = top;
position = "{349, 745}";
}
);
layerId = "C1DB0BE6-5704-4A8C-8C00-D80E72C16D98";
paths = (
{
closed = 1;
nodes = (
"599 0 LINE",
"599 745 LINE",
"549 745 LINE",
"549 45 LINE",
"149 45 LINE",
"149 745 LINE",
"99 745 LINE",
"99 0 LINE"
);
}
);
width = 698;
}
);
leftKerningGroup = H;
leftMetricsKey = "=H";
rightKerningGroup = H;
rightMetricsKey = "=H";
},
{
glyphname = Uhorn;
lastChange = "2021-11-10 09:13:34 +0000";
layers = (
{
anchors = (
{
name = bottom;
position = "{345, 0}";
},
{
name = ogonek;
position = "{621, 10}";
},
{
name = top;
position = "{345, 745}";
}
);
layerId = "C1DB0BE6-5704-4A8C-8C00-D80E72C16D98";
paths = (
{
closed = 1;
nodes = (
"494 -12 OFFCURVE",
"595 93 OFFCURVE",
"595 251 CURVE SMOOTH",
"595 704 LINE",
"602 704 LINE SMOOTH",
"652 704 OFFCURVE",
"687 738 OFFCURVE",
"687 794 CURVE SMOOTH",
"687 823 OFFCURVE",
"677 852 OFFCURVE",
"666 881 CURVE",
"621 881 LINE",
"631 854 OFFCURVE",
"641 828 OFFCURVE",
"641 800 CURVE SMOOTH",
"641 761 OFFCURVE",
"620 745 OFFCURVE",
"588 745 CURVE SMOOTH {name = \"🧨\";}",
"545 745 LINE",
"545 247 LINE SMOOTH",
"545 121 OFFCURVE",
"464 33 OFFCURVE",
"345 33 CURVE SMOOTH",
"226 33 OFFCURVE",
"145 121 OFFCURVE",
"145 247 CURVE SMOOTH",
"145 745 LINE",
"95 745 LINE",
"95 251 LINE SMOOTH",
"95 93 OFFCURVE",
"196 -12 OFFCURVE",
"345 -12 CURVE SMOOTH"
);
}
);
width = 690;
},
{
anchors = (
{
name = bottom;
position = "{350, 0}";
},
{
name = ogonek;
position = "{630, 10}";
},
{
name = top;
position = "{350, 745}";
}
);
layerId = "30C2FD74-1A74-41AC-9C29-B288AE1DBDD7";
paths = (
{
closed = 1;
nodes = (
"509 -12 OFFCURVE",
"615 95 OFFCURVE",
"615 243 CURVE SMOOTH",
"615 671 LINE",
"622 671 LINE SMOOTH",
"701 671 OFFCURVE",
"752 707 OFFCURVE",
"752 789 CURVE SMOOTH",
"752 824 OFFCURVE",
"741 851 OFFCURVE",
"727 877 CURVE",
"635 877 LINE",
"648 850 OFFCURVE",
"658 825 OFFCURVE",
"658 797 CURVE SMOOTH",
"658 752 OFFCURVE",
"631 745 OFFCURVE",
"608 745 CURVE SMOOTH",
"535 745 LINE",
"535 243 LINE SMOOTH",
"535 135 OFFCURVE",
"460 63 OFFCURVE",
"350 63 CURVE SMOOTH",
"240 63 OFFCURVE",
"165 135 OFFCURVE",
"165 243 CURVE SMOOTH",
"165 745 LINE",
"85 745 LINE",
"85 243 LINE SMOOTH",
"85 95 OFFCURVE",
"191 -12 OFFCURVE",
"350 -12 CURVE SMOOTH"
);
}
);
width = 700;
},
{
anchors = (
{
name = bottom;
position = "{362, 0}";
},
{
name = ogonek;
position = "{652, 10}";
},
{
name = top;
position = "{362, 745}";
}
);
layerId = "9398AC28-6BE1-4A79-9C94-3CBC2F226CE7";
paths = (
{
closed = 1;
nodes = (
"538 -12 OFFCURVE",
"667 109 OFFCURVE",
"667 273 CURVE SMOOTH",
"667 642 LINE",
"674 642 LINE SMOOTH",
"764 642 OFFCURVE",
"817 685 OFFCURVE",
"817 781 CURVE SMOOTH",
"817 817 OFFCURVE",
"807 842 OFFCURVE",
"794 870 CURVE",
"668 870 LINE",
"678 845 OFFCURVE",
"688 815 OFFCURVE",
"688 794 CURVE SMOOTH",
"688 750 OFFCURVE",
"663 745 OFFCURVE",
"648 745 CURVE SMOOTH",
"512 745 LINE",
"512 283 LINE SMOOTH",
"512 194 OFFCURVE",
"449 128 OFFCURVE",
"362 128 CURVE SMOOTH",
"275 128 OFFCURVE",
"212 194 OFFCURVE",
"212 283 CURVE SMOOTH",
"212 745 LINE",
"57 745 LINE",
"57 273 LINE SMOOTH",
"57 109 OFFCURVE",
"186 -12 OFFCURVE",
"362 -12 CURVE SMOOTH"
);
}
);
width = 724;
}
);
leftKerningGroup = U;
leftMetricsKey = "=U";
rightKerningGroup = U;
unicode = 01AF;
},
{
glyphname = Uhorn.ss01;
lastChange = "2021-11-10 09:14:02 +0000";
layers = (
{
anchors = (
{
name = bottom;
position = "{353, 0}";
},
{
name = top;
position = "{353, 745}";
}
);
layerId = "30C2FD74-1A74-41AC-9C29-B288AE1DBDD7";
paths = (
{
closed = 1;
nodes = (
"618 0 LINE",
"618 671 LINE",
"622 671 LINE SMOOTH",
"701 671 OFFCURVE",
"752 707 OFFCURVE",
"752 789 CURVE SMOOTH",
"752 824 OFFCURVE",
"741 851 OFFCURVE",
"727 877 CURVE",
"635 877 LINE",
"648 850 OFFCURVE",
"658 825 OFFCURVE",
"658 797 CURVE SMOOTH",
"658 752 OFFCURVE",
"631 745 OFFCURVE",
"608 745 CURVE SMOOTH",
"538 745 LINE",
"538 75 LINE",
"168 75 LINE",
"168 745 LINE",
"88 745 LINE",
"88 0 LINE"
);
}
);
width = 700;
},
{
anchors = (
{
name = bottom;
position = "{371, 0}";
},
{
name = top;
position = "{371, 745}";
}
);
layerId = "9398AC28-6BE1-4A79-9C94-3CBC2F226CE7";
paths = (
{
closed = 1;
nodes = (
"676 0 LINE",
"676 642 LINE",
"683 642 LINE SMOOTH",
"767 642 OFFCURVE",
"826 685 OFFCURVE",
"826 781 CURVE SMOOTH",
"826 817 OFFCURVE",
"816 842 OFFCURVE",
"803 870 CURVE",
"677 870 LINE",
"687 845 OFFCURVE",
"697 815 OFFCURVE",
"697 794 CURVE SMOOTH",
"697 750 OFFCURVE",
"672 745 OFFCURVE",
"657 745 CURVE SMOOTH",
"521 745 LINE",
"521 135 LINE",
"221 135 LINE",
"221 745 LINE",
"66 745 LINE",
"66 0 LINE"
);
}
);
width = 733;
},
{
anchors = (
{
name = bottom;
position = "{349, 0}";
},
{
name = top;
position = "{349, 745}";
}
);
layerId = "C1DB0BE6-5704-4A8C-8C00-D80E72C16D98";
paths = (
{
closed = 1;
nodes = (
"599 0 LINE",
"599 704 LINE",
"605 704 LINE SMOOTH",
"661 704 OFFCURVE",
"691 735 OFFCURVE",
"691 794 CURVE SMOOTH",
"691 823 OFFCURVE",
"681 852 OFFCURVE",
"670 881 CURVE",
"625 881 LINE",
"635 854 OFFCURVE",
"645 828 OFFCURVE",
"645 800 CURVE SMOOTH",
"645 761 OFFCURVE",
"624 745 OFFCURVE",
"592 745 CURVE SMOOTH",
"549 745 LINE",
"549 45 LINE",
"149 45 LINE",
"149 745 LINE",
"99 745 LINE",
"99 0 LINE"
);
}
);
width = 694;
}
);
leftKerningGroup = H;
leftMetricsKey = "=H";
rightKerningGroup = H;
rightMetricsKey = "=Uhorn";
},
{
glyphname = V;
lastChange = "2021-11-11 12:15:48 +0000";
layers = (
{
anchors = (
{
name = bottom;
position = "{326, 0}";
},
{
name = top;
position = "{326, 745}";
}
);
layerId = "30C2FD74-1A74-41AC-9C29-B288AE1DBDD7";
paths = (
{
closed = 1;
nodes = (
"368 0 LINE",
"641 745 LINE",
"557 745 LINE",
"318 71 LINE",
"334 71 LINE",
"94 745 LINE",
"11 745 LINE",
"284 0 LINE"
);
}
);
width = 652;
},
{
anchors = (
{
name = bottom;
position = "{356, 0}";
},
{
name = top;
position = "{356, 745}";
}
);
layerId = "9398AC28-6BE1-4A79-9C94-3CBC2F226CE7";
paths = (
{
closed = 1;
nodes = (
"446 0 LINE",
"701 745 LINE",
"531 745 LINE",
"339 147 LINE",
"373 147 LINE",
"181 745 LINE",
"11 745 LINE",
"266 0 LINE"
);
}
);
width = 712;
},
{
anchors = (
{
name = bottom;
position = "{327, 0}";
},
{
name = top;
position = "{327, 745}";
}
);
layerId = "C1DB0BE6-5704-4A8C-8C00-D80E72C16D98";
paths = (
{
closed = 1;
nodes = (
"351 0 LINE",
"632 745 LINE",
"577 745 LINE",
"317 46 LINE",
"338 46 LINE",
"77 745 LINE",
"22 745 LINE",
"303 0 LINE"
);
}
);
width = 654;
}
);
unicode = 0056;
},
{
glyphname = W;
lastChange = "2021-11-10 04:04:52 +0000";
layers = (
{
anchors = (
{
name = bottom;
position = "{492, 0}";
},
{
name = top;
position = "{492, 745}";
}
);
layerId = "30C2FD74-1A74-41AC-9C29-B288AE1DBDD7";
paths = (
{
closed = 1;
nodes = (
"310 0 LINE",
"501 670 LINE",
"483 670 LINE",
"674 0 LINE",
"759 0 LINE",
"973 745 LINE",
"892 745 LINE",
"706 78 LINE",
"724 78 LINE",
"535 745 LINE",
"450 745 LINE",
"260 78 LINE",
"277 78 LINE",
"92 745 LINE",
"11 745 LINE",
"225 0 LINE"
);
}
);
width = 984;
},
{
anchors = (
{
name = bottom;
position = "{516, 0}";
},
{
name = top;
position = "{516, 745}";
}
);
layerId = "9398AC28-6BE1-4A79-9C94-3CBC2F226CE7";
paths = (
{
closed = 1;
nodes = (
"386 0 LINE",
"542 600 LINE",
"490 600 LINE",
"646 0 LINE",
"826 0 LINE",
"1021 745 LINE",
"853 745 LINE",
"706 121 LINE",
"751 121 LINE",
"596 745 LINE",
"436 745 LINE",
"281 121 LINE",
"326 121 LINE",
"179 745 LINE",
"11 745 LINE",
"206 0 LINE"
);
}
);
width = 1032;
},
{
anchors = (
{
name = bottom;
position = "{494, 0}";
},
{
name = top;
position = "{494, 745}";
}
);
layerId = "C1DB0BE6-5704-4A8C-8C00-D80E72C16D98";
paths = (
{
closed = 1;
nodes = (
"293 0 LINE",
"508 706 LINE",
"480 706 LINE",
"695 0 LINE",
"743 0 LINE",
"966 745 LINE",
"912 745 LINE",
"706 44 LINE",
"732 45 LINE",
"518 745 LINE",
"470 745 LINE",
"256 45 LINE",
"282 44 LINE",
"76 745 LINE",
"22 745 LINE",
"245 0 LINE"
);
}
);
width = 988;
}
);
leftKerningGroup = W;
rightKerningGroup = W;
unicode = 0057;
},
{
glyphname = X;
lastChange = "2021-11-10 04:04:52 +0000";
layers = (
{
anchors = (
{
name = bottom;
position = "{299, 0}";
},
{
name = top;
position = "{299, 745}";
}
);
layerId = "30C2FD74-1A74-41AC-9C29-B288AE1DBDD7";
paths = (
{
closed = 1;
nodes = (
"99 0 LINE",
"312 332 LINE",
"285 332 LINE",
"496 0 LINE",
"586 0 LINE",
"343 380 LINE",
"577 745 LINE",
"487 745 LINE",
"285 427 LINE",
"312 427 LINE",
"109 745 LINE",
"19 745 LINE",
"253 380 LINE",
"11 0 LINE"
);
}
);
width = 597;
},
{
anchors = (
{
name = bottom;
position = "{341, 0}";
},
{
name = top;
position = "{341, 745}";
}
);
layerId = "9398AC28-6BE1-4A79-9C94-3CBC2F226CE7";
paths = (
{
closed = 1;
nodes = (
"189 0 LINE",
"385 298 LINE",
"298 299 LINE",
"493 0 LINE",
"671 0 LINE",
"428 373 LINE",
"671 745 LINE",
"493 745 LINE",
"298 447 LINE",
"385 447 LINE",
"189 745 LINE",
"11 745 LINE",
"255 373 LINE",
"11 0 LINE"
);
}
);
width = 682;
},
{
anchors = (
{
name = bottom;
position = "{295, 0}";
},
{
name = top;
position = "{295, 745}";
}
);
layerId = "C1DB0BE6-5704-4A8C-8C00-D80E72C16D98";
paths = (
{
closed = 1;
nodes = (
"84 0 LINE",
"298 343 LINE",
"290 343 LINE",
"505 0 LINE",
"567 0 LINE",
"325 382 LINE",
"555 745 LINE",
"494 745 LINE",
"291 421 LINE",
"298 421 LINE",
"94 745 LINE",
"32 745 LINE",
"262 382 LINE",
"22 0 LINE"
);
}
);
width = 589;
}
);
unicode = 0058;
},
{
glyphname = Y;
lastChange = "2021-11-10 04:04:52 +0000";
layers = (
{
anchors = (
{
name = bottom;
position = "{312, 0}";
},
{
name = top;
position = "{312, 745}";
}
);
layerId = "30C2FD74-1A74-41AC-9C29-B288AE1DBDD7";
paths = (
{
closed = 1;
nodes = (
"352 0 LINE",
"352 346 LINE",
"612 745 LINE",
"523 745 LINE",
"296 398 LINE",
"328 398 LINE",
"100 745 LINE",
"11 745 LINE",
"272 346 LINE",
"272 0 LINE"
);
}
);
width = 623;
},
{
anchors = (
{
name = bottom;
position = "{336, 0}";
},
{
name = top;
position = "{336, 745}";
}
);
layerId = "9398AC28-6BE1-4A79-9C94-3CBC2F226CE7";
paths = (
{
closed = 1;
nodes = (
"414 0 LINE",
"414 326 LINE",
"661 745 LINE",
"484 745 LINE",
"305 429 LINE",
"368 429 LINE",
"188 745 LINE",
"11 745 LINE",
"259 325 LINE",
"259 0 LINE"
);
}
);
width = 672;
},
{
anchors = (
{
name = bottom;
position = "{312, 0}";
},
{
name = top;
position = "{312, 745}";
}
);
layerId = "C1DB0BE6-5704-4A8C-8C00-D80E72C16D98";
paths = (
{
closed = 1;
nodes = (
"337 0 LINE",
"337 333 LINE",
"602 745 LINE",
"545 745 LINE",
"300 369 LINE",
"326 369 LINE",
"79 745 LINE",
"22 745 LINE",
"287 333 LINE",
"287 0 LINE"
);
}
);
width = 624;
}
);
leftKerningGroup = Y;
rightKerningGroup = Y;
unicode = 0059;
},
{
glyphname = Z;
lastChange = "2021-11-10 04:04:52 +0000";
layers = (
{
anchors = (
{
name = bottom;
position = "{292, 0}";
},
{
name = center;
position = "{292, 373}";
},
{
name = top;
position = "{292, 745}";
}
);
layerId = "30C2FD74-1A74-41AC-9C29-B288AE1DBDD7";
paths = (
{
closed = 1;
nodes = (
"562 0 LINE",
"562 75 LINE",
"128 75 LINE",
"553 691 LINE",
"553 745 LINE",
"47 745 LINE",
"47 670 LINE",
"448 670 LINE",
"22 54 LINE",
"22 0 LINE"
);
}
);
width = 584;
},
{
anchors = (
{
name = bottom;
position = "{284, 0}";
},
{
name = center;
position = "{284, 373}";
},
{
name = top;
position = "{284, 745}";
}
);
layerId = "9398AC28-6BE1-4A79-9C94-3CBC2F226CE7";
paths = (
{
closed = 1;
nodes = (
"556 0 LINE",
"556 135 LINE",
"208 135 LINE",
"546 620 LINE",
"546 745 LINE",
"31 745 LINE",
"31 610 LINE",
"350 610 LINE",
"11 125 LINE",
"11 0 LINE"
);
}
);
width = 567;
},
{
anchors = (
{
name = bottom;
position = "{303, 0}";
},
{
name = center;
position = "{303, 373}";
},
{
name = top;
position = "{303, 745}";
}
);
layerId = "C1DB0BE6-5704-4A8C-8C00-D80E72C16D98";
paths = (
{
closed = 1;
nodes = (
"573 0 LINE",
"573 45 LINE",
"102 45 LINE",
"563 715 LINE",
"563 745 LINE",
"60 745 LINE",
"60 700 LINE",
"495 700 LINE",
"33 30 LINE",
"33 0 LINE"
);
}
);
width = 606;
}
);
leftKerningGroup = Z;
rightKerningGroup = Z;
unicode = 005A;
},
{
glyphname = a;
lastChange = "2021-11-11 10:58:46 +0000";
layers = (
{
anchors = (
{
name = bottom;
position = "{286, 0}";
},
{
name = ogonek;
position = "{458, 0}";
},
{
name = top;
position = "{294, 536}";
}
);
layerId = "30C2FD74-1A74-41AC-9C29-B288AE1DBDD7";
paths = (
{
closed = 1;
nodes = (
"325 -12 OFFCURVE",
"402 35 OFFCURVE",
"431 96 CURVE",
"420 107 LINE",
"420 0 LINE",
"495 0 LINE",
"495 368 LINE SMOOTH",
"495 474 OFFCURVE",
"412 548 OFFCURVE",
"294 548 CURVE SMOOTH",
"204 548 OFFCURVE",
"115 493 OFFCURVE",
"85 425 CURVE",
"153 388 LINE",
"177 440 OFFCURVE",
"228 476 OFFCURVE",
"294 476 CURVE SMOOTH",
"368 476 OFFCURVE",
"420 432 OFFCURVE",
"420 368 CURVE SMOOTH",
"420 232 LINE SMOOTH",
"420 133 OFFCURVE",
"346 56 OFFCURVE",
"237 56 CURVE SMOOTH",
"177 56 OFFCURVE",
"135 94 OFFCURVE",
"135 142 CURVE SMOOTH",
"135 191 OFFCURVE",
"166 230 OFFCURVE",
"244 243 CURVE SMOOTH",
"436 275 LINE",
"436 343 LINE",
"226 308 LINE SMOOTH",
"107 288 OFFCURVE",
"55 222 OFFCURVE",
"55 139 CURVE SMOOTH",
"55 51 OFFCURVE",
"130 -12 OFFCURVE",
"232 -12 CURVE SMOOTH"
);
}
);
width = 572;
},
{
anchors = (
{
name = bottom;
position = "{292, 0}";
},
{
name = ogonek;
position = "{508, 0}";
},
{
name = top;
position = "{295, 546}";
}
);
layerId = "9398AC28-6BE1-4A79-9C94-3CBC2F226CE7";
paths = (
{
closed = 1;
nodes = (
"312 -12 OFFCURVE",
"374 21 OFFCURVE",
"422 94 CURVE",
"388 88 LINE",
"388 0 LINE",
"528 0 LINE",
"528 360 LINE SMOOTH",
"528 477 OFFCURVE",
"432 558 OFFCURVE",
"294 558 CURVE SMOOTH",
"178 558 OFFCURVE",
"84 501 OFFCURVE",
"52 410 CURVE",
"172 353 LINE",
"190 401 OFFCURVE",
"233 433 OFFCURVE",
"287 433 CURVE SMOOTH",
"343 433 OFFCURVE",
"378 401 OFFCURVE",
"378 360 CURVE SMOOTH",
"378 218 LINE SMOOTH",
"378 151 OFFCURVE",
"328 98 OFFCURVE",
"254 98 CURVE SMOOTH",
"216 98 OFFCURVE",
"188 117 OFFCURVE",
"188 151 CURVE SMOOTH",
"188 187 OFFCURVE",
"211 205 OFFCURVE",
"254 213 CURVE SMOOTH",
"394 238 LINE",
"394 348 LINE",
"227 321 LINE SMOOTH",
"96 300 OFFCURVE",
"33 238 OFFCURVE",
"33 146 CURVE SMOOTH",
"33 47 OFFCURVE",
"106 -12 OFFCURVE",
"224 -12 CURVE SMOOTH"
);
}
);
width = 583;
},
{
anchors = (
{
name = bottom;
position = "{287, 0}";
},
{
name = ogonek;
position = "{464, 0}";
},
{
name = top;
position = "{293, 526}";
}
);
layerId = "C1DB0BE6-5704-4A8C-8C00-D80E72C16D98";
paths = (
{
closed = 1;
nodes = (
"339 -12 OFFCURVE",
"418 49 OFFCURVE",
"445 115 CURVE",
"441 115 LINE",
"441 0 LINE",
"486 0 LINE",
"486 365 LINE SMOOTH",
"486 466 OFFCURVE",
"406 538 OFFCURVE",
"293 538 CURVE SMOOTH",
"199 538 OFFCURVE",
"122 484 OFFCURVE",
"92 425 CURVE",
"132 404 LINE",
"164 459 OFFCURVE",
"225 495 OFFCURVE",
"293 495 CURVE SMOOTH",
"382 495 OFFCURVE",
"441 444 OFFCURVE",
"441 365 CURVE SMOOTH",
"441 238 LINE SMOOTH",
"441 127 OFFCURVE",
"362 30 OFFCURVE",
"241 30 CURVE SMOOTH",
"168 30 OFFCURVE",
"112 71 OFFCURVE",
"112 138 CURVE SMOOTH",
"112 194 OFFCURVE",
"148 242 OFFCURVE",
"252 259 CURVE SMOOTH",
"457 293 LINE",
"457 336 LINE",
"237 299 LINE SMOOTH",
"110 278 OFFCURVE",
"66 208 OFFCURVE",
"66 136 CURVE SMOOTH",
"66 47 OFFCURVE",
"141 -12 OFFCURVE",
"237 -12 CURVE SMOOTH"
);
}
);
width = 574;
}
);
leftKerningGroup = a;
rightKerningGroup = a;
unicode = 0061;
},
{
glyphname = a.ss01;
lastChange = "2021-11-10 08:08:54 +0000";
layers = (
{
anchors = (
{
name = bottom;
position = "{286, 0}";
},
{
name = ogonek;
position = "{458, 0}";
},
{
name = top;
position = "{286, 536}";
}
);
layerId = "30C2FD74-1A74-41AC-9C29-B288AE1DBDD7";
paths = (
{
closed = 1;
nodes = (
"325 -12 OFFCURVE",
"402 35 OFFCURVE",
"431 96 CURVE",
"420 107 LINE",
"420 0 LINE",
"495 0 LINE",
"495 536 LINE",
"105 536 LINE",
"105 461 LINE",
"420 461 LINE",
"420 232 LINE SMOOTH",
"420 133 OFFCURVE",
"346 56 OFFCURVE",
"237 56 CURVE SMOOTH",
"177 56 OFFCURVE",
"135 94 OFFCURVE",
"135 142 CURVE SMOOTH",
"135 191 OFFCURVE",
"166 230 OFFCURVE",
"244 243 CURVE SMOOTH",
"436 275 LINE",
"436 343 LINE",
"226 308 LINE SMOOTH",
"107 288 OFFCURVE",
"55 222 OFFCURVE",
"55 139 CURVE SMOOTH",
"55 51 OFFCURVE",
"130 -12 OFFCURVE",
"232 -12 CURVE SMOOTH"
);
}
);
width = 572;
},
{
anchors = (
{
name = bottom;
position = "{292, 0}";
},
{
name = ogonek;
position = "{508, 0}";
},
{
name = top;
position = "{292, 546}";
}
);
layerId = "9398AC28-6BE1-4A79-9C94-3CBC2F226CE7";
paths = (
{
closed = 1;
nodes = (
"312 -12 OFFCURVE",
"374 21 OFFCURVE",
"422 94 CURVE",
"388 88 LINE",
"388 0 LINE",
"528 0 LINE",
"528 546 LINE",
"93 546 LINE",
"93 416 LINE",
"378 416 LINE",
"378 218 LINE SMOOTH",
"378 151 OFFCURVE",
"328 98 OFFCURVE",
"254 98 CURVE SMOOTH",
"216 98 OFFCURVE",
"188 117 OFFCURVE",
"188 151 CURVE SMOOTH",
"188 187 OFFCURVE",
"211 205 OFFCURVE",
"254 213 CURVE SMOOTH",
"394 238 LINE",
"394 348 LINE",
"227 321 LINE SMOOTH",
"96 300 OFFCURVE",
"33 238 OFFCURVE",
"33 146 CURVE SMOOTH",
"33 47 OFFCURVE",
"106 -12 OFFCURVE",
"224 -12 CURVE SMOOTH"
);
}
);
width = 583;
},
{
anchors = (
{
name = bottom;
position = "{287, 0}";
},
{
name = ogonek;
position = "{463, 0}";
},
{
name = top;
position = "{287, 526}";
}
);
layerId = "C1DB0BE6-5704-4A8C-8C00-D80E72C16D98";
paths = (
{
closed = 1;
nodes = (
"339 -12 OFFCURVE",
"418 49 OFFCURVE",
"445 115 CURVE",
"440 115 LINE",
"440 0 LINE",
"486 0 LINE",
"486 526 LINE",
"112 526 LINE",
"112 486 LINE",
"441 486 LINE",
"441 238 LINE SMOOTH",
"441 127 OFFCURVE",
"362 30 OFFCURVE",
"241 30 CURVE SMOOTH",
"168 30 OFFCURVE",
"112 71 OFFCURVE",
"112 138 CURVE SMOOTH",
"112 194 OFFCURVE",
"148 242 OFFCURVE",
"252 259 CURVE SMOOTH",
"457 293 LINE",
"457 336 LINE",
"237 299 LINE SMOOTH",
"110 278 OFFCURVE",
"66 208 OFFCURVE",
"66 136 CURVE SMOOTH",
"66 47 OFFCURVE",
"141 -12 OFFCURVE",
"237 -12 CURVE SMOOTH"
);
}
);
width = 574;
}
);
leftKerningGroup = a;
leftMetricsKey = "=a";
rightKerningGroup = a;
rightMetricsKey = "=|n";
},
{
glyphname = a.ss02;
lastChange = "2021-11-10 08:09:23 +0000";
layers = (
{
anchors = (
{
name = bottom;
position = "{286, 0}";
},
{
name = ogonek;
position = "{458, 0}";
},
{
name = top;
position = "{286, 536}";
}
);
layerId = "30C2FD74-1A74-41AC-9C29-B288AE1DBDD7";
paths = (
{
closed = 1;
nodes = (
"325 -12 OFFCURVE",
"402 35 OFFCURVE",
"431 96 CURVE",
"420 107 LINE",
"420 0 LINE",
"555 0 LINE",
"555 70 LINE",
"495 70 LINE",
"495 368 LINE SMOOTH",
"495 474 OFFCURVE",
"412 548 OFFCURVE",
"294 548 CURVE SMOOTH",
"204 548 OFFCURVE",
"115 493 OFFCURVE",
"85 425 CURVE",
"153 388 LINE",
"177 440 OFFCURVE",
"228 476 OFFCURVE",
"294 476 CURVE SMOOTH",
"368 476 OFFCURVE",
"420 432 OFFCURVE",
"420 368 CURVE SMOOTH",
"420 232 LINE SMOOTH",
"420 133 OFFCURVE",
"346 56 OFFCURVE",
"237 56 CURVE SMOOTH",
"177 56 OFFCURVE",
"135 94 OFFCURVE",
"135 142 CURVE SMOOTH",
"135 191 OFFCURVE",
"166 230 OFFCURVE",
"244 243 CURVE SMOOTH",
"436 275 LINE",
"436 343 LINE",
"226 308 LINE SMOOTH",
"107 288 OFFCURVE",
"55 222 OFFCURVE",
"55 139 CURVE SMOOTH",
"55 51 OFFCURVE",
"130 -12 OFFCURVE",
"232 -12 CURVE SMOOTH"
);
}
);
width = 594;
},
{
anchors = (
{
name = bottom;
position = "{292, 0}";
},
{
name = ogonek;
position = "{508, 0}";
},
{
name = top;
position = "{292, 546}";
}
);
layerId = "9398AC28-6BE1-4A79-9C94-3CBC2F226CE7";
paths = (
{
closed = 1;
nodes = (
"312 -12 OFFCURVE",
"374 21 OFFCURVE",
"422 94 CURVE",
"388 88 LINE",
"388 0 LINE",
"588 0 LINE",
"588 120 LINE",
"528 120 LINE",
"528 360 LINE SMOOTH",
"528 477 OFFCURVE",
"432 558 OFFCURVE",
"294 558 CURVE SMOOTH",
"178 558 OFFCURVE",
"84 501 OFFCURVE",
"52 410 CURVE",
"172 353 LINE",
"190 401 OFFCURVE",
"233 433 OFFCURVE",
"287 433 CURVE SMOOTH",
"343 433 OFFCURVE",
"378 401 OFFCURVE",
"378 360 CURVE SMOOTH",
"378 218 LINE SMOOTH",
"378 151 OFFCURVE",
"328 98 OFFCURVE",
"254 98 CURVE SMOOTH",
"216 98 OFFCURVE",
"188 117 OFFCURVE",
"188 151 CURVE SMOOTH",
"188 187 OFFCURVE",
"211 205 OFFCURVE",
"254 213 CURVE SMOOTH",
"394 238 LINE",
"394 348 LINE",
"227 321 LINE SMOOTH",
"96 300 OFFCURVE",
"33 238 OFFCURVE",
"33 146 CURVE SMOOTH",
"33 47 OFFCURVE",
"106 -12 OFFCURVE",
"224 -12 CURVE SMOOTH"
);
}
);
width = 616;
},
{
anchors = (
{
name = bottom;
position = "{287, 0}";
},
{
name = ogonek;
position = "{463, 0}";
},
{
name = top;
position = "{287, 526}";
}
);
layerId = "C1DB0BE6-5704-4A8C-8C00-D80E72C16D98";
paths = (
{
closed = 1;
nodes = (
"339 -12 OFFCURVE",
"418 49 OFFCURVE",
"445 115 CURVE",
"440 115 LINE",
"440 0 LINE",
"546 0 LINE",
"546 40 LINE",
"486 40 LINE",
"486 365 LINE SMOOTH",
"486 466 OFFCURVE",
"406 538 OFFCURVE",
"293 538 CURVE SMOOTH",
"199 538 OFFCURVE",
"122 484 OFFCURVE",
"92 425 CURVE",
"132 404 LINE",
"164 459 OFFCURVE",
"225 495 OFFCURVE",
"293 495 CURVE SMOOTH",
"382 495 OFFCURVE",
"440 444 OFFCURVE",
"440 365 CURVE SMOOTH",
"440 238 LINE SMOOTH",
"440 127 OFFCURVE",
"362 30 OFFCURVE",
"241 30 CURVE SMOOTH",
"168 30 OFFCURVE",
"112 71 OFFCURVE",
"112 138 CURVE SMOOTH",
"112 194 OFFCURVE",
"148 242 OFFCURVE",
"252 259 CURVE SMOOTH",
"457 293 LINE",
"457 336 LINE",
"237 299 LINE SMOOTH",
"110 278 OFFCURVE",
"66 208 OFFCURVE",
"66 136 CURVE SMOOTH",
"66 47 OFFCURVE",
"141 -12 OFFCURVE",
"237 -12 CURVE SMOOTH"
);
}
);
width = 590;
}
);
leftKerningGroup = a;
leftMetricsKey = "=a";
rightKerningGroup = a;
rightMetricsKey = "=l/2";
},
{
glyphname = a.ss03;
lastChange = "2021-11-10 08:09:42 +0000";
layers = (
{
anchors = (
{
name = bottom;
position = "{286, 0}";
},
{
name = ogonek;
position = "{458, 0}";
},
{
name = top;
position = "{286, 536}";
}
);
layerId = "30C2FD74-1A74-41AC-9C29-B288AE1DBDD7";
paths = (
{
closed = 1;
nodes = (
"325 -12 OFFCURVE",
"402 35 OFFCURVE",
"431 96 CURVE",
"420 107 LINE",
"420 0 LINE",
"495 0 LINE",
"495 327 LINE SMOOTH",
"495 458 OFFCURVE",
"416 536 OFFCURVE",
"283 536 CURVE SMOOTH",
"105 536 LINE",
"105 461 LINE",
"283 461 LINE SMOOTH",
"369 461 OFFCURVE",
"420 411 OFFCURVE",
"420 327 CURVE SMOOTH",
"420 232 LINE SMOOTH",
"420 133 OFFCURVE",
"346 56 OFFCURVE",
"237 56 CURVE SMOOTH",
"177 56 OFFCURVE",
"135 94 OFFCURVE",
"135 142 CURVE SMOOTH",
"135 191 OFFCURVE",
"166 230 OFFCURVE",
"244 243 CURVE SMOOTH",
"436 275 LINE",
"436 343 LINE",
"226 308 LINE SMOOTH",
"107 288 OFFCURVE",
"55 222 OFFCURVE",
"55 139 CURVE SMOOTH",
"55 51 OFFCURVE",
"130 -12 OFFCURVE",
"232 -12 CURVE SMOOTH"
);
}
);
width = 572;
},
{
anchors = (
{
name = bottom;
position = "{292, 0}";
},
{
name = ogonek;
position = "{508, 0}";
},
{
name = top;
position = "{292, 546}";
}
);
layerId = "9398AC28-6BE1-4A79-9C94-3CBC2F226CE7";
paths = (
{
closed = 1;
nodes = (
"312 -12 OFFCURVE",
"374 21 OFFCURVE",
"422 94 CURVE",
"388 88 LINE",
"388 0 LINE",
"528 0 LINE",
"528 332 LINE SMOOTH",
"528 464 OFFCURVE",
"436 546 OFFCURVE",
"287 546 CURVE SMOOTH",
"93 546 LINE",
"93 416 LINE",
"277 416 LINE SMOOTH",
"342 416 OFFCURVE",
"378 380 OFFCURVE",
"378 324 CURVE SMOOTH",
"378 218 LINE SMOOTH",
"378 151 OFFCURVE",
"328 98 OFFCURVE",
"254 98 CURVE SMOOTH",
"216 98 OFFCURVE",
"188 117 OFFCURVE",
"188 151 CURVE SMOOTH",
"188 187 OFFCURVE",
"211 205 OFFCURVE",
"254 213 CURVE SMOOTH",
"394 238 LINE",
"394 348 LINE",
"227 321 LINE SMOOTH",
"96 300 OFFCURVE",
"33 238 OFFCURVE",
"33 146 CURVE SMOOTH",
"33 47 OFFCURVE",
"106 -12 OFFCURVE",
"224 -12 CURVE SMOOTH"
);
}
);
width = 583;
},
{
anchors = (
{
name = bottom;
position = "{287, 0}";
},
{
name = ogonek;
position = "{464, 0}";
},
{
name = top;
position = "{287, 526}";
}
);
layerId = "C1DB0BE6-5704-4A8C-8C00-D80E72C16D98";
paths = (
{
closed = 1;
nodes = (
"339 -12 OFFCURVE",
"418 49 OFFCURVE",
"445 115 CURVE",
"441 115 LINE",
"441 0 LINE",
"486 0 LINE",
"486 337 LINE SMOOTH",
"486 450 OFFCURVE",
"410 526 OFFCURVE",
"297 526 CURVE SMOOTH",
"112 526 LINE",
"112 486 LINE",
"297 486 LINE SMOOTH",
"383 486 OFFCURVE",
"441 426 OFFCURVE",
"441 337 CURVE SMOOTH",
"441 238 LINE SMOOTH",
"441 127 OFFCURVE",
"362 30 OFFCURVE",
"241 30 CURVE SMOOTH",
"168 30 OFFCURVE",
"112 71 OFFCURVE",
"112 138 CURVE SMOOTH",
"112 194 OFFCURVE",
"148 242 OFFCURVE",
"252 259 CURVE SMOOTH",
"457 293 LINE",
"457 336 LINE",
"237 299 LINE SMOOTH",
"110 278 OFFCURVE",
"66 208 OFFCURVE",
"66 136 CURVE SMOOTH",
"66 47 OFFCURVE",
"141 -12 OFFCURVE",
"237 -12 CURVE SMOOTH"
);
}
);
width = 574;
}
);
leftKerningGroup = a;
rightKerningGroup = a;
},
{
glyphname = ae;
lastChange = "2021-11-10 04:04:52 +0000";
layers = (
{
anchors = (
{
name = bottom;
position = "{492, 0}";
},
{
name = top;
position = "{492, 536}";
}
);
layerId = "30C2FD74-1A74-41AC-9C29-B288AE1DBDD7";
paths = (
{
closed = 1;
nodes = (
"324 -12 OFFCURVE",
"400 34 OFFCURVE",
"430 95 CURVE",
"420 113 LINE",
"420 0 LINE",
"495 0 LINE",
"495 109 LINE",
"480 95 LINE",
"528 27 OFFCURVE",
"602 -12 OFFCURVE",
"689 -12 CURVE SMOOTH",
"798 -12 OFFCURVE",
"884 49 OFFCURVE",
"917 122 CURVE",
"853 156 LINE",
"819 100 OFFCURVE",
"767 58 OFFCURVE",
"689 58 CURVE SMOOTH",
"593 58 OFFCURVE",
"505 130 OFFCURVE",
"502 245 CURVE",
"924 245 LINE",
"927 262 OFFCURVE",
"928 280 OFFCURVE",
"928 293 CURVE SMOOTH",
"928 421 OFFCURVE",
"835 548 OFFCURVE",
"681 548 CURVE SMOOTH",
"588 548 OFFCURVE",
"509 501 OFFCURVE",
"465 426 CURVE",
"487 425 LINE",
"461 500 OFFCURVE",
"389 548 OFFCURVE",
"294 548 CURVE SMOOTH",
"204 548 OFFCURVE",
"115 493 OFFCURVE",
"85 425 CURVE",
"153 388 LINE",
"177 440 OFFCURVE",
"228 476 OFFCURVE",
"294 476 CURVE SMOOTH",
"368 476 OFFCURVE",
"420 432 OFFCURVE",
"420 368 CURVE SMOOTH",
"420 340 LINE",
"226 308 LINE SMOOTH",
"107 288 OFFCURVE",
"55 222 OFFCURVE",
"55 139 CURVE SMOOTH",
"55 51 OFFCURVE",
"130 -12 OFFCURVE",
"232 -12 CURVE SMOOTH"
);
},
{
closed = 1;
nodes = (
"177 56 OFFCURVE",
"135 94 OFFCURVE",
"135 142 CURVE SMOOTH",
"135 191 OFFCURVE",
"166 230 OFFCURVE",
"244 243 CURVE SMOOTH",
"420 272 LINE",
"420 232 LINE SMOOTH",
"420 133 OFFCURVE",
"346 56 OFFCURVE",
"237 56 CURVE SMOOTH"
);
},
{
closed = 1;
nodes = (
"515 415 OFFCURVE",
"594 478 OFFCURVE",
"681 478 CURVE SMOOTH",
"771 478 OFFCURVE",
"847 410 OFFCURVE",
"847 315 CURVE",
"504 315 LINE"
);
}
);
width = 983;
},
{
anchors = (
{
name = bottom;
position = "{481, 0}";
},
{
name = top;
position = "{481, 546}";
}
);
layerId = "9398AC28-6BE1-4A79-9C94-3CBC2F226CE7";
paths = (
{
closed = 1;
nodes = (
"310 -12 OFFCURVE",
"370 19 OFFCURVE",
"419 87 CURVE",
"388 118 LINE",
"388 0 LINE",
"511 0 LINE",
"511 118 LINE",
"478 87 LINE",
"527 19 OFFCURVE",
"600 -12 OFFCURVE",
"688 -12 CURVE SMOOTH",
"780 -12 OFFCURVE",
"870 41 OFFCURVE",
"903 121 CURVE",
"783 178 LINE",
"762 141 OFFCURVE",
"723 118 OFFCURVE",
"670 118 CURVE SMOOTH",
"596 118 OFFCURVE",
"548 162 OFFCURVE",
"539 231 CURVE",
"921 231 LINE",
"926 246 OFFCURVE",
"928 267 OFFCURVE",
"928 289 CURVE SMOOTH",
"928 440 OFFCURVE",
"831 558 OFFCURVE",
"658 558 CURVE SMOOTH",
"571 558 OFFCURVE",
"496 520 OFFCURVE",
"446 460 CURVE",
"500 460 LINE",
"463 520 OFFCURVE",
"388 558 OFFCURVE",
"294 558 CURVE SMOOTH",
"178 558 OFFCURVE",
"84 501 OFFCURVE",
"52 410 CURVE",
"172 353 LINE",
"190 401 OFFCURVE",
"233 433 OFFCURVE",
"287 433 CURVE SMOOTH",
"343 433 OFFCURVE",
"378 401 OFFCURVE",
"378 360 CURVE SMOOTH",
"378 345 LINE",
"227 321 LINE SMOOTH",
"96 300 OFFCURVE",
"33 238 OFFCURVE",
"33 146 CURVE SMOOTH",
"33 47 OFFCURVE",
"106 -12 OFFCURVE",
"224 -12 CURVE SMOOTH"
);
},
{
closed = 1;
nodes = (
"216 98 OFFCURVE",
"188 117 OFFCURVE",
"188 151 CURVE SMOOTH",
"188 187 OFFCURVE",
"211 205 OFFCURVE",
"254 213 CURVE SMOOTH",
"378 235 LINE",
"378 218 LINE SMOOTH",
"378 151 OFFCURVE",
"328 98 OFFCURVE",
"254 98 CURVE SMOOTH"
);
},
{
closed = 1;
nodes = (
"556 404 OFFCURVE",
"599 438 OFFCURVE",
"658 438 CURVE SMOOTH",
"720 438 OFFCURVE",
"763 399 OFFCURVE",
"769 341 CURVE",
"542 341 LINE"
);
}
);
width = 961;
},
{
anchors = (
{
name = bottom;
position = "{501, 0}";
},
{
name = top;
position = "{501, 526}";
}
);
layerId = "C1DB0BE6-5704-4A8C-8C00-D80E72C16D98";
paths = (
{
closed = 1;
nodes = (
"342 -12 OFFCURVE",
"424 53 OFFCURVE",
"448 122 CURVE",
"440 140 LINE",
"440 0 LINE",
"486 0 LINE",
"486 143 LINE",
"474 128 LINE",
"518 43 OFFCURVE",
"604 -12 OFFCURVE",
"706 -12 CURVE SMOOTH",
"800 -12 OFFCURVE",
"882 36 OFFCURVE",
"921 113 CURVE",
"883 133 LINE",
"846 68 OFFCURVE",
"782 30 OFFCURVE",
"706 30 CURVE SMOOTH",
"584 30 OFFCURVE",
"493 123 OFFCURVE",
"486 249 CURVE",
"933 249 LINE",
"935 264 OFFCURVE",
"936 275 OFFCURVE",
"936 288 CURVE SMOOTH",
"936 430 OFFCURVE",
"833 538 OFFCURVE",
"696 538 CURVE SMOOTH",
"594 538 OFFCURVE",
"510 480 OFFCURVE",
"469 390 CURVE",
"485 389 LINE",
"473 478 OFFCURVE",
"397 538 OFFCURVE",
"293 538 CURVE SMOOTH",
"199 538 OFFCURVE",
"122 484 OFFCURVE",
"92 425 CURVE",
"132 404 LINE",
"164 459 OFFCURVE",
"225 495 OFFCURVE",
"293 495 CURVE SMOOTH",
"382 495 OFFCURVE",
"440 444 OFFCURVE",
"440 365 CURVE SMOOTH",
"440 333 LINE",
"237 299 LINE SMOOTH",
"110 278 OFFCURVE",
"66 208 OFFCURVE",
"66 136 CURVE SMOOTH",
"66 47 OFFCURVE",
"141 -12 OFFCURVE",
"237 -12 CURVE SMOOTH"
);
},
{
closed = 1;
nodes = (
"168 30 OFFCURVE",
"112 71 OFFCURVE",
"112 138 CURVE SMOOTH",
"112 194 OFFCURVE",
"148 242 OFFCURVE",
"252 259 CURVE SMOOTH",
"440 290 LINE",
"440 238 LINE SMOOTH",
"440 127 OFFCURVE",
"362 30 OFFCURVE",
"241 30 CURVE SMOOTH"
);
},
{
closed = 1;
nodes = (
"498 407 OFFCURVE",
"586 496 OFFCURVE",
"696 496 CURVE SMOOTH",
"806 496 OFFCURVE",
"890 406 OFFCURVE",
"890 289 CURVE",
"487 289 LINE"
);
}
);
width = 1002;
}
);
leftKerningGroup = a;
leftMetricsKey = "=a";
rightKerningGroup = e;
rightMetricsKey = "=e";
unicode = 00E6;
},
{
glyphname = b;
lastChange = "2021-11-10 09:08:26 +0000";
layers = (
{
anchors = (
{
name = bottom;
position = "{334, 0}";
},
{
name = top;
position = "{344, 745}";
}
);
layerId = "30C2FD74-1A74-41AC-9C29-B288AE1DBDD7";
paths = (
{
closed = 1;
nodes = (
"499 -12 OFFCURVE",
"612 107 OFFCURVE",
"612 268 CURVE SMOOTH",
"612 429 OFFCURVE",
"500 548 OFFCURVE",
"348 548 CURVE SMOOTH",
"256 548 OFFCURVE",
"182 505 OFFCURVE",
"140 437 CURVE",
"152 416 LINE",
"152 757 LINE",
"77 757 LINE",
"77 0 LINE",
"152 0 LINE",
"152 120 LINE",
"140 109 LINE",
"177 32 OFFCURVE",
"256 -12 OFFCURVE",
"348 -12 CURVE SMOOTH"
);
},
{
closed = 1;
nodes = (
"236 63 OFFCURVE",
"152 152 OFFCURVE",
"152 268 CURVE SMOOTH",
"152 384 OFFCURVE",
"236 473 OFFCURVE",
"344 473 CURVE SMOOTH",
"451 473 OFFCURVE",
"532 385 OFFCURVE",
"532 268 CURVE SMOOTH",
"532 151 OFFCURVE",
"452 63 OFFCURVE",
"344 63 CURVE SMOOTH"
);
}
);
width = 667;
},
{
anchors = (
{
name = bottom;
position = "{337, 0}";
},
{
name = top;
position = "{347, 745}";
}
);
layerId = "9398AC28-6BE1-4A79-9C94-3CBC2F226CE7";
paths = (
{
closed = 1;
nodes = (
"521 -12 OFFCURVE",
"640 114 OFFCURVE",
"640 273 CURVE SMOOTH",
"640 433 OFFCURVE",
"518 558 OFFCURVE",
"362 558 CURVE SMOOTH",
"282 558 OFFCURVE",
"218 527 OFFCURVE",
"182 472 CURVE",
"205 442 LINE",
"205 757 LINE",
"55 757 LINE",
"55 0 LINE",
"195 0 LINE",
"195 100 LINE",
"181 69 LINE",
"219 16 OFFCURVE",
"286 -12 OFFCURVE",
"361 -12 CURVE SMOOTH"
);
},
{
closed = 1;
nodes = (
"262 123 OFFCURVE",
"205 184 OFFCURVE",
"205 273 CURVE SMOOTH",
"205 361 OFFCURVE",
"262 423 OFFCURVE",
"343 423 CURVE SMOOTH",
"426 423 OFFCURVE",
"485 360 OFFCURVE",
"485 273 CURVE SMOOTH",
"485 185 OFFCURVE",
"426 123 OFFCURVE",
"343 123 CURVE SMOOTH"
);
}
);
width = 673;
},
{
anchors = (
{
name = bottom;
position = "{337, 0}";
},
{
name = top;
position = "{349, 745}";
}
);
layerId = "C1DB0BE6-5704-4A8C-8C00-D80E72C16D98";
paths = (
{
closed = 1;
nodes = (
"496 -12 OFFCURVE",
"608 107 OFFCURVE",
"608 263 CURVE SMOOTH",
"608 419 OFFCURVE",
"496 538 OFFCURVE",
"349 538 CURVE SMOOTH",
"248 538 OFFCURVE",
"163 481 OFFCURVE",
"125 394 CURVE",
"133 377 LINE",
"133 757 LINE",
"88 757 LINE",
"88 0 LINE",
"133 0 LINE",
"133 149 LINE",
"125 132 LINE",
"163 45 OFFCURVE",
"248 -12 OFFCURVE",
"349 -12 CURVE SMOOTH"
);
},
{
closed = 1;
nodes = (
"228 33 OFFCURVE",
"136 130 OFFCURVE",
"136 263 CURVE SMOOTH",
"136 396 OFFCURVE",
"228 493 OFFCURVE",
"349 493 CURVE SMOOTH",
"471 493 OFFCURVE",
"560 395 OFFCURVE",
"560 263 CURVE SMOOTH",
"560 131 OFFCURVE",
"471 33 OFFCURVE",
"349 33 CURVE SMOOTH"
);
}
);
width = 674;
}
);
leftKerningGroup = h;
rightKerningGroup = o;
unicode = 0062;
},
{
glyphname = c;
lastChange = "2021-11-10 04:04:52 +0000";
layers = (
{
anchors = (
{
name = bottom;
position = "{322, 0}";
},
{
name = top;
position = "{322, 536}";
}
);
layerId = "30C2FD74-1A74-41AC-9C29-B288AE1DBDD7";
paths = (
{
closed = 1;
nodes = (
"421 -12 OFFCURVE",
"510 47 OFFCURVE",
"545 125 CURVE",
"477 162 LINE",
"449 102 OFFCURVE",
"393 63 OFFCURVE",
"322 63 CURVE SMOOTH",
"216 63 OFFCURVE",
"135 151 OFFCURVE",
"135 268 CURVE SMOOTH",
"135 386 OFFCURVE",
"216 473 OFFCURVE",
"322 473 CURVE SMOOTH",
"393 473 OFFCURVE",
"450 433 OFFCURVE",
"477 376 CURVE",
"545 411 LINE",
"510 490 OFFCURVE",
"421 548 OFFCURVE",
"322 548 CURVE SMOOTH",
"164 548 OFFCURVE",
"55 429 OFFCURVE",
"55 269 CURVE SMOOTH",
"55 109 OFFCURVE",
"164 -12 OFFCURVE",
"322 -12 CURVE SMOOTH"
);
}
);
width = 600;
},
{
anchors = (
{
name = bottom;
position = "{323, 0}";
},
{
name = top;
position = "{323, 546}";
}
);
layerId = "9398AC28-6BE1-4A79-9C94-3CBC2F226CE7";
paths = (
{
closed = 1;
nodes = (
"447 -12 OFFCURVE",
"547 58 OFFCURVE",
"578 155 CURVE",
"448 212 LINE",
"429 157 OFFCURVE",
"383 123 OFFCURVE",
"323 123 CURVE SMOOTH",
"244 123 OFFCURVE",
"188 185 OFFCURVE",
"188 273 CURVE SMOOTH",
"188 361 OFFCURVE",
"244 423 OFFCURVE",
"323 423 CURVE SMOOTH",
"382 423 OFFCURVE",
"429 389 OFFCURVE",
"448 334 CURVE",
"578 390 LINE",
"545 491 OFFCURVE",
"445 558 OFFCURVE",
"323 558 CURVE SMOOTH",
"158 558 OFFCURVE",
"33 436 OFFCURVE",
"33 274 CURVE SMOOTH",
"33 111 OFFCURVE",
"159 -12 OFFCURVE",
"323 -12 CURVE SMOOTH"
);
}
);
width = 611;
},
{
anchors = (
{
name = bottom;
position = "{328, 0}";
},
{
name = top;
position = "{328, 526}";
}
);
layerId = "C1DB0BE6-5704-4A8C-8C00-D80E72C16D98";
paths = (
{
closed = 1;
nodes = (
"425 -12 OFFCURVE",
"505 42 OFFCURVE",
"541 113 CURVE",
"503 133 LINE",
"466 67 OFFCURVE",
"404 30 OFFCURVE",
"328 30 CURVE SMOOTH",
"206 30 OFFCURVE",
"111 123 OFFCURVE",
"111 263 CURVE SMOOTH",
"111 403 OFFCURVE",
"206 496 OFFCURVE",
"328 496 CURVE SMOOTH",
"404 496 OFFCURVE",
"466 459 OFFCURVE",
"503 393 CURVE",
"541 414 LINE",
"505 485 OFFCURVE",
"425 538 OFFCURVE",
"328 538 CURVE SMOOTH",
"181 538 OFFCURVE",
"66 420 OFFCURVE",
"66 263 CURVE SMOOTH",
"66 106 OFFCURVE",
"181 -12 OFFCURVE",
"328 -12 CURVE SMOOTH"
);
}
);
width = 607;
},
{
associatedMasterId = "C1DB0BE6-5704-4A8C-8C00-D80E72C16D98";
background = {
anchors = (
{
name = bottom;
position = "{298, 0}";
},
{
name = top;
position = "{272, 526}";
}
);
paths = (
{
closed = 1;
nodes = (
"396 -12 OFFCURVE",
"482 48 OFFCURVE",
"515 121 CURVE",
"451 156 LINE",
"423 97 OFFCURVE",
"369 58 OFFCURVE",
"298 58 CURVE SMOOTH",
"193 58 OFFCURVE",
"114 147 OFFCURVE",
"114 263 CURVE SMOOTH",
"114 381 OFFCURVE",
"193 468 OFFCURVE",
"298 468 CURVE SMOOTH",
"369 468 OFFCURVE",
"423 429 OFFCURVE",
"451 371 CURVE",
"515 405 LINE",
"482 479 OFFCURVE",
"397 538 OFFCURVE",
"298 538 CURVE SMOOTH",
"149 538 OFFCURVE",
"39 422 OFFCURVE",
"39 264 CURVE SMOOTH",
"39 106 OFFCURVE",
"149 -12 OFFCURVE",
"298 -12 CURVE SMOOTH"
);
}
);
};
layerId = "3C2E8BAC-774F-42FA-A4EE-4D2E61E43219";
name = "Nov 23 20, 19:44";
paths = (
{
closed = 1;
nodes = (
"400 -12 OFFCURVE",
"486 41 OFFCURVE",
"523 119 CURVE",
"483 140 LINE",
"450 74 OFFCURVE",
"384 32 OFFCURVE",
"305 32 CURVE SMOOTH",
"182 32 OFFCURVE",
"90 130 OFFCURVE",
"90 263 CURVE SMOOTH",
"90 396 OFFCURVE",
"183 496 OFFCURVE",
"305 496 CURVE SMOOTH",
"382 496 OFFCURVE",
"450 451 OFFCURVE",
"482 386 CURVE",
"523 407 LINE",
"486 485 OFFCURVE",
"401 538 OFFCURVE",
"305 538 CURVE SMOOTH",
"154 538 OFFCURVE",
"45 420 OFFCURVE",
"45 263 CURVE SMOOTH",
"45 108 OFFCURVE",
"155 -12 OFFCURVE",
"305 -12 CURVE SMOOTH"
);
}
);
width = 545;
}
);
leftKerningGroup = o;
rightKerningGroup = c;
unicode = 0063;
},
{
glyphname = d;
lastChange = "2021-11-10 09:08:36 +0000";
layers = (
{
anchors = (
{
name = bottom;
position = "{334, 0}";
},
{
name = center;
position = "{553, 640}";
},
{
name = top;
position = "{323, 745}";
},
{
name = topright;
position = "{667, 536}";
}
);
layerId = "30C2FD74-1A74-41AC-9C29-B288AE1DBDD7";
paths = (
{
closed = 1;
nodes = (
"411 -12 OFFCURVE",
"490 32 OFFCURVE",
"527 109 CURVE",
"515 120 LINE",
"515 0 LINE",
"590 0 LINE",
"590 757 LINE",
"515 757 LINE",
"515 416 LINE",
"527 437 LINE",
"485 505 OFFCURVE",
"411 548 OFFCURVE",
"319 548 CURVE SMOOTH",
"167 548 OFFCURVE",
"55 429 OFFCURVE",
"55 268 CURVE SMOOTH",
"55 107 OFFCURVE",
"168 -12 OFFCURVE",
"319 -12 CURVE SMOOTH"
);
},
{
closed = 1;
nodes = (
"215 63 OFFCURVE",
"135 151 OFFCURVE",
"135 268 CURVE SMOOTH",
"135 385 OFFCURVE",
"216 473 OFFCURVE",
"323 473 CURVE SMOOTH",
"431 473 OFFCURVE",
"515 384 OFFCURVE",
"515 268 CURVE SMOOTH",
"515 152 OFFCURVE",
"431 63 OFFCURVE",
"323 63 CURVE SMOOTH"
);
}
);
width = 667;
},
{
anchors = (
{
name = bottom;
position = "{337, 0}";
},
{
name = center;
position = "{543, 640}";
},
{
name = top;
position = "{337, 784}";
},
{
name = topright;
position = "{673, 546}";
}
);
layerId = "9398AC28-6BE1-4A79-9C94-3CBC2F226CE7";
paths = (
{
closed = 1;
nodes = (
"387 -12 OFFCURVE",
"454 16 OFFCURVE",
"492 69 CURVE",
"478 100 LINE",
"478 0 LINE",
"618 0 LINE",
"618 757 LINE",
"468 757 LINE",
"468 442 LINE",
"491 472 LINE",
"455 527 OFFCURVE",
"391 558 OFFCURVE",
"311 558 CURVE SMOOTH",
"155 558 OFFCURVE",
"33 433 OFFCURVE",
"33 273 CURVE SMOOTH",
"33 114 OFFCURVE",
"152 -12 OFFCURVE",
"312 -12 CURVE SMOOTH"
);
},
{
closed = 1;
nodes = (
"247 123 OFFCURVE",
"188 185 OFFCURVE",
"188 273 CURVE SMOOTH",
"188 360 OFFCURVE",
"247 423 OFFCURVE",
"330 423 CURVE SMOOTH",
"411 423 OFFCURVE",
"468 361 OFFCURVE",
"468 273 CURVE SMOOTH",
"468 184 OFFCURVE",
"411 123 OFFCURVE",
"330 123 CURVE SMOOTH"
);
}
);
width = 673;
},
{
anchors = (
{
name = bottom;
position = "{337, 0}";
},
{
name = center;
position = "{564, 640}";
},
{
name = top;
position = "{326, 745}";
},
{
name = topright;
position = "{674, 526}";
}
);
layerId = "C1DB0BE6-5704-4A8C-8C00-D80E72C16D98";
paths = (
{
closed = 1;
nodes = (
"426 -12 OFFCURVE",
"511 45 OFFCURVE",
"549 132 CURVE",
"541 149 LINE",
"541 0 LINE",
"586 0 LINE",
"586 757 LINE",
"541 757 LINE",
"541 377 LINE",
"549 394 LINE",
"511 481 OFFCURVE",
"426 538 OFFCURVE",
"325 538 CURVE SMOOTH",
"178 538 OFFCURVE",
"66 419 OFFCURVE",
"66 263 CURVE SMOOTH",
"66 107 OFFCURVE",
"178 -12 OFFCURVE",
"325 -12 CURVE SMOOTH"
);
},
{
closed = 1;
nodes = (
"203 33 OFFCURVE",
"114 131 OFFCURVE",
"114 263 CURVE SMOOTH",
"114 395 OFFCURVE",
"203 493 OFFCURVE",
"325 493 CURVE SMOOTH",
"446 493 OFFCURVE",
"538 396 OFFCURVE",
"538 263 CURVE SMOOTH",
"538 130 OFFCURVE",
"446 33 OFFCURVE",
"325 33 CURVE SMOOTH"
);
}
);
width = 674;
}
);
leftKerningGroup = o;
rightKerningGroup = d;
unicode = 0064;
},
{
glyphname = eth;
lastChange = "2021-11-10 04:04:52 +0000";
layers = (
{
layerId = "30C2FD74-1A74-41AC-9C29-B288AE1DBDD7";
paths = (
{
closed = 1;
nodes = (
"477 -12 OFFCURVE",
"600 82 OFFCURVE",
"600 314 CURVE SMOOTH",
"600 554 OFFCURVE",
"465 795 OFFCURVE",
"198 795 CURVE SMOOTH",
"154 795 OFFCURVE",
"108 787 OFFCURVE",
"60 771 CURVE",
"76 704 LINE",
"116 718 OFFCURVE",
"156 725 OFFCURVE",
"195 725 CURVE SMOOTH",
"368 725 OFFCURVE",
"512 581 OFFCURVE",
"508 394 CURVE",
"528 438 LINE",
"482 515 OFFCURVE",
"396 538 OFFCURVE",
"327 538 CURVE SMOOTH",
"171 538 OFFCURVE",
"55 421 OFFCURVE",
"55 265 CURVE SMOOTH",
"55 107 OFFCURVE",
"173 -12 OFFCURVE",
"334 -12 CURVE SMOOTH"
);
},
{
closed = 1;
nodes = (
"223 63 OFFCURVE",
"135 149 OFFCURVE",
"135 264 CURVE SMOOTH",
"135 375 OFFCURVE",
"216 463 OFFCURVE",
"328 463 CURVE SMOOTH",
"441 463 OFFCURVE",
"520 375 OFFCURVE",
"520 266 CURVE SMOOTH",
"520 152 OFFCURVE",
"435 63 OFFCURVE",
"328 63 CURVE SMOOTH"
);
},
{
closed = 1;
nodes = (
"540 696 LINE",
"540 756 LINE",
"242 647 LINE",
"242 588 LINE"
);
}
);
width = 655;
},
{
layerId = "9398AC28-6BE1-4A79-9C94-3CBC2F226CE7";
paths = (
{
closed = 1;
nodes = (
"497 -12 OFFCURVE",
"618 108 OFFCURVE",
"618 335 CURVE SMOOTH",
"618 581 OFFCURVE",
"463 796 OFFCURVE",
"227 796 CURVE SMOOTH",
"182 796 OFFCURVE",
"134 788 OFFCURVE",
"84 771 CURVE",
"99 651 LINE",
"132 661 OFFCURVE",
"165 666 OFFCURVE",
"197 666 CURVE SMOOTH",
"333 666 OFFCURVE",
"450 587 OFFCURVE",
"459 436 CURVE",
"482 476 LINE",
"432 524 OFFCURVE",
"387 548 OFFCURVE",
"316 548 CURVE SMOOTH",
"156 548 OFFCURVE",
"33 428 OFFCURVE",
"33 270 CURVE SMOOTH",
"33 104 OFFCURVE",
"168 -12 OFFCURVE",
"326 -12 CURVE SMOOTH"
);
},
{
closed = 1;
nodes = (
"246 123 OFFCURVE",
"188 183 OFFCURVE",
"188 269 CURVE SMOOTH",
"188 353 OFFCURVE",
"243 413 OFFCURVE",
"326 413 CURVE SMOOTH",
"411 413 OFFCURVE",
"463 350 OFFCURVE",
"463 269 CURVE SMOOTH",
"463 185 OFFCURVE",
"407 123 OFFCURVE",
"326 123 CURVE SMOOTH"
);
},
{
closed = 1;
nodes = (
"569 693 LINE",
"569 753 LINE",
"215 615 LINE",
"215 555 LINE"
);
}
);
width = 651;
},
{
layerId = "C1DB0BE6-5704-4A8C-8C00-D80E72C16D98";
paths = (
{
closed = 1;
nodes = (
"482 -12 OFFCURVE",
"598 93 OFFCURVE",
"598 301 CURVE SMOOTH",
"598 532 OFFCURVE",
"455 796 OFFCURVE",
"196 796 CURVE SMOOTH",
"157 796 OFFCURVE",
"118 790 OFFCURVE",
"78 778 CURVE",
"91 736 LINE",
"127 748 OFFCURVE",
"160 753 OFFCURVE",
"191 753 CURVE SMOOTH",
"399 753 OFFCURVE",
"548 527 OFFCURVE",
"548 348 CURVE",
"568 364 LINE",
"518 488 OFFCURVE",
"422 528 OFFCURVE",
"332 528 CURVE SMOOTH",
"177 528 OFFCURVE",
"66 411 OFFCURVE",
"66 259 CURVE SMOOTH",
"66 106 OFFCURVE",
"179 -12 OFFCURVE",
"335 -12 CURVE SMOOTH"
);
},
{
closed = 1;
nodes = (
"212 31 OFFCURVE",
"114 129 OFFCURVE",
"114 259 CURVE SMOOTH",
"114 385 OFFCURVE",
"205 485 OFFCURVE",
"331 485 CURVE SMOOTH",
"457 485 OFFCURVE",
"548 385 OFFCURVE",
"548 260 CURVE SMOOTH",
"548 132 OFFCURVE",
"453 31 OFFCURVE",
"331 31 CURVE SMOOTH"
);
},
{
closed = 1;
nodes = (
"527 684 LINE",
"527 727 LINE",
"251 630 LINE",
"251 588 LINE"
);
}
);
width = 664;
}
);
leftKerningGroup = o;
leftMetricsKey = "=o";
rightKerningGroup = o;
rightMetricsKey = "=o";
unicode = 00F0;
},
{
glyphname = e;
lastChange = "2021-11-11 09:55:28 +0000";
layers = (
{
anchors = (
{
name = bottom;
position = "{308, 0}";
},
{
name = ogonek;
position = "{321, 0}";
},
{
name = top;
position = "{308, 536}";
}
);
layerId = "30C2FD74-1A74-41AC-9C29-B288AE1DBDD7";
paths = (
{
closed = 1;
nodes = (
"430 -12 OFFCURVE",
"516 49 OFFCURVE",
"549 122 CURVE",
"485 156 LINE",
"451 100 OFFCURVE",
"399 58 OFFCURVE",
"321 58 CURVE SMOOTH",
"219 58 OFFCURVE",
"125 140 OFFCURVE",
"135 269 CURVE",
"125 396 OFFCURVE",
"213 478 OFFCURVE",
"313 478 CURVE SMOOTH",
"412 478 OFFCURVE",
"494 395 OFFCURVE",
"477 285 CURVE",
"513 315 LINE",
"103 315 LINE",
"103 245 LINE",
"556 245 LINE",
"559 262 OFFCURVE",
"560 280 OFFCURVE",
"560 293 CURVE SMOOTH",
"560 421 OFFCURVE",
"467 548 OFFCURVE",
"313 548 CURVE SMOOTH",
"166 548 OFFCURVE",
"55 431 OFFCURVE",
"55 270 CURVE SMOOTH",
"55 107 OFFCURVE",
"171 -12 OFFCURVE",
"321 -12 CURVE SMOOTH"
);
}
);
width = 615;
},
{
anchors = (
{
name = bottom;
position = "{306, 0}";
},
{
name = ogonek;
position = "{318, 0}";
},
{
name = top;
position = "{306, 546}";
}
);
layerId = "9398AC28-6BE1-4A79-9C94-3CBC2F226CE7";
paths = (
{
closed = 1;
nodes = (
"430 -12 OFFCURVE",
"520 41 OFFCURVE",
"553 121 CURVE",
"433 178 LINE",
"412 141 OFFCURVE",
"373 118 OFFCURVE",
"320 118 CURVE SMOOTH",
"232 118 OFFCURVE",
"180 181 OFFCURVE",
"188 273 CURVE",
"181 379 OFFCURVE",
"230 438 OFFCURVE",
"308 438 CURVE SMOOTH",
"387 438 OFFCURVE",
"435 374 OFFCURVE",
"415 289 CURVE",
"486 341 LINE",
"162 341 LINE",
"162 231 LINE",
"571 231 LINE",
"576 246 OFFCURVE",
"578 267 OFFCURVE",
"578 289 CURVE SMOOTH",
"578 440 OFFCURVE",
"481 558 OFFCURVE",
"308 558 CURVE SMOOTH",
"152 558 OFFCURVE",
"33 437 OFFCURVE",
"33 274 CURVE SMOOTH",
"33 116 OFFCURVE",
"145 -12 OFFCURVE",
"318 -12 CURVE SMOOTH"
);
}
);
width = 611;
},
{
anchors = (
{
name = bottom;
position = "{314, 0}";
},
{
name = ogonek;
position = "{331, 0}";
},
{
name = top;
position = "{314, 526}";
}
);
layerId = "C1DB0BE6-5704-4A8C-8C00-D80E72C16D98";
paths = (
{
closed = 1;
nodes = (
"425 -12 OFFCURVE",
"507 36 OFFCURVE",
"546 113 CURVE",
"508 133 LINE",
"471 68 OFFCURVE",
"407 30 OFFCURVE",
"331 30 CURVE SMOOTH",
"205 30 OFFCURVE",
"111 130 OFFCURVE",
"111 263 CURVE SMOOTH",
"111 394 OFFCURVE",
"203 496 OFFCURVE",
"321 496 CURVE SMOOTH",
"435 496 OFFCURVE",
"521 399 OFFCURVE",
"515 276 CURVE",
"532 289 LINE",
"89 289 LINE",
"89 249 LINE",
"558 249 LINE",
"560 264 OFFCURVE",
"561 275 OFFCURVE",
"561 288 CURVE SMOOTH",
"561 430 OFFCURVE",
"458 538 OFFCURVE",
"321 538 CURVE SMOOTH",
"177 538 OFFCURVE",
"66 419 OFFCURVE",
"66 263 CURVE SMOOTH",
"66 108 OFFCURVE",
"181 -12 OFFCURVE",
"331 -12 CURVE SMOOTH"
);
}
);
width = 627;
}
);
leftKerningGroup = o;
rightKerningGroup = e;
unicode = 0065;
},
{
glyphname = e.ss03;
lastChange = "2021-11-11 09:55:40 +0000";
layers = (
{
anchors = (
{
name = bottom;
position = "{308, 0}";
},
{
name = ogonek;
position = "{341, 0}";
},
{
name = top;
position = "{308, 536}";
}
);
layerId = "30C2FD74-1A74-41AC-9C29-B288AE1DBDD7";
paths = (
{
closed = 1;
nodes = (
"530 -12 LINE",
"530 58 LINE",
"341 58 LINE SMOOTH",
"219 58 OFFCURVE",
"125 140 OFFCURVE",
"135 269 CURVE",
"125 396 OFFCURVE",
"213 478 OFFCURVE",
"313 478 CURVE SMOOTH",
"412 478 OFFCURVE",
"494 395 OFFCURVE",
"477 285 CURVE",
"513 315 LINE",
"103 315 LINE",
"103 245 LINE",
"556 245 LINE",
"559 262 OFFCURVE",
"560 280 OFFCURVE",
"560 293 CURVE SMOOTH",
"560 421 OFFCURVE",
"467 548 OFFCURVE",
"313 548 CURVE SMOOTH",
"166 548 OFFCURVE",
"55 431 OFFCURVE",
"55 270 CURVE SMOOTH",
"55 107 OFFCURVE",
"171 -12 OFFCURVE",
"341 -12 CURVE SMOOTH"
);
}
);
width = 615;
},
{
anchors = (
{
name = bottom;
position = "{306, 0}";
},
{
name = ogonek;
position = "{318, 0}";
},
{
name = top;
position = "{306, 546}";
}
);
layerId = "9398AC28-6BE1-4A79-9C94-3CBC2F226CE7";
paths = (
{
closed = 1;
nodes = (
"518 -12 LINE",
"518 118 LINE",
"318 118 LINE SMOOTH",
"230 118 OFFCURVE",
"180 181 OFFCURVE",
"188 273 CURVE",
"181 379 OFFCURVE",
"230 438 OFFCURVE",
"308 438 CURVE SMOOTH",
"387 438 OFFCURVE",
"435 374 OFFCURVE",
"415 289 CURVE",
"486 341 LINE",
"162 341 LINE",
"162 231 LINE",
"571 231 LINE",
"576 246 OFFCURVE",
"578 267 OFFCURVE",
"578 289 CURVE SMOOTH",
"578 440 OFFCURVE",
"481 558 OFFCURVE",
"308 558 CURVE SMOOTH",
"152 558 OFFCURVE",
"33 437 OFFCURVE",
"33 274 CURVE SMOOTH",
"33 116 OFFCURVE",
"145 -12 OFFCURVE",
"318 -12 CURVE SMOOTH"
);
}
);
width = 611;
},
{
anchors = (
{
name = bottom;
position = "{314, 0}";
},
{
name = ogonek;
position = "{331, 0}";
},
{
name = top;
position = "{314, 526}";
}
);
layerId = "C1DB0BE6-5704-4A8C-8C00-D80E72C16D98";
paths = (
{
closed = 1;
nodes = (
"518 -12 LINE",
"518 30 LINE",
"331 30 LINE SMOOTH",
"205 30 OFFCURVE",
"111 130 OFFCURVE",
"111 263 CURVE SMOOTH",
"111 394 OFFCURVE",
"203 496 OFFCURVE",
"321 496 CURVE SMOOTH",
"435 496 OFFCURVE",
"521 399 OFFCURVE",
"515 276 CURVE",
"532 289 LINE",
"89 289 LINE",
"89 249 LINE",
"558 249 LINE",
"560 264 OFFCURVE",
"561 275 OFFCURVE",
"561 288 CURVE SMOOTH",
"561 430 OFFCURVE",
"458 538 OFFCURVE",
"321 538 CURVE SMOOTH",
"177 538 OFFCURVE",
"66 419 OFFCURVE",
"66 263 CURVE SMOOTH",
"66 108 OFFCURVE",
"181 -12 OFFCURVE",
"331 -12 CURVE SMOOTH"
);
}
);
width = 627;
}
);
leftKerningGroup = o;
rightKerningGroup = e;
},
{
glyphname = schwa;
lastChange = "2021-11-10 04:04:52 +0000";
layers = (
{
layerId = "C1DB0BE6-5704-4A8C-8C00-D80E72C16D98";
paths = (
{
closed = 1;
nodes = (
"450 -12 OFFCURVE",
"561 107 OFFCURVE",
"561 263 CURVE SMOOTH",
"561 418 OFFCURVE",
"446 538 OFFCURVE",
"296 538 CURVE SMOOTH",
"202 538 OFFCURVE",
"120 490 OFFCURVE",
"81 413 CURVE",
"119 393 LINE",
"156 458 OFFCURVE",
"220 496 OFFCURVE",
"296 496 CURVE SMOOTH",
"422 496 OFFCURVE",
"516 396 OFFCURVE",
"516 263 CURVE SMOOTH",
"516 132 OFFCURVE",
"424 30 OFFCURVE",
"306 30 CURVE SMOOTH",
"192 30 OFFCURVE",
"106 127 OFFCURVE",
"112 250 CURVE",
"95 237 LINE",
"538 237 LINE",
"538 277 LINE",
"69 277 LINE",
"67 262 OFFCURVE",
"66 251 OFFCURVE",
"66 238 CURVE SMOOTH",
"66 96 OFFCURVE",
"169 -12 OFFCURVE",
"306 -12 CURVE SMOOTH"
);
}
);
width = 627;
},
{
layerId = "30C2FD74-1A74-41AC-9C29-B288AE1DBDD7";
paths = (
{
closed = 1;
nodes = (
"449 -12 OFFCURVE",
"560 105 OFFCURVE",
"560 266 CURVE SMOOTH",
"560 429 OFFCURVE",
"444 548 OFFCURVE",
"294 548 CURVE SMOOTH",
"185 548 OFFCURVE",
"99 487 OFFCURVE",
"66 414 CURVE",
"130 380 LINE",
"164 436 OFFCURVE",
"216 478 OFFCURVE",
"294 478 CURVE SMOOTH",
"396 478 OFFCURVE",
"490 396 OFFCURVE",
"480 267 CURVE",
"490 140 OFFCURVE",
"402 58 OFFCURVE",
"302 58 CURVE SMOOTH",
"203 58 OFFCURVE",
"121 141 OFFCURVE",
"138 251 CURVE",
"102 221 LINE",
"512 221 LINE",
"512 291 LINE",
"59 291 LINE",
"56 274 OFFCURVE",
"55 256 OFFCURVE",
"55 243 CURVE SMOOTH",
"55 115 OFFCURVE",
"148 -12 OFFCURVE",
"302 -12 CURVE SMOOTH"
);
}
);
width = 615;
},
{
layerId = "9398AC28-6BE1-4A79-9C94-3CBC2F226CE7";
paths = (
{
closed = 1;
nodes = (
"459 -12 OFFCURVE",
"578 109 OFFCURVE",
"578 272 CURVE SMOOTH",
"578 430 OFFCURVE",
"466 558 OFFCURVE",
"293 558 CURVE SMOOTH",
"181 558 OFFCURVE",
"91 505 OFFCURVE",
"58 425 CURVE",
"178 368 LINE",
"199 405 OFFCURVE",
"238 428 OFFCURVE",
"291 428 CURVE SMOOTH",
"379 428 OFFCURVE",
"431 365 OFFCURVE",
"423 273 CURVE",
"430 167 OFFCURVE",
"381 108 OFFCURVE",
"303 108 CURVE SMOOTH",
"224 108 OFFCURVE",
"176 172 OFFCURVE",
"196 257 CURVE",
"125 205 LINE",
"449 205 LINE",
"449 315 LINE",
"40 315 LINE",
"35 300 OFFCURVE",
"33 279 OFFCURVE",
"33 257 CURVE SMOOTH",
"33 106 OFFCURVE",
"130 -12 OFFCURVE",
"303 -12 CURVE SMOOTH"
);
}
);
width = 611;
}
);
leftKerningGroup = o;
leftMetricsKey = "=|e";
rightKerningGroup = o;
rightMetricsKey = "=|e";
unicode = 0259;
},
{
glyphname = f;
lastChange = "2021-11-10 09:08:53 +0000";
layers = (
{
anchors = (
{
name = bottom;
position = "{197, 0}";
},
{
name = top;
position = "{197, 745}";
}
);
layerId = "30C2FD74-1A74-41AC-9C29-B288AE1DBDD7";
paths = (
{
closed = 1;
nodes = (
"207 0 LINE",
"207 461 LINE",
"338 461 LINE",
"338 536 LINE",
"207 536 LINE",
"207 584 LINE SMOOTH",
"207 660 OFFCURVE",
"255 687 OFFCURVE",
"319 687 CURVE SMOOTH",
"326 687 OFFCURVE",
"346 686 OFFCURVE",
"355 684 CURVE",
"355 752 LINE",
"344 755 OFFCURVE",
"324 757 OFFCURVE",
"311 757 CURVE SMOOTH",
"217 757 OFFCURVE",
"132 696 OFFCURVE",
"132 584 CURVE SMOOTH",
"132 536 LINE",
"25 536 LINE",
"25 461 LINE",
"132 461 LINE",
"132 0 LINE"
);
}
);
width = 393;
},
{
anchors = (
{
name = bottom;
position = "{205, 0}";
},
{
name = top;
position = "{209, 745}";
}
);
layerId = "9398AC28-6BE1-4A79-9C94-3CBC2F226CE7";
paths = (
{
closed = 1;
nodes = (
"271 0 LINE",
"271 416 LINE",
"388 416 LINE",
"388 546 LINE",
"271 546 LINE",
"271 554 LINE SMOOTH",
"271 602 OFFCURVE",
"300 627 OFFCURVE",
"356 627 CURVE SMOOTH",
"366 627 OFFCURVE",
"376 626 OFFCURVE",
"389 624 CURVE",
"389 752 LINE",
"375 755 OFFCURVE",
"353 757 OFFCURVE",
"336 757 CURVE SMOOTH",
"200 757 OFFCURVE",
"121 683 OFFCURVE",
"121 554 CURVE SMOOTH",
"121 546 LINE",
"29 546 LINE",
"29 416 LINE",
"121 416 LINE",
"121 0 LINE"
);
}
);
width = 410;
},
{
anchors = (
{
name = bottom;
position = "{194, 0}";
},
{
name = top;
position = "{194, 745}";
}
);
layerId = "C1DB0BE6-5704-4A8C-8C00-D80E72C16D98";
paths = (
{
closed = 1;
nodes = (
"188 0 LINE",
"188 486 LINE",
"321 486 LINE",
"321 526 LINE",
"188 526 LINE",
"188 579 LINE SMOOTH",
"188 664 OFFCURVE",
"233 714 OFFCURVE",
"308 714 CURVE SMOOTH",
"319 714 OFFCURVE",
"333 713 OFFCURVE",
"344 711 CURVE",
"344 752 LINE",
"334 755 OFFCURVE",
"321 757 OFFCURVE",
"305 757 CURVE SMOOTH",
"208 757 OFFCURVE",
"143 691 OFFCURVE",
"143 579 CURVE SMOOTH",
"143 526 LINE",
"34 526 LINE",
"34 486 LINE",
"143 486 LINE",
"143 0 LINE"
);
}
);
width = 387;
}
);
leftKerningGroup = f;
rightKerningGroup = f;
unicode = 0066;
},
{
glyphname = f.ss01;
lastChange = "2021-11-10 04:04:52 +0000";
layers = (
{
layerId = "30C2FD74-1A74-41AC-9C29-B288AE1DBDD7";
paths = (
{
closed = 1;
nodes = (
"207 0 LINE",
"207 461 LINE",
"338 461 LINE",
"338 536 LINE",
"207 536 LINE",
"207 675 LINE",
"355 675 LINE",
"355 745 LINE",
"132 745 LINE",
"132 536 LINE",
"25 536 LINE",
"25 461 LINE",
"132 461 LINE",
"132 0 LINE"
);
}
);
width = 393;
},
{
layerId = "9398AC28-6BE1-4A79-9C94-3CBC2F226CE7";
paths = (
{
closed = 1;
nodes = (
"271 0 LINE",
"271 416 LINE",
"388 416 LINE",
"388 546 LINE",
"271 546 LINE",
"271 625 LINE",
"389 625 LINE",
"389 745 LINE",
"121 745 LINE",
"121 546 LINE",
"29 546 LINE",
"29 416 LINE",
"121 416 LINE",
"121 0 LINE"
);
}
);
width = 410;
},
{
layerId = "C1DB0BE6-5704-4A8C-8C00-D80E72C16D98";
paths = (
{
closed = 1;
nodes = (
"188 0 LINE",
"188 486 LINE",
"321 486 LINE",
"321 526 LINE",
"188 526 LINE",
"188 705 LINE",
"344 705 LINE",
"344 745 LINE",
"143 745 LINE",
"143 526 LINE",
"34 526 LINE",
"34 486 LINE",
"143 486 LINE",
"143 0 LINE"
);
}
);
width = 387;
}
);
leftKerningGroup = f;
leftMetricsKey = "=f";
rightKerningGroup = f;
rightMetricsKey = "=f";
},
{
glyphname = g;
lastChange = "2021-11-10 04:04:52 +0000";
layers = (
{
anchors = (
{
name = bottom;
position = "{331, -240}";
},
{
name = top;
position = "{331, 536}";
}
);
layerId = "30C2FD74-1A74-41AC-9C29-B288AE1DBDD7";
paths = (
{
closed = 1;
nodes = (
"479 -220 OFFCURVE",
"585 -118 OFFCURVE",
"585 21 CURVE SMOOTH",
"585 536 LINE",
"510 536 LINE",
"510 416 LINE",
"522 437 LINE",
"480 505 OFFCURVE",
"406 548 OFFCURVE",
"319 548 CURVE SMOOTH",
"167 548 OFFCURVE",
"55 429 OFFCURVE",
"55 278 CURVE SMOOTH",
"55 127 OFFCURVE",
"168 8 OFFCURVE",
"319 8 CURVE SMOOTH",
"406 8 OFFCURVE",
"485 52 OFFCURVE",
"522 129 CURVE",
"510 140 LINE",
"510 21 LINE SMOOTH",
"510 -87 OFFCURVE",
"426 -145 OFFCURVE",
"329 -145 CURVE SMOOTH",
"244 -145 OFFCURVE",
"188 -102 OFFCURVE",
"167 -51 CURVE",
"98 -88 LINE",
"134 -166 OFFCURVE",
"220 -220 OFFCURVE",
"331 -220 CURVE SMOOTH"
);
},
{
closed = 1;
nodes = (
"215 83 OFFCURVE",
"135 171 OFFCURVE",
"135 278 CURVE SMOOTH",
"135 385 OFFCURVE",
"216 473 OFFCURVE",
"323 473 CURVE SMOOTH",
"426 473 OFFCURVE",
"510 384 OFFCURVE",
"510 278 CURVE SMOOTH",
"510 172 OFFCURVE",
"426 83 OFFCURVE",
"323 83 CURVE SMOOTH"
);
}
);
width = 662;
},
{
anchors = (
{
name = bottom;
position = "{324, -240}";
},
{
name = top;
position = "{324, 546}";
}
);
layerId = "9398AC28-6BE1-4A79-9C94-3CBC2F226CE7";
paths = (
{
closed = 1;
nodes = (
"480 -220 OFFCURVE",
"593 -116 OFFCURVE",
"593 29 CURVE SMOOTH",
"593 546 LINE",
"453 546 LINE",
"453 427 LINE",
"472 463 LINE",
"431 527 OFFCURVE",
"373 558 OFFCURVE",
"294 558 CURVE SMOOTH",
"143 558 OFFCURVE",
"33 447 OFFCURVE",
"33 294 CURVE SMOOTH",
"33 140 OFFCURVE",
"144 27 OFFCURVE",
"297 27 CURVE SMOOTH",
"376 27 OFFCURVE",
"435 57 OFFCURVE",
"472 118 CURVE",
"443 154 LINE",
"443 29 LINE SMOOTH",
"443 -42 OFFCURVE",
"397 -85 OFFCURVE",
"323 -85 CURVE SMOOTH",
"260 -85 OFFCURVE",
"212 -54 OFFCURVE",
"197 -3 CURVE",
"58 -52 LINE",
"92 -154 OFFCURVE",
"196 -220 OFFCURVE",
"323 -220 CURVE SMOOTH"
);
},
{
closed = 1;
nodes = (
"242 163 OFFCURVE",
"188 216 OFFCURVE",
"188 292 CURVE SMOOTH",
"188 369 OFFCURVE",
"242 423 OFFCURVE",
"318 423 CURVE SMOOTH",
"392 423 OFFCURVE",
"443 370 OFFCURVE",
"443 292 CURVE SMOOTH",
"443 214 OFFCURVE",
"393 163 OFFCURVE",
"318 163 CURVE SMOOTH"
);
}
);
width = 648;
},
{
anchors = (
{
name = bottom;
position = "{332, -240}";
},
{
name = top;
position = "{332, 526}";
}
);
layerId = "C1DB0BE6-5704-4A8C-8C00-D80E72C16D98";
paths = (
{
closed = 1;
nodes = (
"474 -220 OFFCURVE",
"576 -121 OFFCURVE",
"576 18 CURVE SMOOTH",
"576 526 LINE",
"531 526 LINE",
"531 377 LINE",
"541 394 LINE",
"503 481 OFFCURVE",
"421 538 OFFCURVE",
"320 538 CURVE SMOOTH",
"173 538 OFFCURVE",
"66 419 OFFCURVE",
"66 273 CURVE SMOOTH",
"66 127 OFFCURVE",
"173 8 OFFCURVE",
"320 8 CURVE SMOOTH",
"421 8 OFFCURVE",
"503 65 OFFCURVE",
"541 152 CURVE",
"531 169 LINE",
"531 18 LINE SMOOTH",
"531 -118 OFFCURVE",
"430 -178 OFFCURVE",
"331 -178 CURVE SMOOTH",
"251 -178 OFFCURVE",
"185 -139 OFFCURVE",
"146 -73 CURVE",
"108 -95 LINE",
"146 -166 OFFCURVE",
"229 -220 OFFCURVE",
"331 -220 CURVE SMOOTH"
);
},
{
closed = 1;
nodes = (
"198 53 OFFCURVE",
"114 151 OFFCURVE",
"114 273 CURVE SMOOTH",
"114 395 OFFCURVE",
"198 493 OFFCURVE",
"320 493 CURVE SMOOTH",
"441 493 OFFCURVE",
"528 396 OFFCURVE",
"528 273 CURVE SMOOTH",
"528 150 OFFCURVE",
"441 53 OFFCURVE",
"320 53 CURVE SMOOTH"
);
}
);
width = 664;
}
);
leftKerningGroup = o;
rightKerningGroup = g;
unicode = 0067;
},
{
glyphname = g.ss01;
lastChange = "2021-11-10 04:04:52 +0000";
layers = (
{
anchors = (
{
name = bottom;
position = "{331, -240}";
},
{
name = top;
position = "{331, 536}";
}
);
layerId = "30C2FD74-1A74-41AC-9C29-B288AE1DBDD7";
paths = (
{
closed = 1;
nodes = (
"585 -220 LINE",
"585 536 LINE",
"510 536 LINE",
"510 416 LINE",
"522 437 LINE",
"480 505 OFFCURVE",
"406 548 OFFCURVE",
"319 548 CURVE SMOOTH",
"167 548 OFFCURVE",
"55 429 OFFCURVE",
"55 278 CURVE SMOOTH",
"55 127 OFFCURVE",
"168 8 OFFCURVE",
"319 8 CURVE SMOOTH",
"406 8 OFFCURVE",
"485 52 OFFCURVE",
"522 129 CURVE",
"510 140 LINE",
"510 -145 LINE",
"138 -145 LINE",
"138 -220 LINE"
);
},
{
closed = 1;
nodes = (
"215 83 OFFCURVE",
"135 171 OFFCURVE",
"135 278 CURVE SMOOTH",
"135 385 OFFCURVE",
"216 473 OFFCURVE",
"323 473 CURVE SMOOTH",
"426 473 OFFCURVE",
"510 384 OFFCURVE",
"510 278 CURVE SMOOTH",
"510 172 OFFCURVE",
"426 83 OFFCURVE",
"323 83 CURVE SMOOTH"
);
}
);
width = 662;
},
{
anchors = (
{
name = bottom;
position = "{324, -240}";
},
{
name = top;
position = "{324, 546}";
}
);
layerId = "9398AC28-6BE1-4A79-9C94-3CBC2F226CE7";
paths = (
{
closed = 1;
nodes = (
"593 -220 LINE",
"593 546 LINE",
"453 546 LINE",
"453 427 LINE",
"472 463 LINE",
"431 527 OFFCURVE",
"373 558 OFFCURVE",
"294 558 CURVE SMOOTH",
"143 558 OFFCURVE",
"33 447 OFFCURVE",
"33 294 CURVE SMOOTH",
"33 140 OFFCURVE",
"144 27 OFFCURVE",
"297 27 CURVE SMOOTH",
"376 27 OFFCURVE",
"435 57 OFFCURVE",
"472 118 CURVE",
"443 154 LINE",
"443 -90 LINE",
"98 -90 LINE",
"98 -220 LINE"
);
},
{
closed = 1;
nodes = (
"242 163 OFFCURVE",
"188 216 OFFCURVE",
"188 292 CURVE SMOOTH",
"188 369 OFFCURVE",
"242 423 OFFCURVE",
"318 423 CURVE SMOOTH",
"392 423 OFFCURVE",
"443 370 OFFCURVE",
"443 292 CURVE SMOOTH",
"443 214 OFFCURVE",
"393 163 OFFCURVE",
"318 163 CURVE SMOOTH"
);
}
);
width = 648;
},
{
anchors = (
{
name = bottom;
position = "{332, -240}";
},
{
name = top;
position = "{332, 526}";
}
);
layerId = "C1DB0BE6-5704-4A8C-8C00-D80E72C16D98";
paths = (
{
closed = 1;
nodes = (
"576 -220 LINE",
"576 526 LINE",
"531 526 LINE",
"531 377 LINE",
"541 394 LINE",
"503 481 OFFCURVE",
"421 538 OFFCURVE",
"320 538 CURVE SMOOTH",
"173 538 OFFCURVE",
"66 419 OFFCURVE",
"66 273 CURVE SMOOTH",
"66 127 OFFCURVE",
"173 8 OFFCURVE",
"320 8 CURVE SMOOTH",
"421 8 OFFCURVE",
"503 65 OFFCURVE",
"541 152 CURVE",
"531 169 LINE",
"531 -180 LINE",
"147 -180 LINE",
"147 -220 LINE"
);
},
{
closed = 1;
nodes = (
"198 53 OFFCURVE",
"114 151 OFFCURVE",
"114 273 CURVE SMOOTH",
"114 395 OFFCURVE",
"198 493 OFFCURVE",
"320 493 CURVE SMOOTH",
"441 493 OFFCURVE",
"528 396 OFFCURVE",
"528 273 CURVE SMOOTH",
"528 150 OFFCURVE",
"441 53 OFFCURVE",
"320 53 CURVE SMOOTH"
);
}
);
width = 664;
}
);
leftKerningGroup = o;
leftMetricsKey = "=g";
rightKerningGroup = g;
rightMetricsKey = "=g";
},
{
glyphname = g.ss03;
lastChange = "2021-11-10 04:04:52 +0000";
layers = (
{
anchors = (
{
name = bottom;
position = "{331, -240}";
},
{
name = top;
position = "{331, 536}";
}
);
layerId = "30C2FD74-1A74-41AC-9C29-B288AE1DBDD7";
paths = (
{
closed = 1;
nodes = (
"337 -220 LINE SMOOTH",
"486 -220 OFFCURVE",
"585 -133 OFFCURVE",
"585 -3 CURVE SMOOTH",
"585 536 LINE",
"510 536 LINE",
"510 416 LINE",
"522 437 LINE",
"480 505 OFFCURVE",
"406 548 OFFCURVE",
"319 548 CURVE SMOOTH",
"167 548 OFFCURVE",
"55 429 OFFCURVE",
"55 278 CURVE SMOOTH",
"55 127 OFFCURVE",
"168 8 OFFCURVE",
"319 8 CURVE SMOOTH",
"406 8 OFFCURVE",
"485 52 OFFCURVE",
"522 129 CURVE",
"510 140 LINE",
"510 -3 LINE SMOOTH",
"510 -88 OFFCURVE",
"441 -145 OFFCURVE",
"337 -145 CURVE SMOOTH",
"128 -145 LINE",
"128 -220 LINE"
);
},
{
closed = 1;
nodes = (
"215 83 OFFCURVE",
"135 171 OFFCURVE",
"135 278 CURVE SMOOTH",
"135 385 OFFCURVE",
"216 473 OFFCURVE",
"323 473 CURVE SMOOTH",
"426 473 OFFCURVE",
"510 384 OFFCURVE",
"510 278 CURVE SMOOTH",
"510 172 OFFCURVE",
"426 83 OFFCURVE",
"323 83 CURVE SMOOTH"
);
}
);
width = 662;
},
{
anchors = (
{
name = bottom;
position = "{324, -240}";
},
{
name = top;
position = "{324, 546}";
}
);
layerId = "9398AC28-6BE1-4A79-9C94-3CBC2F226CE7";
paths = (
{
closed = 1;
nodes = (
"321 -220 LINE SMOOTH",
"492 -220 OFFCURVE",
"593 -133 OFFCURVE",
"593 14 CURVE SMOOTH",
"593 546 LINE",
"453 546 LINE",
"453 427 LINE",
"472 463 LINE",
"431 527 OFFCURVE",
"373 558 OFFCURVE",
"294 558 CURVE SMOOTH",
"143 558 OFFCURVE",
"33 447 OFFCURVE",
"33 294 CURVE SMOOTH",
"33 140 OFFCURVE",
"144 27 OFFCURVE",
"297 27 CURVE SMOOTH",
"376 27 OFFCURVE",
"435 57 OFFCURVE",
"472 118 CURVE",
"443 154 LINE",
"443 14 LINE SMOOTH",
"443 -51 OFFCURVE",
"398 -90 OFFCURVE",
"321 -90 CURVE SMOOTH",
"121 -90 LINE",
"121 -220 LINE"
);
},
{
closed = 1;
nodes = (
"242 163 OFFCURVE",
"188 216 OFFCURVE",
"188 292 CURVE SMOOTH",
"188 369 OFFCURVE",
"242 423 OFFCURVE",
"318 423 CURVE SMOOTH",
"392 423 OFFCURVE",
"443 370 OFFCURVE",
"443 292 CURVE SMOOTH",
"443 214 OFFCURVE",
"393 163 OFFCURVE",
"318 163 CURVE SMOOTH"
);
}
);
width = 648;
},
{
anchors = (
{
name = bottom;
position = "{332, -240}";
},
{
name = top;
position = "{332, 526}";
}
);
layerId = "C1DB0BE6-5704-4A8C-8C00-D80E72C16D98";
paths = (
{
closed = 1;
nodes = (
"348 -220 LINE SMOOTH",
"488 -220 OFFCURVE",
"576 -139 OFFCURVE",
"576 -11 CURVE SMOOTH",
"576 526 LINE",
"531 526 LINE",
"531 377 LINE",
"541 394 LINE",
"503 481 OFFCURVE",
"421 538 OFFCURVE",
"320 538 CURVE SMOOTH",
"173 538 OFFCURVE",
"66 419 OFFCURVE",
"66 273 CURVE SMOOTH",
"66 127 OFFCURVE",
"173 8 OFFCURVE",
"320 8 CURVE SMOOTH",
"421 8 OFFCURVE",
"503 65 OFFCURVE",
"541 152 CURVE",
"531 169 LINE",
"531 -11 LINE SMOOTH",
"531 -115 OFFCURVE",
"463 -177 OFFCURVE",
"348 -177 CURVE SMOOTH",
"161 -177 LINE",
"161 -220 LINE"
);
},
{
closed = 1;
nodes = (
"198 53 OFFCURVE",
"114 151 OFFCURVE",
"114 273 CURVE SMOOTH",
"114 395 OFFCURVE",
"198 493 OFFCURVE",
"320 493 CURVE SMOOTH",
"441 493 OFFCURVE",
"528 396 OFFCURVE",
"528 273 CURVE SMOOTH",
"528 150 OFFCURVE",
"441 53 OFFCURVE",
"320 53 CURVE SMOOTH"
);
}
);
width = 664;
}
);
leftKerningGroup = o;
leftMetricsKey = "=g";
rightKerningGroup = g;
rightMetricsKey = "=g";
},
{
glyphname = h;
lastChange = "2021-11-11 10:32:36 +0000";
layers = (
{
anchors = (
{
name = bottom;
position = "{287, 0}";
},
{
name = center;
position = "{115, 640}";
},
{
name = top;
position = "{115, 745}";
}
);
layerId = "30C2FD74-1A74-41AC-9C29-B288AE1DBDD7";
paths = (
{
closed = 1;
nodes = (
"152 0 LINE",
"152 319 LINE SMOOTH",
"152 415 OFFCURVE",
"213 473 OFFCURVE",
"293 473 CURVE SMOOTH",
"373 473 OFFCURVE",
"432 416 OFFCURVE",
"432 319 CURVE SMOOTH",
"432 0 LINE",
"507 0 LINE",
"507 348 LINE SMOOTH",
"507 462 OFFCURVE",
"419 548 OFFCURVE",
"306 548 CURVE SMOOTH",
"226 548 OFFCURVE",
"161 505 OFFCURVE",
"135 436 CURVE",
"152 432 LINE",
"152 757 LINE",
"77 757 LINE",
"77 0 LINE"
);
}
);
width = 573;
},
{
anchors = (
{
name = bottom;
position = "{300, 0}";
},
{
name = center;
position = "{130, 640}";
},
{
name = top;
position = "{130, 745}";
}
);
layerId = "9398AC28-6BE1-4A79-9C94-3CBC2F226CE7";
paths = (
{
closed = 1;
nodes = (
"205 0 LINE",
"205 319 LINE SMOOTH",
"205 382 OFFCURVE",
"246 423 OFFCURVE",
"305 423 CURVE SMOOTH",
"364 423 OFFCURVE",
"405 382 OFFCURVE",
"405 319 CURVE SMOOTH",
"405 0 LINE",
"555 0 LINE",
"555 351 LINE SMOOTH",
"555 475 OFFCURVE",
"471 558 OFFCURVE",
"348 558 CURVE SMOOTH",
"272 558 OFFCURVE",
"212 527 OFFCURVE",
"187 462 CURVE",
"205 438 LINE",
"205 757 LINE",
"55 757 LINE",
"55 0 LINE"
);
}
);
width = 599;
},
{
anchors = (
{
name = bottom;
position = "{285, 0}";
},
{
name = center;
position = "{111, 640}";
},
{
name = top;
position = "{111, 745}";
}
);
layerId = "C1DB0BE6-5704-4A8C-8C00-D80E72C16D98";
paths = (
{
closed = 1;
nodes = (
"133 0 LINE",
"133 320 LINE SMOOTH",
"133 417 OFFCURVE",
"191 495 OFFCURVE",
"291 495 CURVE SMOOTH",
"378 495 OFFCURVE",
"448 435 OFFCURVE",
"448 340 CURVE SMOOTH",
"448 0 LINE",
"493 0 LINE",
"493 345 LINE SMOOTH",
"493 461 OFFCURVE",
"401 538 OFFCURVE",
"295 538 CURVE SMOOTH",
"211 538 OFFCURVE",
"142 490 OFFCURVE",
"121 420 CURVE",
"133 415 LINE",
"133 757 LINE",
"88 757 LINE",
"88 0 LINE"
);
}
);
width = 570;
}
);
leftKerningGroup = h;
rightKerningGroup = n;
unicode = 0068;
},
{
glyphname = h.ss01;
lastChange = "2021-11-10 09:09:09 +0000";
layers = (
{
anchors = (
{
name = bottom;
position = "{287, 0}";
},
{
name = center;
position = "{115, 640}";
},
{
name = top;
position = "{115, 745}";
}
);
layerId = "30C2FD74-1A74-41AC-9C29-B288AE1DBDD7";
paths = (
{
closed = 1;
nodes = (
"507 0 LINE",
"507 536 LINE",
"129 536 LINE",
"129 461 LINE",
"432 461 LINE",
"432 0 LINE"
);
},
{
closed = 1;
nodes = (
"152 0 LINE",
"152 757 LINE",
"77 757 LINE",
"77 0 LINE"
);
}
);
width = 573;
},
{
anchors = (
{
name = bottom;
position = "{300, 0}";
},
{
name = center;
position = "{130, 640}";
},
{
name = top;
position = "{130, 745}";
}
);
layerId = "9398AC28-6BE1-4A79-9C94-3CBC2F226CE7";
paths = (
{
closed = 1;
nodes = (
"555 0 LINE",
"555 546 LINE",
"149 546 LINE",
"149 416 LINE",
"405 416 LINE",
"405 0 LINE"
);
},
{
closed = 1;
nodes = (
"205 0 LINE",
"205 757 LINE",
"55 757 LINE",
"55 0 LINE"
);
}
);
width = 599;
},
{
anchors = (
{
name = bottom;
position = "{285, 0}";
},
{
name = center;
position = "{111, 640}";
},
{
name = top;
position = "{111, 745}";
}
);
layerId = "C1DB0BE6-5704-4A8C-8C00-D80E72C16D98";
paths = (
{
closed = 1;
nodes = (
"493 0 LINE",
"493 526 LINE",
"118 526 LINE",
"118 486 LINE",
"448 486 LINE",
"448 0 LINE"
);
},
{
closed = 1;
nodes = (
"133 0 LINE",
"133 757 LINE",
"88 757 LINE",
"88 0 LINE"
);
}
);
width = 570;
}
);
leftKerningGroup = h;
leftMetricsKey = "=h";
rightKerningGroup = n;
rightMetricsKey = "=n";
},
{
glyphname = h.ss03;
lastChange = "2021-11-10 09:09:12 +0000";
layers = (
{
anchors = (
{
name = bottom;
position = "{287, 0}";
},
{
name = center;
position = "{115, 640}";
},
{
name = top;
position = "{115, 745}";
}
);
layerId = "30C2FD74-1A74-41AC-9C29-B288AE1DBDD7";
paths = (
{
closed = 1;
nodes = (
"152 0 LINE",
"152 461 LINE",
"295 461 LINE SMOOTH",
"381 461 OFFCURVE",
"432 411 OFFCURVE",
"432 327 CURVE SMOOTH",
"432 0 LINE",
"507 0 LINE",
"507 327 LINE SMOOTH",
"507 458 OFFCURVE",
"428 536 OFFCURVE",
"295 536 CURVE SMOOTH",
"152 536 LINE",
"152 757 LINE",
"77 757 LINE",
"77 0 LINE"
);
}
);
width = 573;
},
{
anchors = (
{
name = bottom;
position = "{300, 0}";
},
{
name = center;
position = "{130, 640}";
},
{
name = top;
position = "{130, 745}";
}
);
layerId = "9398AC28-6BE1-4A79-9C94-3CBC2F226CE7";
paths = (
{
closed = 1;
nodes = (
"205 0 LINE",
"205 416 LINE",
"314 416 LINE SMOOTH",
"369 416 OFFCURVE",
"405 380 OFFCURVE",
"405 324 CURVE SMOOTH",
"405 0 LINE",
"555 0 LINE",
"555 332 LINE SMOOTH",
"555 464 OFFCURVE",
"463 546 OFFCURVE",
"314 546 CURVE SMOOTH",
"205 546 LINE",
"205 757 LINE",
"55 757 LINE",
"55 0 LINE"
);
}
);
width = 599;
},
{
anchors = (
{
name = bottom;
position = "{285, 0}";
},
{
name = center;
position = "{111, 640}";
},
{
name = top;
position = "{111, 745}";
}
);
layerId = "C1DB0BE6-5704-4A8C-8C00-D80E72C16D98";
paths = (
{
closed = 1;
nodes = (
"133 0 LINE",
"133 486 LINE",
"304 486 LINE SMOOTH",
"390 486 OFFCURVE",
"448 426 OFFCURVE",
"448 337 CURVE SMOOTH",
"448 0 LINE",
"493 0 LINE",
"493 337 LINE SMOOTH",
"493 450 OFFCURVE",
"417 526 OFFCURVE",
"304 526 CURVE SMOOTH",
"133 526 LINE",
"133 757 LINE",
"88 757 LINE",
"88 0 LINE"
);
}
);
width = 570;
}
);
leftKerningGroup = h;
leftMetricsKey = "=h";
rightKerningGroup = n;
rightMetricsKey = "=n";
},
{
glyphname = i;
lastChange = "2021-11-11 15:28:30 +0000";
layers = (
{
anchors = (
{
name = bottom;
position = "{115, 0}";
}
);
layerId = "30C2FD74-1A74-41AC-9C29-B288AE1DBDD7";
paths = (
{
closed = 1;
nodes = (
"152 0 LINE",
"152 536 LINE",
"77 536 LINE",
"77 0 LINE"
);
},
{
closed = 1;
nodes = (
"152 635 LINE",
"152 745 LINE",
"77 745 LINE",
"77 635 LINE"
);
}
);
width = 229;
},
{
anchors = (
{
name = bottom;
position = "{130, 0}";
}
);
layerId = "9398AC28-6BE1-4A79-9C94-3CBC2F226CE7";
paths = (
{
closed = 1;
nodes = (
"205 0 LINE",
"205 546 LINE",
"55 546 LINE",
"55 0 LINE"
);
},
{
closed = 1;
nodes = (
"205 595 LINE",
"205 745 LINE",
"55 745 LINE",
"55 595 LINE"
);
}
);
width = 260;
},
{
anchors = (
{
name = bottom;
position = "{111, 0}";
}
);
layerId = "C1DB0BE6-5704-4A8C-8C00-D80E72C16D98";
paths = (
{
closed = 1;
nodes = (
"133 0 LINE",
"133 526 LINE",
"88 526 LINE",
"88 0 LINE"
);
},
{
closed = 1;
nodes = (
"133 635 LINE",
"133 745 LINE",
"88 745 LINE",
"88 635 LINE"
);
}
);
width = 221;
}
);
leftKerningGroup = i;
rightKerningGroup = i;
unicode = 0069;
},
{
glyphname = i.ss01;
lastChange = "2021-11-10 04:04:52 +0000";
layers = (
{
anchors = (
{
name = bottom;
position = "{152, 0}";
}
);
layerId = "30C2FD74-1A74-41AC-9C29-B288AE1DBDD7";
paths = (
{
closed = 1;
nodes = (
"189 0 LINE",
"189 536 LINE",
"39 536 LINE",
"39 461 LINE",
"114 461 LINE",
"114 0 LINE"
);
},
{
closed = 1;
nodes = (
"189 635 LINE",
"189 745 LINE",
"114 745 LINE",
"114 635 LINE"
);
}
);
width = 266;
},
{
anchors = (
{
name = bottom;
position = "{193, 0}";
}
);
layerId = "9398AC28-6BE1-4A79-9C94-3CBC2F226CE7";
paths = (
{
closed = 1;
nodes = (
"268 0 LINE",
"268 546 LINE",
"28 546 LINE",
"28 416 LINE",
"118 416 LINE",
"118 0 LINE"
);
},
{
closed = 1;
nodes = (
"268 595 LINE",
"268 745 LINE",
"118 745 LINE",
"118 595 LINE"
);
}
);
width = 323;
},
{
anchors = (
{
name = bottom;
position = "{132, 0}";
}
);
layerId = "C1DB0BE6-5704-4A8C-8C00-D80E72C16D98";
paths = (
{
closed = 1;
nodes = (
"154 0 LINE",
"154 526 LINE",
"44 526 LINE",
"44 481 LINE",
"109 481 LINE",
"109 0 LINE"
);
},
{
closed = 1;
nodes = (
"154 635 LINE",
"154 745 LINE",
"109 745 LINE",
"109 635 LINE"
);
}
);
width = 242;
}
);
leftKerningGroup = i;
leftMetricsKey = "=i/2";
rightKerningGroup = i;
rightMetricsKey = "=i";
},
{
glyphname = idotless;
lastChange = "2021-11-11 10:31:04 +0000";
layers = (
{
anchors = (
{
name = bottom;
position = "{99, 0}";
},
{
name = ogonek;
position = "{120, 0}";
},
{
name = top;
position = "{99, 536}";
}
);
layerId = "30C2FD74-1A74-41AC-9C29-B288AE1DBDD7";
paths = (
{
closed = 1;
nodes = (
"137 0 LINE",
"137 536 LINE",
"62 536 LINE",
"62 0 LINE"
);
}
);
width = 199;
},
{
anchors = (
{
name = bottom;
position = "{119, 0}";
},
{
name = ogonek;
position = "{139, 0}";
},
{
name = top;
position = "{119, 546}";
}
);
layerId = "9398AC28-6BE1-4A79-9C94-3CBC2F226CE7";
paths = (
{
closed = 1;
nodes = (
"194 0 LINE",
"194 546 LINE",
"44 546 LINE",
"44 0 LINE"
);
}
);
width = 238;
},
{
anchors = (
{
name = bottom;
position = "{92, 0}";
},
{
name = ogonek;
position = "{103, 0}";
},
{
name = top;
position = "{92, 526}";
}
);
layerId = "C1DB0BE6-5704-4A8C-8C00-D80E72C16D98";
paths = (
{
closed = 1;
nodes = (
"115 0 LINE",
"115 526 LINE",
"70 526 LINE",
"70 0 LINE"
);
}
);
width = 185;
}
);
leftKerningGroup = i;
leftMetricsKey = "=i*.8";
rightKerningGroup = i;
rightMetricsKey = "=i*.8";
unicode = 0131;
},
{
glyphname = idotless.ss01;
lastChange = "2021-11-11 09:56:06 +0000";
layers = (
{
anchors = (
{
name = bottom;
position = "{144, 0}";
},
{
name = ogonek;
position = "{164, 0}";
},
{
name = top;
position = "{144, 536}";
}
);
layerId = "30C2FD74-1A74-41AC-9C29-B288AE1DBDD7";
paths = (
{
closed = 1;
nodes = (
"181 0 LINE",
"181 536 LINE",
"31 536 LINE",
"31 461 LINE",
"106 461 LINE",
"106 0 LINE"
);
}
);
width = 243;
},
{
anchors = (
{
name = bottom;
position = "{187, 0}";
},
{
name = ogonek;
position = "{207, 0}";
},
{
name = top;
position = "{187, 546}";
}
);
layerId = "9398AC28-6BE1-4A79-9C94-3CBC2F226CE7";
paths = (
{
closed = 1;
nodes = (
"262 0 LINE",
"262 546 LINE",
"22 546 LINE",
"22 416 LINE",
"112 416 LINE",
"112 0 LINE"
);
}
);
width = 306;
},
{
anchors = (
{
name = bottom;
position = "{123, 0}";
},
{
name = ogonek;
position = "{133, 0}";
},
{
name = top;
position = "{123, 526}";
}
);
layerId = "C1DB0BE6-5704-4A8C-8C00-D80E72C16D98";
paths = (
{
closed = 1;
nodes = (
"145 0 LINE",
"145 526 LINE",
"35 526 LINE",
"35 481 LINE",
"100 481 LINE",
"100 0 LINE"
);
}
);
width = 215;
}
);
leftKerningGroup = i;
leftMetricsKey = "=idotless/2";
rightKerningGroup = i;
rightMetricsKey = "=idotless";
},
{
glyphname = idotless.wide;
lastChange = "2021-11-11 10:27:33 +0000";
layers = (
{
anchors = (
{
name = bottom;
position = "{134, 0}";
},
{
name = ogonek;
position = "{155, 0}";
},
{
name = top;
position = "{134, 536}";
}
);
layerId = "30C2FD74-1A74-41AC-9C29-B288AE1DBDD7";
paths = (
{
closed = 1;
nodes = (
"172 0 LINE",
"172 536 LINE",
"97 536 LINE",
"97 0 LINE"
);
}
);
width = 269;
},
{
anchors = (
{
name = bottom;
position = "{150, 0}";
},
{
name = ogonek;
position = "{170, 0}";
},
{
name = top;
position = "{150, 546}";
}
);
layerId = "9398AC28-6BE1-4A79-9C94-3CBC2F226CE7";
paths = (
{
closed = 1;
nodes = (
"225 0 LINE",
"225 546 LINE",
"75 546 LINE",
"75 0 LINE"
);
}
);
width = 300;
},
{
anchors = (
{
name = bottom;
position = "{130, 0}";
},
{
name = ogonek;
position = "{141, 0}";
},
{
name = top;
position = "{130, 526}";
}
);
layerId = "C1DB0BE6-5704-4A8C-8C00-D80E72C16D98";
paths = (
{
closed = 1;
nodes = (
"153 0 LINE",
"153 526 LINE",
"108 526 LINE",
"108 0 LINE"
);
}
);
width = 261;
}
);
leftKerningGroup = i;
leftMetricsKey = "=i+20";
rightKerningGroup = i;
rightMetricsKey = "=i+20";
},
{
glyphname = j;
lastChange = "2021-11-11 10:51:28 +0000";
layers = (
{
layerId = "30C2FD74-1A74-41AC-9C29-B288AE1DBDD7";
paths = (
{
closed = 1;
nodes = (
"72 -220 OFFCURVE",
"152 -161 OFFCURVE",
"152 -50 CURVE SMOOTH",
"152 536 LINE",
"77 536 LINE",
"77 -50 LINE SMOOTH",
"77 -117 OFFCURVE",
"33 -150 OFFCURVE",
"-21 -150 CURVE SMOOTH",
"-34 -150 OFFCURVE",
"-49 -149 OFFCURVE",
"-63 -147 CURVE",
"-63 -216 LINE",
"-53 -219 OFFCURVE",
"-32 -220 OFFCURVE",
"-23 -220 CURVE SMOOTH"
);
},
{
closed = 1;
nodes = (
"152 635 LINE",
"152 745 LINE",
"77 745 LINE",
"77 635 LINE"
);
}
);
width = 229;
},
{
layerId = "9398AC28-6BE1-4A79-9C94-3CBC2F226CE7";
paths = (
{
closed = 1;
nodes = (
"125 -222 OFFCURVE",
"205 -149 OFFCURVE",
"205 -20 CURVE SMOOTH",
"205 546 LINE",
"55 546 LINE",
"55 -20 LINE SMOOTH",
"55 -68 OFFCURVE",
"26 -92 OFFCURVE",
"-31 -92 CURVE SMOOTH",
"-43 -92 OFFCURVE",
"-54 -91 OFFCURVE",
"-65 -89 CURVE",
"-65 -217 LINE",
"-52 -220 OFFCURVE",
"-31 -222 OFFCURVE",
"-11 -222 CURVE SMOOTH"
);
},
{
closed = 1;
nodes = (
"205 595 LINE",
"205 745 LINE",
"55 745 LINE",
"55 595 LINE"
);
}
);
width = 260;
},
{
layerId = "C1DB0BE6-5704-4A8C-8C00-D80E72C16D98";
paths = (
{
closed = 1;
nodes = (
"73 -220 OFFCURVE",
"133 -165 OFFCURVE",
"133 -62 CURVE SMOOTH",
"133 526 LINE",
"88 526 LINE",
"88 -62 LINE SMOOTH",
"88 -137 OFFCURVE",
"48 -177 OFFCURVE",
"-21 -177 CURVE SMOOTH",
"-32 -177 OFFCURVE",
"-46 -176 OFFCURVE",
"-57 -174 CURVE",
"-57 -215 LINE",
"-47 -218 OFFCURVE",
"-34 -220 OFFCURVE",
"-18 -220 CURVE SMOOTH"
);
},
{
closed = 1;
nodes = (
"133 635 LINE",
"133 745 LINE",
"88 745 LINE",
"88 635 LINE"
);
}
);
width = 221;
}
);
leftKerningGroup = j;
rightKerningGroup = j;
unicode = 006A;
},
{
glyphname = j.ss01;
lastChange = "2021-11-10 04:04:52 +0000";
layers = (
{
layerId = "30C2FD74-1A74-41AC-9C29-B288AE1DBDD7";
paths = (
{
closed = 1;
nodes = (
"132 -220 LINE",
"132 536 LINE",
"57 536 LINE",
"57 -150 LINE",
"-63 -150 LINE",
"-63 -220 LINE"
);
},
{
closed = 1;
nodes = (
"132 635 LINE",
"132 745 LINE",
"57 745 LINE",
"57 635 LINE"
);
}
);
width = 209;
},
{
layerId = "9398AC28-6BE1-4A79-9C94-3CBC2F226CE7";
paths = (
{
closed = 1;
nodes = (
"195 -222 LINE",
"195 546 LINE",
"45 546 LINE",
"45 -92 LINE",
"-65 -92 LINE",
"-65 -222 LINE"
);
},
{
closed = 1;
nodes = (
"195 595 LINE",
"195 745 LINE",
"45 745 LINE",
"45 595 LINE"
);
}
);
width = 250;
},
{
layerId = "C1DB0BE6-5704-4A8C-8C00-D80E72C16D98";
paths = (
{
closed = 1;
nodes = (
"113 -220 LINE",
"113 526 LINE",
"68 526 LINE",
"68 -180 LINE",
"-57 -180 LINE",
"-57 -220 LINE"
);
},
{
closed = 1;
nodes = (
"113 635 LINE",
"113 745 LINE",
"68 745 LINE",
"68 635 LINE"
);
}
);
width = 201;
}
);
leftKerningGroup = j;
leftMetricsKey = "=j";
rightKerningGroup = j;
rightMetricsKey = "=j";
},
{
glyphname = j.ss02;
lastChange = "2021-11-10 04:04:52 +0000";
layers = (
{
layerId = "30C2FD74-1A74-41AC-9C29-B288AE1DBDD7";
paths = (
{
closed = 1;
nodes = (
"104 -220 OFFCURVE",
"184 -161 OFFCURVE",
"184 -50 CURVE SMOOTH",
"184 536 LINE",
"34 536 LINE",
"34 461 LINE",
"109 461 LINE",
"109 -50 LINE SMOOTH",
"109 -117 OFFCURVE",
"65 -150 OFFCURVE",
"11 -150 CURVE SMOOTH",
"-3 -150 OFFCURVE",
"-18 -149 OFFCURVE",
"-32 -147 CURVE",
"-32 -216 LINE",
"-22 -219 OFFCURVE",
"-1 -220 OFFCURVE",
"9 -220 CURVE SMOOTH"
);
},
{
closed = 1;
nodes = (
"184 635 LINE",
"184 745 LINE",
"109 745 LINE",
"109 635 LINE"
);
}
);
width = 261;
},
{
layerId = "9398AC28-6BE1-4A79-9C94-3CBC2F226CE7";
paths = (
{
closed = 1;
nodes = (
"158 -222 OFFCURVE",
"238 -149 OFFCURVE",
"238 -20 CURVE SMOOTH",
"238 546 LINE",
"-3 546 LINE",
"-3 416 LINE",
"88 416 LINE",
"88 -20 LINE SMOOTH",
"88 -68 OFFCURVE",
"59 -92 OFFCURVE",
"2 -92 CURVE SMOOTH",
"-11 -92 OFFCURVE",
"-22 -91 OFFCURVE",
"-33 -89 CURVE",
"-33 -217 LINE",
"-20 -220 OFFCURVE",
"2 -222 OFFCURVE",
"22 -222 CURVE SMOOTH"
);
},
{
closed = 1;
nodes = (
"238 595 LINE",
"238 745 LINE",
"88 745 LINE",
"88 595 LINE"
);
}
);
width = 293;
},
{
layerId = "C1DB0BE6-5704-4A8C-8C00-D80E72C16D98";
paths = (
{
closed = 1;
nodes = (
"102 -220 OFFCURVE",
"162 -165 OFFCURVE",
"162 -62 CURVE SMOOTH",
"162 526 LINE",
"52 526 LINE",
"52 481 LINE",
"117 481 LINE",
"117 -62 LINE SMOOTH",
"117 -137 OFFCURVE",
"77 -177 OFFCURVE",
"8 -177 CURVE SMOOTH",
"-4 -177 OFFCURVE",
"-18 -176 OFFCURVE",
"-29 -174 CURVE",
"-29 -215 LINE",
"-19 -218 OFFCURVE",
"-6 -220 OFFCURVE",
"11 -220 CURVE SMOOTH"
);
},
{
closed = 1;
nodes = (
"162 635 LINE",
"162 745 LINE",
"117 745 LINE",
"117 635 LINE"
);
}
);
width = 250;
}
);
leftKerningGroup = j;
leftMetricsKey = "=j/2";
rightKerningGroup = j;
rightMetricsKey = "=j";
},
{
glyphname = jdotless;
lastChange = "2021-11-10 04:04:52 +0000";
layers = (
{
anchors = (
{
name = bottom;
position = "{111, -240}";
},
{
name = top;
position = "{111, 526}";
}
);
layerId = "C1DB0BE6-5704-4A8C-8C00-D80E72C16D98";
paths = (
{
closed = 1;
nodes = (
"73 -220 OFFCURVE",
"133 -165 OFFCURVE",
"133 -62 CURVE SMOOTH",
"133 526 LINE",
"88 526 LINE",
"88 -62 LINE SMOOTH",
"88 -137 OFFCURVE",
"48 -177 OFFCURVE",
"-21 -177 CURVE SMOOTH",
"-32 -177 OFFCURVE",
"-46 -176 OFFCURVE",
"-57 -174 CURVE",
"-57 -215 LINE",
"-47 -218 OFFCURVE",
"-34 -220 OFFCURVE",
"-18 -220 CURVE SMOOTH"
);
}
);
width = 221;
},
{
anchors = (
{
name = bottom;
position = "{115, -240}";
},
{
name = top;
position = "{115, 536}";
}
);
layerId = "30C2FD74-1A74-41AC-9C29-B288AE1DBDD7";
paths = (
{
closed = 1;
nodes = (
"72 -220 OFFCURVE",
"152 -161 OFFCURVE",
"152 -50 CURVE SMOOTH",
"152 536 LINE",
"77 536 LINE",
"77 -50 LINE SMOOTH",
"77 -117 OFFCURVE",
"33 -150 OFFCURVE",
"-21 -150 CURVE SMOOTH",
"-34 -150 OFFCURVE",
"-49 -149 OFFCURVE",
"-63 -147 CURVE",
"-63 -216 LINE",
"-53 -219 OFFCURVE",
"-32 -220 OFFCURVE",
"-23 -220 CURVE SMOOTH"
);
}
);
width = 229;
},
{
anchors = (
{
name = bottom;
position = "{130, -240}";
},
{
name = top;
position = "{130, 546}";
}
);
layerId = "9398AC28-6BE1-4A79-9C94-3CBC2F226CE7";
paths = (
{
closed = 1;
nodes = (
"125 -222 OFFCURVE",
"205 -149 OFFCURVE",
"205 -20 CURVE SMOOTH",
"205 546 LINE",
"55 546 LINE",
"55 -20 LINE SMOOTH",
"55 -68 OFFCURVE",
"26 -92 OFFCURVE",
"-31 -92 CURVE SMOOTH",
"-43 -92 OFFCURVE",
"-54 -91 OFFCURVE",
"-65 -89 CURVE",
"-65 -217 LINE",
"-52 -220 OFFCURVE",
"-31 -222 OFFCURVE",
"-11 -222 CURVE SMOOTH"
);
}
);
width = 260;
}
);
leftKerningGroup = i;
rightKerningGroup = j;
unicode = 0237;
},
{
glyphname = jdotless.ss01;
lastChange = "2021-11-10 04:04:52 +0000";
layers = (
{
anchors = (
{
name = bottom;
position = "{105, -240}";
},
{
name = top;
position = "{95, 536}";
}
);
layerId = "30C2FD74-1A74-41AC-9C29-B288AE1DBDD7";
paths = (
{
closed = 1;
nodes = (
"132 -220 LINE",
"132 536 LINE",
"57 536 LINE",
"57 -150 LINE",
"-63 -150 LINE",
"-63 -220 LINE"
);
}
);
width = 209;
},
{
anchors = (
{
name = bottom;
position = "{125, -240}";
},
{
name = top;
position = "{120, 546}";
}
);
layerId = "9398AC28-6BE1-4A79-9C94-3CBC2F226CE7";
paths = (
{
closed = 1;
nodes = (
"195 -222 LINE",
"195 546 LINE",
"45 546 LINE",
"45 -92 LINE",
"-65 -92 LINE",
"-65 -222 LINE"
);
}
);
width = 250;
},
{
anchors = (
{
name = bottom;
position = "{101, -240}";
},
{
name = top;
position = "{91, 526}";
}
);
layerId = "C1DB0BE6-5704-4A8C-8C00-D80E72C16D98";
paths = (
{
closed = 1;
nodes = (
"113 -220 LINE",
"113 526 LINE",
"68 526 LINE",
"68 -180 LINE",
"-57 -180 LINE",
"-57 -220 LINE"
);
}
);
width = 201;
}
);
leftKerningGroup = i;
leftMetricsKey = "=j";
rightKerningGroup = j;
rightMetricsKey = "=j";
},
{
glyphname = jdotless.ss02;
lastChange = "2021-11-10 04:04:52 +0000";
layers = (
{
anchors = (
{
name = bottom;
position = "{157, -240}";
},
{
name = top;
position = "{157, 536}";
}
);
layerId = "30C2FD74-1A74-41AC-9C29-B288AE1DBDD7";
paths = (
{
closed = 1;
nodes = (
"114 -220 OFFCURVE",
"194 -161 OFFCURVE",
"194 -50 CURVE SMOOTH",
"194 536 LINE",
"44 536 LINE",
"44 461 LINE",
"119 461 LINE",
"119 -50 LINE SMOOTH",
"119 -117 OFFCURVE",
"75 -150 OFFCURVE",
"21 -150 CURVE SMOOTH",
"8 -150 OFFCURVE",
"-7 -149 OFFCURVE",
"-21 -147 CURVE",
"-21 -216 LINE",
"-11 -219 OFFCURVE",
"10 -220 OFFCURVE",
"19 -220 CURVE SMOOTH"
);
}
);
width = 271;
},
{
anchors = (
{
name = bottom;
position = "{173, -240}";
},
{
name = top;
position = "{173, 546}";
}
);
layerId = "9398AC28-6BE1-4A79-9C94-3CBC2F226CE7";
paths = (
{
closed = 1;
nodes = (
"168 -222 OFFCURVE",
"248 -149 OFFCURVE",
"248 -20 CURVE SMOOTH",
"248 546 LINE",
"8 546 LINE",
"8 416 LINE",
"98 416 LINE",
"98 -20 LINE SMOOTH",
"98 -68 OFFCURVE",
"69 -92 OFFCURVE",
"12 -92 CURVE SMOOTH",
"0 -92 OFFCURVE",
"-11 -91 OFFCURVE",
"-22 -89 CURVE",
"-22 -217 LINE",
"-9 -220 OFFCURVE",
"12 -222 OFFCURVE",
"32 -222 CURVE SMOOTH"
);
}
);
width = 303;
},
{
anchors = (
{
name = bottom;
position = "{149, -240}";
},
{
name = top;
position = "{149, 526}";
}
);
layerId = "C1DB0BE6-5704-4A8C-8C00-D80E72C16D98";
paths = (
{
closed = 1;
nodes = (
"111 -220 OFFCURVE",
"171 -165 OFFCURVE",
"171 -62 CURVE SMOOTH",
"171 526 LINE",
"61 526 LINE",
"61 481 LINE",
"126 481 LINE",
"126 -62 LINE SMOOTH",
"126 -137 OFFCURVE",
"86 -177 OFFCURVE",
"17 -177 CURVE SMOOTH",
"6 -177 OFFCURVE",
"-8 -176 OFFCURVE",
"-19 -174 CURVE",
"-19 -215 LINE",
"-9 -218 OFFCURVE",
"4 -220 OFFCURVE",
"20 -220 CURVE SMOOTH"
);
}
);
width = 259;
}
);
leftKerningGroup = i;
leftMetricsKey = "=j/3";
rightKerningGroup = j;
rightMetricsKey = "=j";
},
{
glyphname = k;
lastChange = "2021-11-10 09:09:40 +0000";
layers = (
{
anchors = (
{
name = bottom;
position = "{274, 0}";
},
{
name = top;
position = "{115, 745}";
}
);
layerId = "30C2FD74-1A74-41AC-9C29-B288AE1DBDD7";
paths = (
{
closed = 1;
nodes = (
"152 0 LINE",
"152 197 LINE",
"127 135 LINE",
"280 293 LINE",
"232 297 LINE",
"447 0 LINE",
"537 0 LINE",
"308 321 LINE",
"518 536 LINE",
"421 536 LINE",
"120 232 LINE",
"152 227 LINE",
"152 757 LINE",
"77 757 LINE",
"77 0 LINE"
);
}
);
width = 548;
},
{
anchors = (
{
name = bottom;
position = "{293, 0}";
},
{
name = top;
position = "{130, 745}";
}
);
layerId = "9398AC28-6BE1-4A79-9C94-3CBC2F226CE7";
paths = (
{
closed = 1;
nodes = (
"205 0 LINE",
"205 204 LINE",
"159 117 LINE",
"326 299 LINE",
"239 277 LINE",
"404 0 LINE",
"574 0 LINE",
"377 326 LINE",
"575 546 LINE",
"390 546 LINE",
"149 290 LINE",
"205 272 LINE",
"205 757 LINE",
"55 757 LINE",
"55 0 LINE"
);
}
);
width = 586;
},
{
anchors = (
{
name = bottom;
position = "{270, 0}";
},
{
name = top;
position = "{111, 745}";
}
);
layerId = "C1DB0BE6-5704-4A8C-8C00-D80E72C16D98";
paths = (
{
closed = 1;
nodes = (
"133 0 LINE",
"133 182 LINE",
"126 163 LINE",
"261 300 LINE",
"230 299 LINE",
"458 0 LINE",
"518 0 LINE",
"280 313 LINE",
"498 526 LINE",
"430 526 LINE",
"103 205 LINE",
"133 205 LINE",
"133 757 LINE",
"88 757 LINE",
"88 0 LINE"
);
}
);
width = 540;
}
);
leftKerningGroup = h;
rightKerningGroup = k;
unicode = 006B;
},
{
glyphname = k.ss01;
lastChange = "2021-11-10 04:04:52 +0000";
layers = (
{
layerId = "30C2FD74-1A74-41AC-9C29-B288AE1DBDD7";
paths = (
{
closed = 1;
nodes = (
"537 0 LINE",
"336 285 LINE",
"505 536 LINE",
"414 536 LINE",
"268 319 LINE",
"268 249 LINE",
"447 0 LINE"
);
},
{
closed = 1;
nodes = (
"152 0 LINE",
"152 757 LINE",
"77 757 LINE",
"77 0 LINE"
);
},
{
closed = 1;
nodes = (
"322 247 LINE",
"322 322 LINE",
"119 322 LINE",
"119 247 LINE"
);
}
);
width = 548;
},
{
layerId = "9398AC28-6BE1-4A79-9C94-3CBC2F226CE7";
paths = (
{
closed = 1;
nodes = (
"575 0 LINE",
"386 276 LINE",
"554 546 LINE",
"390 546 LINE",
"260 341 LINE",
"251 224 LINE",
"406 0 LINE"
);
},
{
closed = 1;
nodes = (
"205 0 LINE",
"205 757 LINE",
"55 757 LINE",
"55 0 LINE"
);
},
{
closed = 1;
nodes = (
"336 218 LINE",
"336 348 LINE",
"150 348 LINE",
"150 218 LINE"
);
}
);
width = 586;
},
{
layerId = "C1DB0BE6-5704-4A8C-8C00-D80E72C16D98";
paths = (
{
closed = 1;
nodes = (
"518 0 LINE",
"312 289 LINE",
"478 526 LINE",
"420 526 LINE",
"262 300 LINE",
"261 276 LINE",
"462 0 LINE"
);
},
{
closed = 1;
nodes = (
"133 0 LINE",
"133 757 LINE",
"88 757 LINE",
"88 0 LINE"
);
},
{
closed = 1;
nodes = (
"299 266 LINE",
"299 306 LINE",
"109 306 LINE",
"109 266 LINE"
);
}
);
width = 540;
}
);
leftKerningGroup = h;
leftMetricsKey = "=k";
rightKerningGroup = k;
rightMetricsKey = "=k";
},
{
glyphname = kgreenlandic;
lastChange = "2021-11-10 04:04:52 +0000";
layers = (
{
layerId = "C1DB0BE6-5704-4A8C-8C00-D80E72C16D98";
paths = (
{
closed = 1;
nodes = (
"518 0 LINE",
"312 289 LINE",
"478 526 LINE",
"420 526 LINE",
"262 300 LINE",
"261 276 LINE",
"462 0 LINE"
);
},
{
closed = 1;
nodes = (
"133 0 LINE",
"133 526 LINE",
"88 526 LINE",
"88 0 LINE"
);
},
{
closed = 1;
nodes = (
"299 266 LINE",
"299 306 LINE",
"109 306 LINE",
"109 266 LINE"
);
}
);
width = 540;
},
{
layerId = "30C2FD74-1A74-41AC-9C29-B288AE1DBDD7";
paths = (
{
closed = 1;
nodes = (
"537 0 LINE",
"336 285 LINE",
"505 536 LINE",
"414 536 LINE",
"268 319 LINE",
"268 249 LINE",
"447 0 LINE"
);
},
{
closed = 1;
nodes = (
"152 0 LINE",
"152 536 LINE",
"77 536 LINE",
"77 0 LINE"
);
},
{
closed = 1;
nodes = (
"322 247 LINE",
"322 322 LINE",
"119 322 LINE",
"119 247 LINE"
);
}
);
width = 548;
},
{
layerId = "9398AC28-6BE1-4A79-9C94-3CBC2F226CE7";
paths = (
{
closed = 1;
nodes = (
"575 0 LINE",
"386 276 LINE",
"554 546 LINE",
"390 546 LINE",
"260 341 LINE",
"251 224 LINE",
"406 0 LINE"
);
},
{
closed = 1;
nodes = (
"205 0 LINE",
"205 546 LINE",
"55 546 LINE",
"55 0 LINE"
);
},
{
closed = 1;
nodes = (
"336 218 LINE",
"336 348 LINE",
"150 348 LINE",
"150 218 LINE"
);
}
);
width = 586;
}
);
leftKerningGroup = n;
rightKerningGroup = k;
unicode = 0138;
},
{
glyphname = l;
lastChange = "2021-11-11 10:51:32 +0000";
layers = (
{
anchors = (
{
name = bottom;
position = "{115, 0}";
},
{
name = center;
position = "{115, 392}";
},
{
name = dot;
position = "{279, 372}";
},
{
name = top;
position = "{115, 745}";
},
{
name = topright;
position = "{229, 536}";
}
);
layerId = "30C2FD74-1A74-41AC-9C29-B288AE1DBDD7";
paths = (
{
closed = 1;
nodes = (
"152 0 LINE",
"152 757 LINE",
"77 757 LINE",
"77 0 LINE"
);
}
);
width = 229;
},
{
anchors = (
{
name = bottom;
position = "{130, 0}";
},
{
name = center;
position = "{130, 392}";
},
{
name = dot;
position = "{340, 372}";
},
{
name = top;
position = "{130, 745}";
},
{
name = topright;
position = "{260, 546}";
}
);
layerId = "9398AC28-6BE1-4A79-9C94-3CBC2F226CE7";
paths = (
{
closed = 1;
nodes = (
"205 0 LINE",
"205 757 LINE",
"55 757 LINE",
"55 0 LINE"
);
}
);
width = 260;
},
{
anchors = (
{
name = bottom;
position = "{111, 0}";
},
{
name = center;
position = "{111, 392}";
},
{
name = dot;
position = "{271, 372}";
},
{
name = top;
position = "{111, 745}";
},
{
name = topright;
position = "{221, 526}";
}
);
layerId = "C1DB0BE6-5704-4A8C-8C00-D80E72C16D98";
paths = (
{
closed = 1;
nodes = (
"133 0 LINE",
"133 757 LINE",
"88 757 LINE",
"88 0 LINE"
);
}
);
width = 221;
}
);
leftKerningGroup = l;
rightKerningGroup = l;
unicode = 006C;
},
{
glyphname = l.ss01;
lastChange = "2021-11-10 07:31:30 +0000";
layers = (
{
anchors = (
{
name = bottom;
position = "{115, 0}";
},
{
name = center;
position = "{115, 392}";
},
{
name = dot;
position = "{279, 372}";
},
{
name = top;
position = "{115, 745}";
},
{
name = topright;
position = "{229, 536}";
}
);
layerId = "30C2FD74-1A74-41AC-9C29-B288AE1DBDD7";
paths = (
{
closed = 1;
nodes = (
"227 0 LINE",
"227 70 LINE",
"152 70 LINE",
"152 757 LINE",
"77 757 LINE",
"77 0 LINE"
);
}
);
width = 266;
},
{
anchors = (
{
name = bottom;
position = "{130, 0}";
},
{
name = center;
position = "{130, 392}";
},
{
name = dot;
position = "{340, 372}";
},
{
name = top;
position = "{130, 745}";
},
{
name = topright;
position = "{260, 546}";
}
);
layerId = "9398AC28-6BE1-4A79-9C94-3CBC2F226CE7";
paths = (
{
closed = 1;
nodes = (
"275 0 LINE",
"275 130 LINE",
"205 130 LINE",
"205 757 LINE",
"55 757 LINE",
"55 0 LINE"
);
}
);
width = 303;
},
{
anchors = (
{
name = bottom;
position = "{111, 0}";
},
{
name = center;
position = "{111, 392}";
},
{
name = dot;
position = "{271, 372}";
},
{
name = top;
position = "{111, 745}";
},
{
name = topright;
position = "{221, 526}";
}
);
layerId = "C1DB0BE6-5704-4A8C-8C00-D80E72C16D98";
paths = (
{
closed = 1;
nodes = (
"208 0 LINE",
"208 40 LINE",
"133 40 LINE",
"133 757 LINE",
"88 757 LINE",
"88 0 LINE"
);
}
);
width = 252;
}
);
leftKerningGroup = l;
leftMetricsKey = "=l";
rightKerningGroup = l;
rightMetricsKey = "=l/2";
},
{
glyphname = l.ss03;
lastChange = "2021-11-10 07:31:48 +0000";
layers = (
{
anchors = (
{
name = bottom;
position = "{115, 0}";
},
{
name = center;
position = "{115, 392}";
},
{
name = dot;
position = "{279, 372}";
},
{
name = top;
position = "{115, 745}";
},
{
name = topright;
position = "{229, 536}";
}
);
layerId = "30C2FD74-1A74-41AC-9C29-B288AE1DBDD7";
paths = (
{
closed = 1;
nodes = (
"227 -6 LINE",
"227 59 LINE",
"218 59 LINE SMOOTH",
"176 59 OFFCURVE",
"152 79 OFFCURVE",
"152 120 CURVE SMOOTH",
"152 757 LINE",
"77 757 LINE",
"77 114 LINE SMOOTH",
"77 35 OFFCURVE",
"125 -6 OFFCURVE",
"210 -6 CURVE SMOOTH"
);
}
);
width = 266;
},
{
anchors = (
{
name = bottom;
position = "{130, 0}";
},
{
name = center;
position = "{130, 392}";
},
{
name = dot;
position = "{340, 372}";
},
{
name = top;
position = "{130, 745}";
},
{
name = topright;
position = "{260, 546}";
}
);
layerId = "9398AC28-6BE1-4A79-9C94-3CBC2F226CE7";
paths = (
{
closed = 1;
nodes = (
"275 -6 LINE",
"275 124 LINE",
"271 124 LINE SMOOTH",
"228 124 OFFCURVE",
"205 145 OFFCURVE",
"205 185 CURVE SMOOTH",
"205 757 LINE",
"55 757 LINE",
"55 174 LINE SMOOTH",
"55 50 OFFCURVE",
"115 -6 OFFCURVE",
"248 -6 CURVE SMOOTH"
);
}
);
width = 303;
},
{
anchors = (
{
name = bottom;
position = "{111, 0}";
},
{
name = center;
position = "{111, 392}";
},
{
name = dot;
position = "{271, 372}";
},
{
name = top;
position = "{111, 745}";
},
{
name = topright;
position = "{221, 526}";
}
);
layerId = "C1DB0BE6-5704-4A8C-8C00-D80E72C16D98";
paths = (
{
closed = 1;
nodes = (
"208 -6 LINE",
"208 34 LINE",
"199 34 LINE SMOOTH",
"155 34 OFFCURVE",
"133 54 OFFCURVE",
"133 94 CURVE SMOOTH",
"133 757 LINE",
"88 757 LINE",
"88 94 LINE SMOOTH",
"88 32 OFFCURVE",
"122 -6 OFFCURVE",
"197 -6 CURVE SMOOTH"
);
}
);
width = 252;
}
);
leftKerningGroup = l;
leftMetricsKey = "=l";
rightKerningGroup = l;
rightMetricsKey = "=l/2";
},
{
glyphname = m;
lastChange = "2021-11-10 04:04:52 +0000";
layers = (
{
anchors = (
{
name = bottom;
position = "{454, 0}";
},
{
name = top;
position = "{454, 536}";
}
);
layerId = "30C2FD74-1A74-41AC-9C29-B288AE1DBDD7";
paths = (
{
closed = 1;
nodes = (
"152 0 LINE",
"152 319 LINE SMOOTH",
"152 415 OFFCURVE",
"211 473 OFFCURVE",
"288 473 CURVE SMOOTH",
"365 473 OFFCURVE",
"422 416 OFFCURVE",
"422 319 CURVE SMOOTH",
"422 0 LINE",
"497 0 LINE",
"497 319 LINE SMOOTH",
"497 415 OFFCURVE",
"556 473 OFFCURVE",
"633 473 CURVE SMOOTH",
"710 473 OFFCURVE",
"767 416 OFFCURVE",
"767 319 CURVE SMOOTH",
"767 0 LINE",
"842 0 LINE",
"842 348 LINE SMOOTH",
"842 462 OFFCURVE",
"750 548 OFFCURVE",
"642 548 CURVE SMOOTH",
"562 548 OFFCURVE",
"490 503 OFFCURVE",
"463 421 CURVE",
"484 422 LINE",
"456 497 OFFCURVE",
"384 548 OFFCURVE",
"301 548 CURVE SMOOTH",
"231 548 OFFCURVE",
"169 511 OFFCURVE",
"140 449 CURVE",
"152 434 LINE",
"152 536 LINE",
"77 536 LINE",
"77 0 LINE"
);
}
);
width = 908;
},
{
anchors = (
{
name = bottom;
position = "{465, 0}";
},
{
name = top;
position = "{465, 546}";
}
);
layerId = "9398AC28-6BE1-4A79-9C94-3CBC2F226CE7";
paths = (
{
closed = 1;
nodes = (
"205 0 LINE",
"205 319 LINE SMOOTH",
"205 382 OFFCURVE",
"241 423 OFFCURVE",
"300 423 CURVE SMOOTH",
"359 423 OFFCURVE",
"395 382 OFFCURVE",
"395 319 CURVE SMOOTH",
"395 0 LINE",
"545 0 LINE",
"545 319 LINE SMOOTH",
"545 382 OFFCURVE",
"581 423 OFFCURVE",
"640 423 CURVE SMOOTH",
"699 423 OFFCURVE",
"735 382 OFFCURVE",
"735 319 CURVE SMOOTH",
"735 0 LINE",
"885 0 LINE",
"885 351 LINE SMOOTH",
"885 475 OFFCURVE",
"801 558 OFFCURVE",
"683 558 CURVE SMOOTH",
"594 558 OFFCURVE",
"525 516 OFFCURVE",
"489 427 CURVE",
"532 431 LINE",
"514 508 OFFCURVE",
"439 558 OFFCURVE",
"348 558 CURVE SMOOTH",
"262 558 OFFCURVE",
"196 519 OFFCURVE",
"180 435 CURVE",
"195 413 LINE",
"195 546 LINE",
"55 546 LINE",
"55 0 LINE"
);
}
);
width = 929;
},
{
anchors = (
{
name = bottom;
position = "{455, 0}";
},
{
name = top;
position = "{455, 526}";
}
);
layerId = "C1DB0BE6-5704-4A8C-8C00-D80E72C16D98";
paths = (
{
closed = 1;
nodes = (
"133 0 LINE",
"133 320 LINE SMOOTH",
"133 417 OFFCURVE",
"191 495 OFFCURVE",
"286 495 CURVE SMOOTH",
"368 495 OFFCURVE",
"438 435 OFFCURVE",
"438 340 CURVE SMOOTH",
"438 0 LINE",
"483 0 LINE",
"483 320 LINE SMOOTH",
"483 417 OFFCURVE",
"541 495 OFFCURVE",
"636 495 CURVE SMOOTH",
"718 495 OFFCURVE",
"788 435 OFFCURVE",
"788 340 CURVE SMOOTH",
"788 0 LINE",
"833 0 LINE",
"833 345 LINE SMOOTH",
"833 461 OFFCURVE",
"741 538 OFFCURVE",
"640 538 CURVE SMOOTH",
"553 538 OFFCURVE",
"478 483 OFFCURVE",
"459 403 CURVE",
"475 403 LINE",
"450 485 OFFCURVE",
"373 538 OFFCURVE",
"290 538 CURVE SMOOTH",
"213 538 OFFCURVE",
"147 494 OFFCURVE",
"124 428 CURVE",
"133 413 LINE",
"133 526 LINE",
"88 526 LINE",
"88 0 LINE"
);
}
);
width = 910;
}
);
leftKerningGroup = n;
rightKerningGroup = n;
unicode = 006D;
},
{
glyphname = m.ss01;
lastChange = "2021-11-10 04:04:52 +0000";
layers = (
{
layerId = "30C2FD74-1A74-41AC-9C29-B288AE1DBDD7";
paths = (
{
closed = 1;
nodes = (
"152 0 LINE",
"152 461 LINE",
"422 461 LINE",
"422 0 LINE",
"497 0 LINE",
"497 461 LINE",
"767 461 LINE",
"767 0 LINE",
"842 0 LINE",
"842 536 LINE",
"77 536 LINE",
"77 0 LINE"
);
}
);
width = 908;
},
{
layerId = "9398AC28-6BE1-4A79-9C94-3CBC2F226CE7";
paths = (
{
closed = 1;
nodes = (
"205 0 LINE",
"205 416 LINE",
"395 416 LINE",
"395 0 LINE",
"545 0 LINE",
"545 416 LINE",
"735 416 LINE",
"735 0 LINE",
"885 0 LINE",
"885 546 LINE",
"55 546 LINE",
"55 0 LINE"
);
}
);
width = 929;
},
{
layerId = "C1DB0BE6-5704-4A8C-8C00-D80E72C16D98";
paths = (
{
closed = 1;
nodes = (
"133 0 LINE",
"133 486 LINE",
"438 486 LINE",
"438 0 LINE",
"483 0 LINE",
"483 486 LINE",
"788 486 LINE",
"788 0 LINE",
"833 0 LINE",
"833 526 LINE",
"88 526 LINE",
"88 0 LINE"
);
}
);
width = 910;
}
);
leftKerningGroup = n;
leftMetricsKey = "=n";
rightKerningGroup = n;
rightMetricsKey = "=n";
},
{
glyphname = m.ss03;
lastChange = "2021-11-10 04:04:52 +0000";
layers = (
{
anchors = (
{
name = bottom;
position = "{454, 0}";
},
{
name = top;
position = "{454, 536}";
}
);
layerId = "30C2FD74-1A74-41AC-9C29-B288AE1DBDD7";
paths = (
{
closed = 1;
nodes = (
"152 0 LINE",
"152 461 LINE",
"422 461 LINE",
"422 0 LINE",
"497 0 LINE",
"497 461 LINE",
"630 461 LINE SMOOTH",
"716 461 OFFCURVE",
"767 411 OFFCURVE",
"767 327 CURVE SMOOTH",
"767 0 LINE",
"842 0 LINE",
"842 327 LINE SMOOTH",
"842 458 OFFCURVE",
"763 536 OFFCURVE",
"630 536 CURVE SMOOTH",
"77 536 LINE",
"77 0 LINE"
);
}
);
width = 908;
},
{
anchors = (
{
name = bottom;
position = "{465, 0}";
},
{
name = top;
position = "{465, 546}";
}
);
layerId = "9398AC28-6BE1-4A79-9C94-3CBC2F226CE7";
paths = (
{
closed = 1;
nodes = (
"205 0 LINE",
"205 416 LINE",
"395 416 LINE",
"395 0 LINE",
"545 0 LINE",
"545 416 LINE",
"644 416 LINE SMOOTH",
"699 416 OFFCURVE",
"735 380 OFFCURVE",
"735 324 CURVE SMOOTH",
"735 0 LINE",
"885 0 LINE",
"885 332 LINE SMOOTH",
"885 464 OFFCURVE",
"793 546 OFFCURVE",
"644 546 CURVE SMOOTH",
"55 546 LINE",
"55 0 LINE"
);
}
);
width = 929;
},
{
anchors = (
{
name = bottom;
position = "{455, 0}";
},
{
name = top;
position = "{455, 526}";
}
);
layerId = "C1DB0BE6-5704-4A8C-8C00-D80E72C16D98";
paths = (
{
closed = 1;
nodes = (
"133 0 LINE",
"133 486 LINE",
"438 486 LINE",
"438 0 LINE",
"483 0 LINE",
"483 486 LINE",
"644 486 LINE SMOOTH",
"730 486 OFFCURVE",
"788 426 OFFCURVE",
"788 337 CURVE SMOOTH",
"788 0 LINE",
"833 0 LINE",
"833 337 LINE SMOOTH",
"833 450 OFFCURVE",
"757 526 OFFCURVE",
"644 526 CURVE SMOOTH",
"88 526 LINE",
"88 0 LINE"
);
}
);
width = 910;
}
);
leftKerningGroup = n;
leftMetricsKey = "=n";
rightKerningGroup = n;
rightMetricsKey = "=n";
},
{
glyphname = n;
lastChange = "2021-11-10 04:04:52 +0000";
layers = (
{
anchors = (
{
name = bottom;
position = "{287, 0}";
},
{
name = top;
position = "{287, 536}";
}
);
layerId = "30C2FD74-1A74-41AC-9C29-B288AE1DBDD7";
paths = (
{
closed = 1;
nodes = (
"152 0 LINE",
"152 319 LINE SMOOTH",
"152 415 OFFCURVE",
"211 473 OFFCURVE",
"293 473 CURVE SMOOTH",
"375 473 OFFCURVE",
"432 416 OFFCURVE",
"432 319 CURVE SMOOTH",
"432 0 LINE",
"507 0 LINE",
"507 348 LINE SMOOTH",
"507 462 OFFCURVE",
"419 548 OFFCURVE",
"306 548 CURVE SMOOTH",
"226 548 OFFCURVE",
"161 505 OFFCURVE",
"135 436 CURVE",
"152 432 LINE",
"152 536 LINE",
"77 536 LINE",
"77 0 LINE"
);
}
);
width = 573;
},
{
anchors = (
{
name = bottom;
position = "{300, 0}";
},
{
name = top;
position = "{300, 546}";
}
);
layerId = "9398AC28-6BE1-4A79-9C94-3CBC2F226CE7";
paths = (
{
closed = 1;
nodes = (
"205 0 LINE",
"205 319 LINE SMOOTH",
"205 382 OFFCURVE",
"246 423 OFFCURVE",
"305 423 CURVE SMOOTH",
"364 423 OFFCURVE",
"405 382 OFFCURVE",
"405 319 CURVE SMOOTH",
"405 0 LINE",
"555 0 LINE",
"555 351 LINE SMOOTH",
"555 475 OFFCURVE",
"471 558 OFFCURVE",
"348 558 CURVE SMOOTH",
"272 558 OFFCURVE",
"212 527 OFFCURVE",
"187 462 CURVE",
"195 438 LINE",
"195 546 LINE",
"55 546 LINE",
"55 0 LINE"
);
}
);
width = 599;
},
{
anchors = (
{
name = bottom;
position = "{285, 0}";
},
{
name = top;
position = "{285, 526}";
}
);
layerId = "C1DB0BE6-5704-4A8C-8C00-D80E72C16D98";
paths = (
{
closed = 1;
nodes = (
"133 0 LINE",
"133 320 LINE SMOOTH",
"133 417 OFFCURVE",
"191 495 OFFCURVE",
"291 495 CURVE SMOOTH",
"378 495 OFFCURVE",
"448 435 OFFCURVE",
"448 340 CURVE SMOOTH",
"448 0 LINE",
"493 0 LINE",
"493 345 LINE SMOOTH",
"493 461 OFFCURVE",
"401 538 OFFCURVE",
"295 538 CURVE SMOOTH",
"211 538 OFFCURVE",
"142 490 OFFCURVE",
"121 420 CURVE",
"133 415 LINE",
"133 526 LINE",
"88 526 LINE",
"88 0 LINE"
);
}
);
width = 570;
}
);
leftKerningGroup = n;
rightKerningGroup = n;
unicode = 006E;
},
{
glyphname = n.ss01;
lastChange = "2021-11-10 04:04:52 +0000";
layers = (
{
anchors = (
{
name = bottom;
position = "{292, 0}";
},
{
name = top;
position = "{292, 536}";
}
);
layerId = "30C2FD74-1A74-41AC-9C29-B288AE1DBDD7";
paths = (
{
closed = 1;
nodes = (
"152 0 LINE",
"152 461 LINE",
"432 461 LINE",
"432 0 LINE",
"507 0 LINE",
"507 536 LINE",
"77 536 LINE",
"77 0 LINE"
);
}
);
width = 584;
},
{
anchors = (
{
name = bottom;
position = "{305, 0}";
},
{
name = top;
position = "{305, 546}";
}
);
layerId = "9398AC28-6BE1-4A79-9C94-3CBC2F226CE7";
paths = (
{
closed = 1;
nodes = (
"205 0 LINE",
"205 416 LINE",
"405 416 LINE",
"405 0 LINE",
"555 0 LINE",
"555 546 LINE",
"55 546 LINE",
"55 0 LINE"
);
}
);
width = 610;
},
{
anchors = (
{
name = bottom;
position = "{291, 0}";
},
{
name = top;
position = "{291, 526}";
}
);
layerId = "C1DB0BE6-5704-4A8C-8C00-D80E72C16D98";
paths = (
{
closed = 1;
nodes = (
"133 0 LINE",
"133 486 LINE",
"448 486 LINE",
"448 0 LINE",
"493 0 LINE",
"493 526 LINE",
"88 526 LINE",
"88 0 LINE"
);
}
);
width = 581;
}
);
leftKerningGroup = n;
leftMetricsKey = "=n";
rightKerningGroup = n;
rightMetricsKey = "=|n";
},
{
glyphname = n.ss03;
lastChange = "2021-11-10 04:04:52 +0000";
layers = (
{
anchors = (
{
name = bottom;
position = "{287, 0}";
},
{
name = top;
position = "{287, 536}";
}
);
layerId = "30C2FD74-1A74-41AC-9C29-B288AE1DBDD7";
paths = (
{
closed = 1;
nodes = (
"152 0 LINE",
"152 461 LINE",
"295 461 LINE SMOOTH",
"381 461 OFFCURVE",
"432 411 OFFCURVE",
"432 327 CURVE SMOOTH",
"432 0 LINE",
"507 0 LINE",
"507 327 LINE SMOOTH",
"507 458 OFFCURVE",
"428 536 OFFCURVE",
"295 536 CURVE SMOOTH",
"77 536 LINE",
"77 0 LINE"
);
}
);
width = 573;
},
{
anchors = (
{
name = bottom;
position = "{300, 0}";
},
{
name = top;
position = "{300, 546}";
}
);
layerId = "9398AC28-6BE1-4A79-9C94-3CBC2F226CE7";
paths = (
{
closed = 1;
nodes = (
"205 0 LINE",
"205 416 LINE",
"314 416 LINE SMOOTH",
"369 416 OFFCURVE",
"405 380 OFFCURVE",
"405 324 CURVE SMOOTH",
"405 0 LINE",
"555 0 LINE",
"555 332 LINE SMOOTH",
"555 464 OFFCURVE",
"463 546 OFFCURVE",
"314 546 CURVE SMOOTH",
"55 546 LINE",
"55 0 LINE"
);
}
);
width = 599;
},
{
anchors = (
{
name = bottom;
position = "{285, 0}";
},
{
name = top;
position = "{285, 526}";
}
);
layerId = "C1DB0BE6-5704-4A8C-8C00-D80E72C16D98";
paths = (
{
closed = 1;
nodes = (
"133 0 LINE",
"133 486 LINE",
"304 486 LINE SMOOTH",
"390 486 OFFCURVE",
"448 426 OFFCURVE",
"448 337 CURVE SMOOTH",
"448 0 LINE",
"493 0 LINE",
"493 337 LINE SMOOTH",
"493 450 OFFCURVE",
"417 526 OFFCURVE",
"304 526 CURVE SMOOTH",
"88 526 LINE",
"88 0 LINE"
);
}
);
width = 570;
}
);
leftKerningGroup = n;
leftMetricsKey = "=n";
rightKerningGroup = n;
rightMetricsKey = "=n";
},
{
glyphname = eng;
lastChange = "2021-11-10 04:04:52 +0000";
layers = (
{
layerId = "C1DB0BE6-5704-4A8C-8C00-D80E72C16D98";
paths = (
{
closed = 1;
nodes = (
"422 -220 OFFCURVE",
"482 -165 OFFCURVE",
"482 -62 CURVE SMOOTH",
"482 345 LINE SMOOTH",
"482 461 OFFCURVE",
"390 538 OFFCURVE",
"284 538 CURVE SMOOTH",
"200 538 OFFCURVE",
"131 490 OFFCURVE",
"110 420 CURVE",
"122 415 LINE",
"122 526 LINE",
"77 526 LINE",
"77 0 LINE",
"122 0 LINE",
"122 320 LINE SMOOTH",
"122 417 OFFCURVE",
"180 495 OFFCURVE",
"280 495 CURVE SMOOTH",
"367 495 OFFCURVE",
"437 435 OFFCURVE",
"437 340 CURVE SMOOTH",
"437 -62 LINE SMOOTH",
"437 -137 OFFCURVE",
"397 -177 OFFCURVE",
"328 -177 CURVE SMOOTH",
"317 -177 OFFCURVE",
"303 -176 OFFCURVE",
"292 -174 CURVE",
"292 -215 LINE",
"302 -218 OFFCURVE",
"315 -220 OFFCURVE",
"331 -220 CURVE SMOOTH"
);
}
);
width = 600;
},
{
layerId = "30C2FD74-1A74-41AC-9C29-B288AE1DBDD7";
paths = (
{
closed = 1;
nodes = (
"415 -220 OFFCURVE",
"495 -161 OFFCURVE",
"495 -50 CURVE SMOOTH",
"495 348 LINE SMOOTH",
"495 462 OFFCURVE",
"407 548 OFFCURVE",
"294 548 CURVE SMOOTH",
"214 548 OFFCURVE",
"149 505 OFFCURVE",
"123 436 CURVE",
"140 432 LINE",
"140 536 LINE",
"65 536 LINE",
"65 0 LINE",
"140 0 LINE",
"140 319 LINE SMOOTH",
"140 415 OFFCURVE",
"199 473 OFFCURVE",
"281 473 CURVE SMOOTH",
"363 473 OFFCURVE",
"420 416 OFFCURVE",
"420 319 CURVE SMOOTH",
"420 -50 LINE SMOOTH",
"420 -117 OFFCURVE",
"376 -150 OFFCURVE",
"322 -150 CURVE SMOOTH",
"309 -150 OFFCURVE",
"294 -149 OFFCURVE",
"280 -147 CURVE",
"280 -216 LINE",
"290 -219 OFFCURVE",
"311 -220 OFFCURVE",
"320 -220 CURVE SMOOTH"
);
}
);
width = 600;
},
{
layerId = "9398AC28-6BE1-4A79-9C94-3CBC2F226CE7";
paths = (
{
closed = 1;
nodes = (
"470 -222 OFFCURVE",
"550 -149 OFFCURVE",
"550 -20 CURVE SMOOTH",
"550 351 LINE SMOOTH",
"550 475 OFFCURVE",
"466 558 OFFCURVE",
"343 558 CURVE SMOOTH",
"267 558 OFFCURVE",
"207 527 OFFCURVE",
"182 462 CURVE",
"190 438 LINE",
"190 546 LINE",
"50 546 LINE",
"50 0 LINE",
"200 0 LINE",
"200 319 LINE SMOOTH",
"200 382 OFFCURVE",
"241 423 OFFCURVE",
"300 423 CURVE SMOOTH",
"359 423 OFFCURVE",
"400 382 OFFCURVE",
"400 319 CURVE SMOOTH",
"400 -20 LINE SMOOTH",
"400 -68 OFFCURVE",
"371 -92 OFFCURVE",
"314 -92 CURVE SMOOTH",
"302 -92 OFFCURVE",
"291 -91 OFFCURVE",
"280 -89 CURVE",
"280 -217 LINE",
"293 -220 OFFCURVE",
"314 -222 OFFCURVE",
"334 -222 CURVE SMOOTH"
);
}
);
width = 600;
}
);
leftKerningGroup = n;
rightKerningGroup = n;
unicode = 014B;
},
{
glyphname = eng.ss01;
lastChange = "2021-11-10 04:04:52 +0000";
layers = (
{
layerId = "C1DB0BE6-5704-4A8C-8C00-D80E72C16D98";
paths = (
{
closed = 1;
nodes = (
"433 -220 OFFCURVE",
"493 -165 OFFCURVE",
"493 -62 CURVE SMOOTH",
"493 526 LINE",
"88 526 LINE",
"88 0 LINE",
"133 0 LINE",
"133 486 LINE",
"448 486 LINE",
"448 -62 LINE SMOOTH",
"448 -137 OFFCURVE",
"408 -177 OFFCURVE",
"339 -177 CURVE SMOOTH",
"328 -177 OFFCURVE",
"314 -176 OFFCURVE",
"303 -174 CURVE",
"303 -215 LINE",
"313 -218 OFFCURVE",
"326 -220 OFFCURVE",
"342 -220 CURVE SMOOTH"
);
}
);
width = 570;
},
{
layerId = "30C2FD74-1A74-41AC-9C29-B288AE1DBDD7";
paths = (
{
closed = 1;
nodes = (
"427 -220 OFFCURVE",
"507 -161 OFFCURVE",
"507 -50 CURVE SMOOTH",
"507 536 LINE",
"77 536 LINE",
"77 0 LINE",
"152 0 LINE",
"152 461 LINE",
"432 461 LINE",
"432 -50 LINE SMOOTH",
"432 -117 OFFCURVE",
"388 -150 OFFCURVE",
"334 -150 CURVE SMOOTH",
"321 -150 OFFCURVE",
"306 -149 OFFCURVE",
"292 -147 CURVE",
"292 -216 LINE",
"302 -219 OFFCURVE",
"323 -220 OFFCURVE",
"332 -220 CURVE SMOOTH"
);
}
);
width = 573;
},
{
layerId = "9398AC28-6BE1-4A79-9C94-3CBC2F226CE7";
paths = (
{
closed = 1;
nodes = (
"475 -222 OFFCURVE",
"555 -149 OFFCURVE",
"555 -20 CURVE SMOOTH",
"555 546 LINE",
"55 546 LINE",
"55 0 LINE",
"205 0 LINE",
"205 416 LINE",
"405 416 LINE",
"405 -20 LINE SMOOTH",
"405 -68 OFFCURVE",
"376 -92 OFFCURVE",
"319 -92 CURVE SMOOTH",
"307 -92 OFFCURVE",
"296 -91 OFFCURVE",
"285 -89 CURVE",
"285 -217 LINE",
"298 -220 OFFCURVE",
"319 -222 OFFCURVE",
"339 -222 CURVE SMOOTH"
);
}
);
width = 599;
}
);
leftKerningGroup = n;
leftMetricsKey = "=n";
rightKerningGroup = n;
rightMetricsKey = "=n";
},
{
glyphname = eng.ss03;
lastChange = "2021-11-10 04:04:52 +0000";
layers = (
{
layerId = "C1DB0BE6-5704-4A8C-8C00-D80E72C16D98";
paths = (
{
closed = 1;
nodes = (
"433 -220 OFFCURVE",
"493 -165 OFFCURVE",
"493 -62 CURVE SMOOTH",
"493 337 LINE SMOOTH",
"493 450 OFFCURVE",
"417 526 OFFCURVE",
"304 526 CURVE SMOOTH",
"88 526 LINE",
"88 0 LINE",
"133 0 LINE",
"133 486 LINE",
"304 486 LINE SMOOTH",
"390 486 OFFCURVE",
"448 426 OFFCURVE",
"448 337 CURVE SMOOTH",
"448 -62 LINE SMOOTH",
"448 -137 OFFCURVE",
"408 -177 OFFCURVE",
"339 -177 CURVE SMOOTH",
"328 -177 OFFCURVE",
"314 -176 OFFCURVE",
"303 -174 CURVE",
"303 -215 LINE",
"313 -218 OFFCURVE",
"326 -220 OFFCURVE",
"342 -220 CURVE SMOOTH"
);
}
);
width = 570;
},
{
layerId = "30C2FD74-1A74-41AC-9C29-B288AE1DBDD7";
paths = (
{
closed = 1;
nodes = (
"427 -220 OFFCURVE",
"507 -161 OFFCURVE",
"507 -50 CURVE SMOOTH",
"507 327 LINE SMOOTH",
"507 458 OFFCURVE",
"428 536 OFFCURVE",
"295 536 CURVE SMOOTH",
"77 536 LINE",
"77 0 LINE",
"152 0 LINE",
"152 461 LINE",
"295 461 LINE SMOOTH",
"381 461 OFFCURVE",
"432 411 OFFCURVE",
"432 327 CURVE SMOOTH",
"432 -50 LINE SMOOTH",
"432 -117 OFFCURVE",
"388 -150 OFFCURVE",
"334 -150 CURVE SMOOTH",
"321 -150 OFFCURVE",
"306 -149 OFFCURVE",
"292 -147 CURVE",
"292 -216 LINE",
"302 -219 OFFCURVE",
"323 -220 OFFCURVE",
"332 -220 CURVE SMOOTH"
);
}
);
width = 573;
},
{
layerId = "9398AC28-6BE1-4A79-9C94-3CBC2F226CE7";
paths = (
{
closed = 1;
nodes = (
"475 -222 OFFCURVE",
"555 -149 OFFCURVE",
"555 -20 CURVE SMOOTH",
"555 332 LINE SMOOTH",
"555 464 OFFCURVE",
"463 546 OFFCURVE",
"314 546 CURVE SMOOTH",
"55 546 LINE",
"55 0 LINE",
"205 0 LINE",
"205 416 LINE",
"314 416 LINE SMOOTH",
"369 416 OFFCURVE",
"405 380 OFFCURVE",
"405 324 CURVE SMOOTH",
"405 -20 LINE SMOOTH",
"405 -68 OFFCURVE",
"376 -92 OFFCURVE",
"319 -92 CURVE SMOOTH",
"307 -92 OFFCURVE",
"296 -91 OFFCURVE",
"285 -89 CURVE",
"285 -217 LINE",
"298 -220 OFFCURVE",
"319 -222 OFFCURVE",
"339 -222 CURVE SMOOTH"
);
}
);
width = 599;
}
);
leftKerningGroup = n;
leftMetricsKey = "=n";
rightKerningGroup = n;
rightMetricsKey = "=n";
},
{
glyphname = o;
lastChange = "2021-11-10 08:07:57 +0000";
layers = (
{
anchors = (
{
name = bottom;
position = "{328, 0}";
},
{
name = center;
position = "{328, 268}";
},
{
name = ogonek;
position = "{378, 0}";
},
{
name = top;
position = "{328, 536}";
},
{
name = topright;
position = "{635, 536}";
}
);
layerId = "30C2FD74-1A74-41AC-9C29-B288AE1DBDD7";
paths = (
{
closed = 1;
nodes = (
"477 -12 OFFCURVE",
"600 104 OFFCURVE",
"600 269 CURVE SMOOTH",
"600 430 OFFCURVE",
"483 548 OFFCURVE",
"328 548 CURVE SMOOTH",
"172 548 OFFCURVE",
"55 429 OFFCURVE",
"55 269 CURVE SMOOTH",
"55 107 OFFCURVE",
"176 -12 OFFCURVE",
"328 -12 CURVE SMOOTH"
);
},
{
closed = 1;
nodes = (
"220 63 OFFCURVE",
"135 152 OFFCURVE",
"135 269 CURVE SMOOTH",
"135 385 OFFCURVE",
"220 473 OFFCURVE",
"328 473 CURVE SMOOTH",
"435 473 OFFCURVE",
"520 385 OFFCURVE",
"520 269 CURVE SMOOTH",
"520 152 OFFCURVE",
"435 63 OFFCURVE",
"328 63 CURVE SMOOTH"
);
}
);
width = 655;
},
{
anchors = (
{
name = bottom;
position = "{326, 0}";
},
{
name = center;
position = "{326, 273}";
},
{
name = ogonek;
position = "{376, 0}";
},
{
name = top;
position = "{326, 546}";
},
{
name = topright;
position = "{631, 546}";
}
);
layerId = "9398AC28-6BE1-4A79-9C94-3CBC2F226CE7";
paths = (
{
closed = 1;
nodes = (
"487 -12 OFFCURVE",
"618 108 OFFCURVE",
"618 273 CURVE SMOOTH",
"618 438 OFFCURVE",
"487 558 OFFCURVE",
"326 558 CURVE SMOOTH",
"164 558 OFFCURVE",
"33 438 OFFCURVE",
"33 273 CURVE SMOOTH",
"33 108 OFFCURVE",
"164 -12 OFFCURVE",
"326 -12 CURVE SMOOTH"
);
},
{
closed = 1;
nodes = (
"244 123 OFFCURVE",
"188 185 OFFCURVE",
"188 273 CURVE SMOOTH",
"188 360 OFFCURVE",
"244 423 OFFCURVE",
"326 423 CURVE SMOOTH",
"407 423 OFFCURVE",
"463 360 OFFCURVE",
"463 273 CURVE SMOOTH",
"463 185 OFFCURVE",
"407 123 OFFCURVE",
"326 123 CURVE SMOOTH"
);
}
);
width = 651;
},
{
anchors = (
{
name = bottom;
position = "{331, 0}";
},
{
name = center;
position = "{331, 263}";
},
{
name = ogonek;
position = "{381, 0}";
},
{
name = top;
position = "{331, 526}";
},
{
name = topright;
position = "{642, 526}";
}
);
layerId = "C1DB0BE6-5704-4A8C-8C00-D80E72C16D98";
paths = (
{
closed = 1;
nodes = (
"482 -12 OFFCURVE",
"596 106 OFFCURVE",
"596 263 CURVE SMOOTH",
"596 420 OFFCURVE",
"482 538 OFFCURVE",
"331 538 CURVE SMOOTH",
"180 538 OFFCURVE",
"66 420 OFFCURVE",
"66 263 CURVE SMOOTH",
"66 106 OFFCURVE",
"180 -12 OFFCURVE",
"331 -12 CURVE SMOOTH"
);
},
{
closed = 1;
nodes = (
"209 31 OFFCURVE",
"114 132 OFFCURVE",
"114 263 CURVE SMOOTH",
"114 394 OFFCURVE",
"208 495 OFFCURVE",
"331 495 CURVE SMOOTH",
"454 495 OFFCURVE",
"548 394 OFFCURVE",
"548 263 CURVE SMOOTH",
"548 132 OFFCURVE",
"453 31 OFFCURVE",
"331 31 CURVE SMOOTH"
);
}
);
width = 662;
}
);
leftKerningGroup = o;
rightKerningGroup = o;
unicode = 006F;
},
{
glyphname = ohorn;
lastChange = "2021-11-10 09:15:13 +0000";
layers = (
{
anchors = (
{
name = bottom;
position = "{331, 0}";
},
{
name = center;
position = "{331, 263}";
},
{
name = ogonek;
position = "{381, 30}";
},
{
name = top;
position = "{331, 526}";
},
{
name = topright;
position = "{642, 526}";
}
);
layerId = "C1DB0BE6-5704-4A8C-8C00-D80E72C16D98";
paths = (
{
closed = 1;
nodes = (
"482 -12 OFFCURVE",
"596 106 OFFCURVE",
"596 263 CURVE SMOOTH",
"596 372 OFFCURVE",
"542 461 OFFCURVE",
"459 506 CURVE",
"455 497 LINE",
"507 500 OFFCURVE",
"543 531 OFFCURVE",
"543 587 CURVE SMOOTH",
"543 616 OFFCURVE",
"533 645 OFFCURVE",
"522 674 CURVE",
"477 674 LINE",
"487 647 OFFCURVE",
"497 621 OFFCURVE",
"497 593 CURVE SMOOTH",
"497 554 OFFCURVE",
"476 538 OFFCURVE",
"444 538 CURVE SMOOTH",
"331 538 LINE SMOOTH",
"180 538 OFFCURVE",
"66 420 OFFCURVE",
"66 263 CURVE SMOOTH",
"66 106 OFFCURVE",
"180 -12 OFFCURVE",
"331 -12 CURVE SMOOTH"
);
},
{
closed = 1;
nodes = (
"209 31 OFFCURVE",
"114 132 OFFCURVE",
"114 263 CURVE SMOOTH",
"114 394 OFFCURVE",
"208 495 OFFCURVE",
"331 495 CURVE SMOOTH",
"454 495 OFFCURVE",
"548 394 OFFCURVE",
"548 263 CURVE SMOOTH",
"548 132 OFFCURVE",
"453 31 OFFCURVE",
"331 31 CURVE SMOOTH"
);
}
);
width = 662;
},
{
anchors = (
{
name = bottom;
position = "{328, 0}";
},
{
name = center;
position = "{328, 268}";
},
{
name = ogonek;
position = "{378, 40}";
},
{
name = top;
position = "{328, 536}";
},
{
name = topright;
position = "{635, 536}";
}
);
layerId = "30C2FD74-1A74-41AC-9C29-B288AE1DBDD7";
paths = (
{
closed = 1;
nodes = (
"477 -12 OFFCURVE",
"600 104 OFFCURVE",
"600 269 CURVE SMOOTH",
"600 369 OFFCURVE",
"555 452 OFFCURVE",
"483 501 CURVE",
"480 490 LINE",
"532 498 OFFCURVE",
"567 532 OFFCURVE",
"567 594 CURVE SMOOTH",
"567 627 OFFCURVE",
"556 654 OFFCURVE",
"544 681 CURVE",
"470 681 LINE",
"482 654 OFFCURVE",
"492 629 OFFCURVE",
"492 601 CURVE SMOOTH",
"492 558 OFFCURVE",
"467 548 OFFCURVE",
"441 548 CURVE SMOOTH",
"328 548 LINE SMOOTH",
"172 548 OFFCURVE",
"55 429 OFFCURVE",
"55 269 CURVE SMOOTH",
"55 107 OFFCURVE",
"176 -12 OFFCURVE",
"328 -12 CURVE SMOOTH"
);
},
{
closed = 1;
nodes = (
"220 63 OFFCURVE",
"135 152 OFFCURVE",
"135 269 CURVE SMOOTH",
"135 385 OFFCURVE",
"220 473 OFFCURVE",
"328 473 CURVE SMOOTH",
"435 473 OFFCURVE",
"520 385 OFFCURVE",
"520 269 CURVE SMOOTH",
"520 152 OFFCURVE",
"435 63 OFFCURVE",
"328 63 CURVE SMOOTH"
);
}
);
width = 655;
},
{
anchors = (
{
name = bottom;
position = "{326, 0}";
},
{
name = center;
position = "{326, 273}";
},
{
name = ogonek;
position = "{326, 41}";
},
{
name = top;
position = "{326, 546}";
},
{
name = topright;
position = "{631, 546}";
}
);
layerId = "9398AC28-6BE1-4A79-9C94-3CBC2F226CE7";
paths = (
{
closed = 1;
nodes = (
"487 -12 OFFCURVE",
"618 108 OFFCURVE",
"618 273 CURVE SMOOTH",
"618 370 OFFCURVE",
"573 451 OFFCURVE",
"505 501 CURVE",
"494 457 LINE",
"561 471 OFFCURVE",
"606 513 OFFCURVE",
"606 594 CURVE SMOOTH",
"606 630 OFFCURVE",
"596 655 OFFCURVE",
"583 683 CURVE",
"457 683 LINE",
"467 658 OFFCURVE",
"477 628 OFFCURVE",
"477 607 CURVE SMOOTH",
"477 555 OFFCURVE",
"442 558 OFFCURVE",
"430 558 CURVE SMOOTH",
"326 558 LINE SMOOTH",
"164 558 OFFCURVE",
"33 438 OFFCURVE",
"33 273 CURVE SMOOTH",
"33 108 OFFCURVE",
"164 -12 OFFCURVE",
"326 -12 CURVE SMOOTH"
);
},
{
closed = 1;
nodes = (
"244 123 OFFCURVE",
"188 185 OFFCURVE",
"188 273 CURVE SMOOTH",
"188 360 OFFCURVE",
"244 423 OFFCURVE",
"326 423 CURVE SMOOTH",
"407 423 OFFCURVE",
"463 360 OFFCURVE",
"463 273 CURVE SMOOTH",
"463 185 OFFCURVE",
"407 123 OFFCURVE",
"326 123 CURVE SMOOTH"
);
}
);
width = 651;
}
);
leftKerningGroup = o;
leftMetricsKey = "=o";
rightKerningGroup = o;
rightMetricsKey = "=o";
unicode = 01A1;
},
{
glyphname = oe;
lastChange = "2021-11-10 04:04:52 +0000";
layers = (
{
layerId = "30C2FD74-1A74-41AC-9C29-B288AE1DBDD7";
paths = (
{
closed = 1;
nodes = (
"435 -12 OFFCURVE",
"529 48 OFFCURVE",
"573 144 CURVE",
"551 144 LINE",
"594 49 OFFCURVE",
"683 -12 OFFCURVE",
"791 -12 CURVE SMOOTH",
"900 -12 OFFCURVE",
"986 49 OFFCURVE",
"1019 122 CURVE",
"955 156 LINE",
"921 100 OFFCURVE",
"869 58 OFFCURVE",
"791 58 CURVE SMOOTH",
"695 58 OFFCURVE",
"607 130 OFFCURVE",
"604 245 CURVE",
"1026 245 LINE",
"1029 262 OFFCURVE",
"1030 280 OFFCURVE",
"1030 293 CURVE SMOOTH",
"1030 421 OFFCURVE",
"937 548 OFFCURVE",
"783 548 CURVE SMOOTH",
"678 548 OFFCURVE",
"592 489 OFFCURVE",
"550 395 CURVE",
"572 396 LINE",
"530 488 OFFCURVE",
"438 548 OFFCURVE",
"328 548 CURVE SMOOTH",
"172 548 OFFCURVE",
"55 429 OFFCURVE",
"55 269 CURVE SMOOTH",
"55 107 OFFCURVE",
"176 -12 OFFCURVE",
"328 -12 CURVE SMOOTH"
);
},
{
closed = 1;
nodes = (
"220 63 OFFCURVE",
"135 152 OFFCURVE",
"135 269 CURVE SMOOTH",
"135 385 OFFCURVE",
"220 473 OFFCURVE",
"328 473 CURVE SMOOTH",
"435 473 OFFCURVE",
"520 385 OFFCURVE",
"520 269 CURVE SMOOTH",
"520 152 OFFCURVE",
"435 63 OFFCURVE",
"328 63 CURVE SMOOTH"
);
},
{
closed = 1;
nodes = (
"617 415 OFFCURVE",
"696 478 OFFCURVE",
"783 478 CURVE SMOOTH",
"873 478 OFFCURVE",
"949 410 OFFCURVE",
"949 315 CURVE",
"606 315 LINE"
);
}
);
width = 1085;
},
{
layerId = "9398AC28-6BE1-4A79-9C94-3CBC2F226CE7";
paths = (
{
closed = 1;
nodes = (
"427 -12 OFFCURVE",
"515 35 OFFCURVE",
"568 110 CURVE",
"514 109 LINE",
"563 36 OFFCURVE",
"646 -12 OFFCURVE",
"752 -12 CURVE SMOOTH",
"864 -12 OFFCURVE",
"954 41 OFFCURVE",
"987 121 CURVE",
"867 178 LINE",
"846 141 OFFCURVE",
"807 118 OFFCURVE",
"754 118 CURVE SMOOTH",
"680 118 OFFCURVE",
"632 162 OFFCURVE",
"623 231 CURVE",
"1005 231 LINE",
"1010 246 OFFCURVE",
"1012 267 OFFCURVE",
"1012 289 CURVE SMOOTH",
"1012 440 OFFCURVE",
"915 558 OFFCURVE",
"742 558 CURVE SMOOTH",
"645 558 OFFCURVE",
"561 511 OFFCURVE",
"514 435 CURVE",
"568 436 LINE",
"515 511 OFFCURVE",
"426 558 OFFCURVE",
"326 558 CURVE SMOOTH",
"164 558 OFFCURVE",
"33 438 OFFCURVE",
"33 273 CURVE SMOOTH",
"33 108 OFFCURVE",
"164 -12 OFFCURVE",
"326 -12 CURVE SMOOTH"
);
},
{
closed = 1;
nodes = (
"244 123 OFFCURVE",
"188 185 OFFCURVE",
"188 273 CURVE SMOOTH",
"188 360 OFFCURVE",
"244 423 OFFCURVE",
"326 423 CURVE SMOOTH",
"407 423 OFFCURVE",
"463 360 OFFCURVE",
"463 273 CURVE SMOOTH",
"463 185 OFFCURVE",
"407 123 OFFCURVE",
"326 123 CURVE SMOOTH"
);
},
{
closed = 1;
nodes = (
"640 404 OFFCURVE",
"683 438 OFFCURVE",
"742 438 CURVE SMOOTH",
"804 438 OFFCURVE",
"847 399 OFFCURVE",
"853 341 CURVE",
"626 341 LINE"
);
}
);
width = 1045;
},
{
layerId = "C1DB0BE6-5704-4A8C-8C00-D80E72C16D98";
paths = (
{
closed = 1;
nodes = (
"452 -12 OFFCURVE",
"548 63 OFFCURVE",
"582 173 CURVE",
"565 173 LINE",
"601 63 OFFCURVE",
"697 -12 OFFCURVE",
"817 -12 CURVE SMOOTH",
"911 -12 OFFCURVE",
"993 36 OFFCURVE",
"1032 113 CURVE",
"994 133 LINE",
"957 68 OFFCURVE",
"893 30 OFFCURVE",
"817 30 CURVE SMOOTH",
"695 30 OFFCURVE",
"604 123 OFFCURVE",
"597 249 CURVE",
"1044 249 LINE",
"1046 264 OFFCURVE",
"1047 275 OFFCURVE",
"1047 288 CURVE SMOOTH",
"1047 430 OFFCURVE",
"944 538 OFFCURVE",
"807 538 CURVE SMOOTH",
"693 538 OFFCURVE",
"599 463 OFFCURVE",
"566 353 CURVE",
"582 354 LINE",
"548 464 OFFCURVE",
"451 538 OFFCURVE",
"331 538 CURVE SMOOTH",
"180 538 OFFCURVE",
"66 420 OFFCURVE",
"66 263 CURVE SMOOTH",
"66 106 OFFCURVE",
"180 -12 OFFCURVE",
"331 -12 CURVE SMOOTH"
);
},
{
closed = 1;
nodes = (
"209 31 OFFCURVE",
"114 132 OFFCURVE",
"114 263 CURVE SMOOTH",
"114 394 OFFCURVE",
"208 495 OFFCURVE",
"331 495 CURVE SMOOTH",
"454 495 OFFCURVE",
"548 394 OFFCURVE",
"548 263 CURVE SMOOTH",
"548 132 OFFCURVE",
"453 31 OFFCURVE",
"331 31 CURVE SMOOTH"
);
},
{
closed = 1;
nodes = (
"609 407 OFFCURVE",
"697 496 OFFCURVE",
"807 496 CURVE SMOOTH",
"917 496 OFFCURVE",
"1001 406 OFFCURVE",
"1001 289 CURVE",
"598 289 LINE"
);
}
);
width = 1113;
}
);
leftKerningGroup = o;
leftMetricsKey = "=o";
rightKerningGroup = e;
rightMetricsKey = "=e";
unicode = 0153;
},
{
glyphname = p;
lastChange = "2021-11-10 04:04:52 +0000";
layers = (
{
anchors = (
{
name = bottom;
position = "{334, 0}";
},
{
name = top;
position = "{334, 536}";
}
);
layerId = "30C2FD74-1A74-41AC-9C29-B288AE1DBDD7";
paths = (
{
closed = 1;
nodes = (
"152 -200 LINE",
"152 120 LINE",
"140 109 LINE",
"177 32 OFFCURVE",
"256 -12 OFFCURVE",
"348 -12 CURVE SMOOTH",
"499 -12 OFFCURVE",
"612 107 OFFCURVE",
"612 268 CURVE SMOOTH",
"612 429 OFFCURVE",
"500 548 OFFCURVE",
"348 548 CURVE SMOOTH",
"256 548 OFFCURVE",
"182 505 OFFCURVE",
"140 437 CURVE",
"152 416 LINE",
"152 536 LINE",
"77 536 LINE",
"77 -200 LINE"
);
},
{
closed = 1;
nodes = (
"236 63 OFFCURVE",
"152 152 OFFCURVE",
"152 268 CURVE SMOOTH",
"152 384 OFFCURVE",
"236 473 OFFCURVE",
"344 473 CURVE SMOOTH",
"451 473 OFFCURVE",
"532 385 OFFCURVE",
"532 268 CURVE SMOOTH",
"532 151 OFFCURVE",
"452 63 OFFCURVE",
"344 63 CURVE SMOOTH"
);
}
);
width = 667;
},
{
anchors = (
{
name = bottom;
position = "{337, 0}";
},
{
name = top;
position = "{337, 546}";
}
);
layerId = "9398AC28-6BE1-4A79-9C94-3CBC2F226CE7";
paths = (
{
closed = 1;
nodes = (
"205 -200 LINE",
"205 100 LINE",
"181 69 LINE",
"219 16 OFFCURVE",
"286 -12 OFFCURVE",
"361 -12 CURVE SMOOTH",
"521 -12 OFFCURVE",
"640 114 OFFCURVE",
"640 273 CURVE SMOOTH",
"640 433 OFFCURVE",
"518 558 OFFCURVE",
"362 558 CURVE SMOOTH",
"282 558 OFFCURVE",
"218 527 OFFCURVE",
"182 472 CURVE",
"195 442 LINE",
"195 546 LINE",
"55 546 LINE",
"55 -200 LINE"
);
},
{
closed = 1;
nodes = (
"262 123 OFFCURVE",
"205 184 OFFCURVE",
"205 273 CURVE SMOOTH",
"205 361 OFFCURVE",
"262 423 OFFCURVE",
"343 423 CURVE SMOOTH",
"426 423 OFFCURVE",
"485 360 OFFCURVE",
"485 273 CURVE SMOOTH",
"485 185 OFFCURVE",
"426 123 OFFCURVE",
"343 123 CURVE SMOOTH"
);
}
);
width = 673;
},
{
anchors = (
{
name = bottom;
position = "{337, 0}";
},
{
name = top;
position = "{337, 526}";
}
);
layerId = "C1DB0BE6-5704-4A8C-8C00-D80E72C16D98";
paths = (
{
closed = 1;
nodes = (
"133 -200 LINE",
"133 149 LINE",
"125 132 LINE",
"163 45 OFFCURVE",
"248 -12 OFFCURVE",
"349 -12 CURVE SMOOTH",
"496 -12 OFFCURVE",
"608 107 OFFCURVE",
"608 263 CURVE SMOOTH",
"608 419 OFFCURVE",
"496 538 OFFCURVE",
"349 538 CURVE SMOOTH",
"248 538 OFFCURVE",
"163 481 OFFCURVE",
"125 394 CURVE",
"133 377 LINE",
"133 526 LINE",
"88 526 LINE",
"88 -200 LINE"
);
},
{
closed = 1;
nodes = (
"228 33 OFFCURVE",
"136 130 OFFCURVE",
"136 263 CURVE SMOOTH",
"136 396 OFFCURVE",
"228 493 OFFCURVE",
"349 493 CURVE SMOOTH",
"471 493 OFFCURVE",
"560 395 OFFCURVE",
"560 263 CURVE SMOOTH",
"560 131 OFFCURVE",
"471 33 OFFCURVE",
"349 33 CURVE SMOOTH"
);
}
);
width = 674;
}
);
leftKerningGroup = n;
rightKerningGroup = o;
unicode = 0070;
},
{
glyphname = p.ss02;
lastChange = "2021-11-10 04:04:52 +0000";
layers = (
{
layerId = "30C2FD74-1A74-41AC-9C29-B288AE1DBDD7";
paths = (
{
closed = 1;
nodes = (
"189 -200 LINE",
"189 120 LINE",
"177 109 LINE",
"214 32 OFFCURVE",
"293 -12 OFFCURVE",
"385 -12 CURVE SMOOTH",
"536 -12 OFFCURVE",
"649 107 OFFCURVE",
"649 268 CURVE SMOOTH",
"649 429 OFFCURVE",
"537 548 OFFCURVE",
"385 548 CURVE SMOOTH",
"293 548 OFFCURVE",
"219 505 OFFCURVE",
"177 437 CURVE",
"189 416 LINE",
"189 536 LINE",
"39 536 LINE",
"39 466 LINE",
"114 466 LINE",
"114 -200 LINE"
);
},
{
closed = 1;
nodes = (
"273 63 OFFCURVE",
"189 152 OFFCURVE",
"189 268 CURVE SMOOTH",
"189 384 OFFCURVE",
"273 473 OFFCURVE",
"381 473 CURVE SMOOTH",
"488 473 OFFCURVE",
"569 385 OFFCURVE",
"569 268 CURVE SMOOTH",
"569 151 OFFCURVE",
"489 63 OFFCURVE",
"381 63 CURVE SMOOTH"
);
}
);
width = 704;
},
{
layerId = "9398AC28-6BE1-4A79-9C94-3CBC2F226CE7";
paths = (
{
closed = 1;
nodes = (
"248 -200 LINE",
"248 100 LINE",
"224 69 LINE",
"262 16 OFFCURVE",
"329 -12 OFFCURVE",
"404 -12 CURVE SMOOTH",
"563 -12 OFFCURVE",
"682 114 OFFCURVE",
"682 273 CURVE SMOOTH",
"682 433 OFFCURVE",
"560 558 OFFCURVE",
"405 558 CURVE SMOOTH",
"325 558 OFFCURVE",
"261 527 OFFCURVE",
"225 472 CURVE",
"238 442 LINE",
"238 546 LINE",
"28 546 LINE",
"28 416 LINE",
"98 416 LINE",
"98 -200 LINE"
);
},
{
closed = 1;
nodes = (
"305 123 OFFCURVE",
"248 184 OFFCURVE",
"248 273 CURVE SMOOTH",
"248 361 OFFCURVE",
"305 423 OFFCURVE",
"386 423 CURVE SMOOTH",
"468 423 OFFCURVE",
"527 360 OFFCURVE",
"527 273 CURVE SMOOTH",
"527 185 OFFCURVE",
"468 123 OFFCURVE",
"386 123 CURVE SMOOTH"
);
}
);
width = 715;
},
{
layerId = "C1DB0BE6-5704-4A8C-8C00-D80E72C16D98";
paths = (
{
closed = 1;
nodes = (
"164 -200 LINE",
"164 149 LINE",
"156 132 LINE",
"194 45 OFFCURVE",
"279 -12 OFFCURVE",
"380 -12 CURVE SMOOTH",
"527 -12 OFFCURVE",
"639 107 OFFCURVE",
"639 263 CURVE SMOOTH",
"639 419 OFFCURVE",
"527 538 OFFCURVE",
"380 538 CURVE SMOOTH",
"279 538 OFFCURVE",
"194 481 OFFCURVE",
"156 394 CURVE",
"164 377 LINE",
"164 526 LINE",
"44 526 LINE",
"44 486 LINE",
"119 486 LINE",
"119 -200 LINE"
);
},
{
closed = 1;
nodes = (
"259 33 OFFCURVE",
"167 130 OFFCURVE",
"167 263 CURVE SMOOTH",
"167 396 OFFCURVE",
"259 493 OFFCURVE",
"380 493 CURVE SMOOTH",
"502 493 OFFCURVE",
"591 395 OFFCURVE",
"591 263 CURVE SMOOTH",
"591 131 OFFCURVE",
"502 33 OFFCURVE",
"380 33 CURVE SMOOTH"
);
}
);
width = 705;
}
);
leftKerningGroup = n;
leftMetricsKey = "=p/2";
rightKerningGroup = o;
rightMetricsKey = "=o";
},
{
glyphname = thorn;
lastChange = "2021-11-10 04:04:52 +0000";
layers = (
{
layerId = "30C2FD74-1A74-41AC-9C29-B288AE1DBDD7";
paths = (
{
closed = 1;
nodes = (
"152 -200 LINE",
"152 120 LINE",
"140 109 LINE",
"177 32 OFFCURVE",
"256 -12 OFFCURVE",
"348 -12 CURVE SMOOTH",
"499 -12 OFFCURVE",
"612 107 OFFCURVE",
"612 268 CURVE SMOOTH",
"612 429 OFFCURVE",
"500 548 OFFCURVE",
"348 548 CURVE SMOOTH",
"256 548 OFFCURVE",
"182 505 OFFCURVE",
"140 437 CURVE",
"152 416 LINE",
"152 745 LINE",
"77 745 LINE",
"77 -200 LINE"
);
},
{
closed = 1;
nodes = (
"236 63 OFFCURVE",
"152 152 OFFCURVE",
"152 268 CURVE SMOOTH",
"152 384 OFFCURVE",
"236 473 OFFCURVE",
"344 473 CURVE SMOOTH",
"451 473 OFFCURVE",
"532 385 OFFCURVE",
"532 268 CURVE SMOOTH",
"532 151 OFFCURVE",
"452 63 OFFCURVE",
"344 63 CURVE SMOOTH"
);
}
);
width = 667;
},
{
layerId = "9398AC28-6BE1-4A79-9C94-3CBC2F226CE7";
paths = (
{
closed = 1;
nodes = (
"205 -200 LINE",
"205 100 LINE",
"181 69 LINE",
"219 16 OFFCURVE",
"286 -12 OFFCURVE",
"361 -12 CURVE SMOOTH",
"521 -12 OFFCURVE",
"640 114 OFFCURVE",
"640 273 CURVE SMOOTH",
"640 433 OFFCURVE",
"518 558 OFFCURVE",
"362 558 CURVE SMOOTH",
"282 558 OFFCURVE",
"218 527 OFFCURVE",
"182 472 CURVE",
"195 442 LINE",
"195 745 LINE",
"55 745 LINE",
"55 -200 LINE"
);
},
{
closed = 1;
nodes = (
"262 123 OFFCURVE",
"205 184 OFFCURVE",
"205 273 CURVE SMOOTH",
"205 361 OFFCURVE",
"262 423 OFFCURVE",
"343 423 CURVE SMOOTH",
"426 423 OFFCURVE",
"485 360 OFFCURVE",
"485 273 CURVE SMOOTH",
"485 185 OFFCURVE",
"426 123 OFFCURVE",
"343 123 CURVE SMOOTH"
);
}
);
width = 673;
},
{
layerId = "C1DB0BE6-5704-4A8C-8C00-D80E72C16D98";
paths = (
{
closed = 1;
nodes = (
"133 -200 LINE",
"133 149 LINE",
"125 132 LINE",
"163 45 OFFCURVE",
"248 -12 OFFCURVE",
"349 -12 CURVE SMOOTH",
"496 -12 OFFCURVE",
"608 107 OFFCURVE",
"608 263 CURVE SMOOTH",
"608 419 OFFCURVE",
"496 538 OFFCURVE",
"349 538 CURVE SMOOTH",
"248 538 OFFCURVE",
"163 481 OFFCURVE",
"125 394 CURVE",
"133 377 LINE",
"133 745 LINE",
"88 745 LINE",
"88 -200 LINE"
);
},
{
closed = 1;
nodes = (
"228 33 OFFCURVE",
"136 130 OFFCURVE",
"136 263 CURVE SMOOTH",
"136 396 OFFCURVE",
"228 493 OFFCURVE",
"349 493 CURVE SMOOTH",
"471 493 OFFCURVE",
"560 395 OFFCURVE",
"560 263 CURVE SMOOTH",
"560 131 OFFCURVE",
"471 33 OFFCURVE",
"349 33 CURVE SMOOTH"
);
}
);
width = 674;
}
);
leftKerningGroup = h;
leftMetricsKey = "=p";
rightKerningGroup = o;
rightMetricsKey = "=p";
unicode = 00FE;
},
